<?xml version="1.0" encoding="utf-8"?>
<!-- Generator: Adobe Illustrator 23.1.0, SVG Export Plug-In . SVG Version: 6.00 Build 0)  -->
<svg version="1.1" id="Слой_1"
	xmlns="http://www.w3.org/2000/svg"
	xmlns:xlink="http://www.w3.org/1999/xlink" x="0px" y="0px" viewBox="0 0 595.3 595.9" style="enable-background:new 0 0 595.3 595.9;" xml:space="preserve">
	<style type="text/css">
	.st0{fill-rule:evenodd;clip-rule:evenodd;}
	.st1{fill-rule:evenodd;clip-rule:evenodd;fill:#D7B46A;}
	.st2{fill-rule:evenodd;clip-rule:evenodd;fill:#AE9357;}
	.st3{fill-rule:evenodd;clip-rule:evenodd;fill:#847041;}
	.st4{fill-rule:evenodd;clip-rule:evenodd;fill:#3A3A39;}
	.st5{fill-rule:evenodd;clip-rule:evenodd;fill:#575656;}
	.st6{fill-rule:evenodd;clip-rule:evenodd;fill:#FFF7B2;}
	</style>
	<path class="st0" d="M43.4,162.5C41,229,36.7,337.3,43.4,401c15.5,148.6,200.4,90.2,254.2,183.1c53.8-92.9,238.7-34.5,254.2-183.1
	c6.7-63.7,2.4-172,0-238.6c0-59.2,0-78.5,0-137.6H297.6H43.4C43.4,83.9,43.4,103.3,43.4,162.5"/>
	<path class="st1" d="M526.3,172.8c2.2,60.8,6,159.9,0,218.2C512.1,527,346.8,473.5,297.6,558.6V50.4h228.7
	C526.3,104.5,526.3,118.7,526.3,172.8"/>
	<path class="st2" d="M69,172.8c-2.2,60.8-6,159.9,0,218.2C83.2,527,248.5,473.5,297.7,558.6V50.4H69C69,104.5,69,118.7,69,172.8"/>
	<path class="st2" d="M355.6,497.8c140.8-45.2,157.7-41.9,153.3-198.1C484.8,435.9,476.8,430.7,355.6,497.8"/>
	<path class="st3" d="M82.5,208.1L99,333.6l0.5-103.5L82.5,208.1z M189.4,58H77v53.1C122.4,66.7,127.8,67.2,189.4,58z M225.2,497.8
	c-124.1-42.1-139-39-135.2-184.7C111.3,440.1,118.3,435.3,225.2,497.8z"/>
	<path class="st1" d="M160.8,447c0.1,1.4,0.3,2.9,0.5,4.2L160.8,447z M142.2,364.3c16.6,22.5,15.5,54.9,18.6,82.6l16.2-18.5
	c-6.4-16.2-8.1-32.8,0.4-42.5l8.9,28.6l13.9-23.8c-4.3-7.3-9.2-14-17.4-20.9l-14-51.4l-2.7-20.6l-11.7-3.1L137.5,281l-5.8-8.6
	l-24.1-25.4l-10.8-11.8L81.5,225l-12.1-20.5l1.1-2.7l-3.6-9.6l-1.8-14.5l4.4-9.8l-8.2-19.7L74.8,133l7.5-4.9l15.1-17.4l23.1-16.9
	l9.6-11.5l22.5-10.1l23.1-3.3l70.9,3l2.9,4.5l4.7-2.4l27.6-2.3l23.2-1.1l29.8,9.9l4.6-5.3l26.7-3.7l36.2-1.2l48.1,10.1l32.8,20.3
	l28.3,28l22.8,27.3l-1.3,13.1l-8.1,41.9l-4.3,18.3l-13.9,19.1l-12.5,4.6l-27.8,11l-39.8,35.7l-21.6,11.2l-5.8,40.5
	c-20.1,18.6-21,46.7-27.7,74.2c-7.1-53.7-44.3,49.6-61.6,81l-31.3,6.2L262.2,482l-4.3-33.8l-7.7-44.1c-26.5-8.7-26.1-15-35.5,3.4
	v0.1l-0.1,0.1c-0.8,1.5-1.6,3.3-2.6,5.2l-0.7-1.1l-18.6,23.4l10.1,32.3c-6.4-5.7-13.2-14.5-18.9-24.4l-22.8,7.9
	C142.3,419,145.8,401.5,142.2,364.3z"/>
	<path class="st2" d="M220.6,389.9c2.1,10.7,4.3,23,7.4,38.4c27.9-17,20.5-8.9,29.8,26.6l2.9-67.6L248.1,316l-4.5-7l-12,47.5
	L220.6,389.9z M156.2,116.7c-60.8,34-19.6,32.6-45.3,77.3c-16.1,27.9,49.4,66.1,84.7,86c12.4,7,11,16.3-7.7,27.1
	c12.1,20.2,19.1,34.6,24,48.5l10.7-32.4l1.9-5.8l-2.1,1.9l-17-2l-14.7-9c21.9-2.7,35.2-5.2,39.7-21.4c0.1-0.5,0.5-2.1,0.8-2.6
	l-2-6.7l-0.1-11.4l5.3-35h-7l-21.2-51.3l-3.8-10.7l8.5-23.5c-4.6-23.9-9.9-33.8,7-52.7C192.1,112.4,179.1,104,156.2,116.7z
	 M353.8,347.4c-4.5-4.4-10.2-3.5-17.3,6.6l-6,58.5c8.8,30.2,9.6,59.6-12.5,83.4c2.1-14.3,4.1-28.7,6.2-43c4.3-30.5,6.7-24.9-7.4-52
	l6.7-33.2l8-35.2l-0.4-14.8l8.9-13.4l3.8-0.9c0,1.4,0.1,3,0.4,4.3L353.8,347.4z M370.3,397c-0.3,1.2-0.7,2.5-1.1,3.7
	c-0.4-3.5-0.9-7.3-1.5-11.1L370.3,397z M393.3,328c-6,12.2-10.2,23.9-13.7,35.6l-14-39l11,8.7h10.8L393.3,328z M397.9,117.2
	c37.5,3.7,51.8,20.9,56.4,45.6c9.1,48.3-6.2,27.6,32.7,68.9c-60.5,22.8-38.2,35.5-85.2,58.4c-11.4,5.6-12.4,6.4-22,15.1
	c-14.7-9.2-14.8-8-24.4-22.7l2.5-8.2l-8.4-26.2l14.1-31.1l10.9-33.2l1-33.3l3.3-19L397.9,117.2z"/>
	<path class="st4" d="M184,513.5c-76.9-22-125.7-37.6-130.4-131.7C68.8,470.1,118.1,483.3,184,513.5"/>
	<polygon class="st5" points="294,36.9 540.7,35.8 542.2,146.7 534.5,41.8 "/>
	<path class="st0" d="M340.4,300.6c11.4,45.3,22,114.4,63.1,135.2c28.9,14.5,34,3.1,22.2-6.9c-10.1-8.6-27.3-27.2-37.9-42.2
	c7.3,17.5,26.6,38.3,35.1,45.3c6.4,5.3,1.5,10.2-16.5,1.1c-40.7-20.5-54.3-95.6-64.2-134L340.4,300.6z"/>
	<path class="st0" d="M350,197.3c3.3-7.4,5.3-8,13.6-11.3c-1.4,4.8-4.4,9.9-9.8,10.8c-1.5,0.2-2.1,0.9-2.2,2.2
	c-0.4,3.7,0.5,3.8,2.9,6.6C349.6,205.2,348,201.7,350,197.3 M349.2,208.3c8.9-0.4,11.2-4.9,15.1-13.5c-2.5,12.6-8.4,14.1-10.6,20.5
	c-2.4,7-4.7,14.1-6.9,21.2c-2-5.1-2.1-5.9-2-10.3c0.2-8.7,5.1-5.4,4.6-13.4L349.2,208.3z M375.4,316.8l2.4-2.1
	c0.4,0.2,1,0.4,1.4,0.7c5.9,2.4,8.2-0.9,13.2-5.9c2.1,3.1,1.3,3.6,3.8,2.3c2.6-1.4,4.8-2.5,6.9-3.4l17.7-8.9c0.5-1,1.2-2.4,2.1-4.3
	c1.4,1.3,2.4,2,3.3,2.2h0.1l5.5-4.4l0.3-0.3c3.8-4,8.2-6.3,12.3-9.9l1.2-1l8.2-8.2c0.7-1.5,0.7-3.3,1-7.1c0.5,0.3,1,0.8,1.4,1.1
	c0.9,0.8,1.6,1.3,2.4,1.1l4.7-4.8c0.1-0.3,0.2-0.7,0.2-1c0.5-2.5,0.7-3.8,3.7-3.5h0.4l4.5-4.5l-0.7,4.8c2.3,0.1,4.5-0.2,6.2-1.8
	c2.5-2.2,4.2-3.7,8.2-4.1c4.7-0.3,8.5-0.8,11.4-5.4l2.6-0.7c3.8-1,3.1-0.7,5.4-4l5.5-7.9c2.7-4,7.5-8.8,7.9-11.9
	c1.2-10.1,5.3-9.6,6.2-15.8l0.9-6.4l-0.3,7.3c-0.5,10.1-4.4,7.9-4.9,15.8c-0.7,11.1-3,5.3-7.5,12.6l-5.2,8.4c-3,4.8-2.1,4-7.3,6
	c-10.4,4.2-14.5,4.3-24.4,9.9c-1.8,1-3.4,1.4-5.1,1.6l-7.7,56.9c-6.7,0.4-35.4-45.5-55.7,30.4c-6.2,23.2-17.7,38.4-14.6,1.8
	l8.9-40.3l-5.5,2.4C390.2,317.5,381.1,322.1,375.4,316.8z M218.2,178.2c-0.4-6.4-0.5-7.4-2.9-13.3c6.7,2.9,8.6,3.5,15.8,4.6
	c1.3,5.8,1.5,6.2,4.7,11.2C227.2,175.7,226.1,171.8,218.2,178.2z M219.6,182.9l2.2-2.1c5.5,2.7,9,4.2,13.7,7.3
	c5.2,3.4,0.7,8.2-2,12.4c0.8-3.1,3.5-8.2,0.8-10.4l-2-1.5c-3.6,4.5-7.6,0.8-10-3.3L219.6,182.9z M242.1,194c-1,0-1,1.4-0.5,2.2
	c0.7,1.1,1.3-0.5,1.1-1.5C242.5,194.5,242.4,194,242.1,194z M213.5,182.5c-0.2-0.2-1.2-1.2-1.2-0.4c0,0.1,1.9,3.3,2.1,3.6
	c1.1,1.2,1.2-0.1,0.5-1.1C214.1,183.4,214.6,183.4,213.5,182.5z M278.2,175c-16.4,6.6-21.3,7.4-28.6,23.9
	C260.8,186.7,264.8,183.8,278.2,175z M269.8,185.6c-10.7,6.9-13.2,8.9-17.3,21.1C257.1,196.2,266.9,190.5,269.8,185.6z M272.1,193.8
	c-10.9,6.4-13.7,10-20.8,26.5c9-13.2,12.5-18.8,21.4-24.1c11.7-7,16.1-7,26.4-6.8c10.9,0.3,15.8,0.7,25.4,4
	c6.3,2.1,10.8,9.3,12.1,15.5c2.1-10.7-2.2-13.7-11.4-18.7c-8.4-4.5-12-4.2-26.1-4C286.6,186.5,285.3,186.1,272.1,193.8z
	 M252.4,224.2l6.5-9.2c8.1-10,11.8-13.4,20.6-16.6c12.3-4.3,24.9-2.3,36.7,2.3c-12.6-2.4-24.2-5.5-36.4-0.3
	C267,205.8,264.4,210.4,252.4,224.2z M335,218.2c-3.2-8-3.6-10.7-9.9-17c-6.7-6.8-11.5-8.2-24.2-10c12.4,0.3,19,0.8,25.8,7.5
	C333.7,205.6,333.1,209.1,335,218.2z M297.4,208.7c-5.4,1.2-9.7,2.5-15.7,4.8c-12.6,4.8-18.3,6.7-29.3,20.8
	c12.5-11.8,17.6-14.1,29.8-19.4c12.1-5.2,13.7-4.3,24,3.5l-5.8-6.8c4.8-2.9,9-5.6,13.7-5.4c4.9,0.2,5.9,1.6,7.1,4.8
	c1.3,3.3,9.6,11.7,13.2,18.1c-2.5-12.6-4.1-9-8.8-18.5c-1.3-2.5-2.4-4.1-6.2-5.6c-3.5-1.3-6.3-2.1-10.6-0.2
	C305.2,206.7,302.4,207.5,297.4,208.7z M257.1,224.2c7.1-10,8.6-10.7,18.6-17.8C269.1,212.3,263.2,217.9,257.1,224.2z M266.6,218.1
	c10.7-11.8,16.3-12.8,31.2-17.5C285,206.3,277.6,209.1,266.6,218.1z M315,219.2c11.8,2.7,12.8,3.7,18.1,14.5
	C325.9,225.1,325.2,223.7,315,219.2z M256,246.9c10.4-10.3,14.6-14,25.4-16.5c9.6-2.2,19.4-1.4,28.8,0.9c14,3.4,21.7,6.5,29.5,18.5
	c-5.6-5.9-7.8-7-14.8-11.2c4.8,6.5,6.5,10,10,17.4c-6.3-9.7-12.5-20.8-25-22.9c-9.9-1.8-17.7-3.2-28.4-0.7
	C270.1,235,267.8,237.8,256,246.9z M259.9,252.2c13.3-13.6,18.3-16.4,37.7-15.9C278.5,239.2,275.8,240.8,259.9,252.2z M276,248.3
	c9.1-5.8,11.7-6.7,22-9.9C290.7,241.9,283.5,245.1,276,248.3z M299.1,241.4c20.1-3.7,25.3,1.3,33.7,18.6
	C320.7,244.1,318.9,243.8,299.1,241.4z M331.6,273.5c-4.8-7.6-4.4-9.7-12.8-13.3c-9.6-4.1-18.4-5.9-29.9-4.8
	c-9.8,0.9-15.4,1.2-24.1,8.7c-8.1,6.9-12.1,15.1-11.8,27.4c4-13.7,6-19.2,13.1-25c9.6-7.7,13.9-8.2,23-8.8c11.9-0.8,19.7,1,29.3,5.2
	C325.2,265.9,326.4,268.1,331.6,273.5z M333.1,283.6c-8.2-12.6-11.8-15.5-26.6-18.1C320.5,270.4,323.6,272.4,333.1,283.6z
	 M280.3,264.7c-9.3,2.2-9.3,2-17.2,7.5l8.2-4.1L280.3,264.7z M261.6,304.8c6.6-5.5,10.2-7.8,17.8-12l-8.7,7.5
	c9.2,0.5,13.3,0.2,22.1,3.3C280.2,303,274,302.2,261.6,304.8z M258.9,357.6c-0.4-6.4-0.8-12-1.1-17.4c8.5-5.7,17.2-6.3,26.5-5.8
	c16.3,0.9,27.5,1.5,40.8,10.2c-0.1,0.5-0.3,1.1-0.5,1.6c-0.5,2.2-0.9,4.4-1.2,6.6c-7.3-4.1-12.3-5.1-21-6.7
	c-13.1-2.5-25.1-3.2-40-1.3c-3.5,0.4-2.9,2.4,0,2.2c15.7-1,26.4-0.2,39.7,2.2c9.5,1.8,13,2.9,21.1,6.7c0.4,4.2,1.2,4.5-0.7,7.5
	l-2.7-1.9c-5.7-4.1-13.1-2-21.2-4.1C284.2,354.1,271.3,350,258.9,357.6z M260.2,379.5c0-1.1-0.1-2.2-0.1-3.4
	c6.7-1.5,13.2-2.5,20-3.7c-9.1,0-12.9-0.5-20.1,1.5c-0.2-4.4-0.5-8.9-0.9-13.4c-0.1-0.7-0.1-1.4-0.1-2.1c14.8-4,24-1.1,38.4,2.3
	c9.3,2.2,15.9,2.6,24.9,6.3l0.2,2.6c-1,1.2-1.1,3.1-1.5,5.7c-10-7.1-16.6-6.6-30.4-8.5c-1.8-0.2-2.4-0.5-4.2-0.4l-24.9,1.6
	c5.6,1.5,16.7,1.8,24.5,2.4c3.3,0.2,5.5,0.9,8.7,1.5c6.8,1.5,12.5,2.3,18.9,5.3l5.9,2.7c-0.3,1.1-0.1,1.4,0,2.9
	c-9.3-3.1-16.7-5.5-27.2-6.6C281.5,375.1,270.9,375.7,260.2,379.5z M275.3,394.4c7.1,0.4,13.5,0.7,20.5,0.5c6.4,0,11.2,2.6,17.3,4.8
	c-7.7-5.6-7.5-7.4-17-7.3C288.9,392.7,283.2,393.5,275.3,394.4z M303.1,429c-5.7-2.7-7.1-2.5-15.2-3.3c10.2-0.5,12.2-0.2,22.1,2.2
	C306.2,430.2,306.9,430.9,303.1,429z M263.5,428.9c13.1,4.6,17.6,4.9,31.5,4.7c7.9-0.1,2.9-4.2-0.4-4.5c-6.8-0.7-13.4-1.1-20.2-1.5
	c6.5,2.2,10.6,3.4,17.4,4.6C280.1,432.7,274.5,430.3,263.5,428.9z M264.4,434.8c17.2,6.7,23.9,4.8,41.7,2
	C290.7,437.2,279.7,437.6,264.4,434.8z M265.9,446c10.3,1.9,15.5-1.2,23.5-0.5c11.7,1,9.3,1.9,19.2-4.3c-9.8,2.9-9.8,3.5-19.9,2.2
	C280.8,442.3,274.4,445.3,265.9,446z M263.6,449.1c14.7,5.3,26.6,5.2,41.8,7.1C295.2,450,276,450.9,263.6,449.1z M265.8,455.2
	c9.2,3.5,8.9,3.3,18.8,3C278.4,459.6,269.7,462.1,265.8,455.2z M284.8,460.3c9.8,2.2,11.1,1.4,21,0
	C298.6,460.5,292.1,460.8,284.8,460.3z M276.3,471.2c16.7,2.7,15.5,2.5,31.9-2.1C296.3,470.8,288.3,471.2,276.3,471.2z M300,487.3
	h-15.2c-11.2,0-4.1-1.6,5.2-1.4c-7.5-1.5-13.4-2.3-20.5-5.3C276.3,494.3,287.3,490.4,300,487.3z M271.8,476.9
	c13.9,6.7,15.7,4.2,31.1,2.7C289.7,479.8,284.6,480.2,271.8,476.9z M313.9,427.7c-0.3,4.9-0.7,9.9-1.2,14.8
	c-1.3,11.8-3,22.4,0.3,34.3c0.9,3.3,3.4,2,1.9-2.3c-3.1-8.6,6.4,1.6,0.7-6.4c-7.4-10.2,7.8,2.5,0.7-4.9c-9.3-9.7,6,2.5,0.2-5.6
	c-5.2-7.1,6.5-3.2,1.1-8.1c-5.7-5.3,7.1,0.3,0.8-5.5c-5.8-5.3,4.5-2.3,6.8-11.2l0.4-1.9c2-7.5,0-6-5.5-11.5l-4.8-4.8
	c-0.5,3.5-0.9,6.7-1.2,10.1c-17-5.9-26.4-4.8-44.5-4.2c-4.5,0.2-4.8,2.7,0,2.3c15-1.4,25.3-0.5,39.5,2.7c2,0.4,3.3,0.3,5.1,0
	C314,426.2,313.9,427,313.9,427.7z M196.1,120.2c2.4-6.4,4-9.5,8.1-15.8c-7.9,6.4-7.6,5.6-10.2,13.4c-1.3-1.4-2.6-2.7-4.2-4
	c-6.7-5.5-12.5-7-19.7-14.6c1.9,4.8,6.3,10.3,8.9,14.2c1.1,1.6,1.9,3,2,3.6l-6.3,4.1c5.2-0.8,8.7-2.6,4.3,1.8
	c10.9-3,12.1-2,16.7,4.3c4.8,6.5,5.2,7.9,7.8,15.5C203.8,134.3,201,126.6,196.1,120.2z M201,118.8l6.5-10.8l9.9-15.3
	C207.2,104.1,206.7,104.7,201,118.8z M93.2,219c10.6-5.5,15.1-8.7,24.3-16.1C108.1,208.5,101.6,211.9,93.2,219z M110.1,219.1
	c8.9-11,16.1-19.1,26.2-29C127.6,200.5,119.7,209.6,110.1,219.1z M83,210.8l11.5-25.6C91.1,199.7,92.6,199.4,83,210.8z M81.4,178
	l15.5-11C91.1,172.5,89.2,176.4,81.4,178z M98.2,178.4l16.9-16.1C109.8,169.8,106.5,179.6,98.2,178.4z M157.1,257.8l22.8-28
	c-1.9,15.4-17.4,15.7-4.7,18.5C167.3,251.6,164.1,253.1,157.1,257.8z M217.7,221.8l-0.7,7.4l-11.7,16.7l14.3-12.5l1.2-4.9l5.6,12.1
	l-0.2,3.4l-9.5,17.2l9.6-12.9l-0.1,3.6c-7,12-7.9,12.1-10,25.8c3-10.6,3.8-12.2,9.8-21.4c-0.4,11.2-0.3,20.1,4.1,30.5l1.8-6.3
	c-3.7-13.1-2.3-18.3,2.5-30.6l6.4-21l2.2-13.7l-1.1-13.5l-1.8,10.3c-4.2-1.1-11.2-11.4-14.1-15l3.8,8.5c-4.8-3.3-5.7-5.1-9.2-9.7
	c4.4,9.3,5.5,11.5,7.1,21.8c-3.3-6.4-6.7-12.3-10.3-18.6l7.9,20.6l1.4,11.5l-6.3-16.1l-6.5-20.9l-4.9-11.3c-1.4-3.3-1.8-3.7-4-6.2
	c-1.1-11.1,1.4-20.1,4.6-30.2c3.1-9.9,0.7-19.1-0.7-29.5c-0.2,9.8,0.8,20.7-2.3,30l-2.5,7.6l-1.9-8.8l0.3,10.6l-0.8,8.7
	c-0.5,5.4,0.1,12.8,2.5,17.5l1.9,3.7l0.5,3l4.1,13.5l-2.2,15.2l4.6-6.9l2.2,7.1L217.7,221.8z M418.1,249.1
	c10.7,8.8,11.4,10.6,18.8,22.2C430.2,263.9,424.3,257.1,418.1,249.1z M406.7,248.9c13.9,12.5,12.2,10.4,18.1,28.2
	C418.3,263.8,416.4,260.1,406.7,248.9z M419.4,226.9l26.3,32c-5.3-1.9-4.3-1.2-7.4-5.8c-1-1.4-2-2.9-2.9-4.3
	c-4.8-3.6-5.3-3.5-8.2-8.8L419.4,226.9z M487.6,242.3l-16.4-8.6l-14.3-7.3C470.1,235.7,472,237.8,487.6,242.3z M470.8,246.6
	c-8.9-7.9-15.7-15.5-23.9-24.4c8.1,11.3,11.8,16.5,22.1,25.8C471.7,250.5,476.3,251.6,470.8,246.6z M517.7,167.3
	c-10-7.8-8.1-7.6-20.8-9.3c9.9,3.8,11.2,4.2,19.4,10.9C518.7,170.8,521.1,169.8,517.7,167.3z M514.3,159.7l7.8,5.4l-7.8-4.1
	C512,159.8,509.8,156.6,514.3,159.7z M497,168.1c4.3,2.5,8.6,5.7,13.4,6.9c8.2,2.1,6.8,1.6,12.6,7.8c-5.8-3.8-6.6-5.2-13.5-6.6
	C501.9,174.8,502.5,173.7,497,168.1z M479.3,174.8c7.9,3.5,14.5,5.9,22.8,8.7c7.8,2.6,12,5.4,19.1,9.5l0.1,6.9
	c-7.6-7.1-9.7-10.9-19.6-14.1C490.2,182.3,488.9,182.2,479.3,174.8z M478.5,186.5c7.3,5.2,11,8.5,17.3,14.8
	C487.9,195.8,483.9,194.4,478.5,186.5z M499.2,200.5c6,4.8,10.4,8.7,15.6,13.9c2.9,2.9,5.4,10.2-0.4,3.3
	C509.3,211.8,504.5,206.3,499.2,200.5z M362.1,266.7l6.5,13.7C366.9,272.2,367.6,273.1,362.1,266.7z M141,239.5
	c10.8-10.2,12-11.3,18.9-24.4C154.5,219.5,146.3,232.9,141,239.5z M370.2,333.5c9.7,5.2,19.4,4.7,25.1-9.5
	c-6.5,11.8-17.3,9.1-27.5,1.6L370.2,333.5z M367.9,390.2c0.2,10-0.2,20.1-0.8,30c1.1-10.2,2-17.8,2.3-25.5L367.9,390.2z
	 M362.4,374.3c-9.9-2.2-18.9,0.8-27.3,7.4c10-3.7,18.9-8.5,28.3-4.7L362.4,374.3z M362.9,345.5c0.2,2.3,0.4,4.6,0.7,6.9l3.1-2.7
	c-0.1-1.2-0.2-2.5-0.3-3.7L362.9,345.5z M115.3,257.9c-3.3,25.6,9.5,27.6,15.8,59.1l4.1,20.2c36.3-3.2,18.1,32.3,37.3,17.2
	l-5.5-39.8l7.1,24.1l6.3,20.5l-8-29.8l-3.5-16.7l-2.1-10.6c3.3,2.5,5.4,4.5,7.3,5.8c5.1,15.9,9,22.3,19.7,35.3
	c-3.8-14.2-4.9-17.5-4.6-30.4l1.8,9.7l0.4-11.2l1.6,0.7c4,3.1,7.8,5.2,11.3,6.6l4.1,22.4c4.3-14.6,1.9-13.2,13.7-17.5l0.1-0.7
	l-9.7,1.5l-0.5-3.8c3.4,0.3,7.3-0.1,10.3-1c0.5-0.1,0.3,1.9,0.4,3.4l2.3-9.1c-0.2,0.1-0.3,0.1-0.5,0.2c-12.3,4.6-29.9-1.5-40.4-9.7
	c1.1,1.1,2.2,2.2,3.2,3.2c-11.4,1.4-14.4-2.2-19.8-12.2c-8.1,0-20.2-4.1-26.6-11.1l-1.4-1.6c-1.8-2.3-2.9-4.9-3-7.8l4.1-8.7
	c-10.6,7.6-10.6,8.8-3.6-2.7c-11.5,8.2-9,6.8-2.9-4.4c-12,12.3-5.4,6.6-15.5-2.7c-3.7-3.5,2.5-15.4,4-19.9c-3.8,5.5-6.3,8.9-9.2,15
	c-11.9-8.6-6.2-12.6-1.3-25.4c-4.9,4.9-8.6,8.2-12.5,14.2c-7-9.8-6-8.5-16.9-13.7l5.5-9.3l-7.6,6.7c-8.8-15.7-10.6-12.4-1.9-27.3
	c-9.8,5.9-8.4,5.9-3.7-4.2c-6.2,3.7-5.5,4.3-3.5-2.6l6.9-13.4c-18,18-12.4-2-5.1-14.5l4.9-7.9l-5.6,3.4c-4.5,2.7-4.2,1.4-1.2-2.6
	l4.9-6.8l-5.3,1.5c-4.9,1.5-5.2,1-0.3-2.3l7.5-5.1c-0.2,0-0.3,0-0.5,0l-7.1,2.7c-6,2.4-6.5,2.1-1.4-3.2l7.4-7.7
	c5.4-5.6,11.5-8.6,16.6-13.9l11.1-11.5c6.2-6.4,13.5-11.5,20-17.6l4.7-4.3c4.5-4.1,4.9-4,10.7-6.2l8-3.1c6.9-2.6,11-4,18.3-5.5
	c6-1.2,8.2-1.5,14.5-1.4l26.5,0.5c11.4,0.2,22.8,0.9,34.1,1.6c4.4,0.3,5.4,0.7,6.7,3.2c-3.1,1-6.3,2.1-9.5,3.4
	c-9,3.8-16.4,9.6-23.3,21c10.3-11.9,14.2-14.7,24.2-19.1c15.6-6.9,30.6-8,47-8.9c19.5-1.1,38.4,5.7,56.5,12.9
	c14.1,5.6,14.4,6.2,20.9,15.8c-5.2-11.2-8-13.4-20.2-18.5c-2.2-0.9-4.3-1.8-6.5-2.6c2.4-3.1,3.2-3.5,6.6-4.1l12.8-1.8
	c12.8-1.8,33.1-3.5,45.9-2l12.6,1.5c10.8,1.3,29,6.5,39,11.4c13.1,6.4,24.5,12.8,34.8,23.5l18.3,19.2c4.9,5.2,23.4,22.2,26,28.9
	c0.7,1.8,0.2,3.5-0.4,5.2c-5.5-5.7-10.2-9.7-16.5-15c5.7,5.9,10.9,11.2,16.1,17.7c-0.2,2.6-0.3,5.2-0.3,7.8c-0.1,3.6-1,7.1-2,10.6
	c-1.5,5.6-2.5,10.6-3.6,16.3c2.1-5.4,4.1-9.8,5.2-15.5c0.8-3.6,1.3-7.1,1.6-11.1c0.2-2.2,0.4-4.3,1-6.7l0.5-2.5
	c0.5-2.4,1.4-4.7,0.3-7.1c-3-6.8-21.3-25.4-26.5-30.7l-18.3-18.8c-8.6-8.9-23.8-18-35-23.9c-8.2-4.2-30.4-9.9-39.7-11l-12.5-1.4
	c-12.5-1.4-33.3,0.2-46.5,2l-12.8,1.6c-4.1,0.5-5.1,0.8-8.4,4.8c-15.6-5.9-30.7-9.7-48.8-8.6c-12.5,0.7-24.1,1.4-36,4.7
	c-2.1-3.4-3-4-8.6-4.2c-11.5-0.4-23.1-0.9-34.6-1.1L180.4,69c-5.4-0.1-9.1,0.5-14.5,1.3c-8.7,1.3-13.7,1.2-21.7,5.2l-12.8,6.3
	c-3.7,1.9-5.8,5.4-9.5,8.2l-18.5,15.1c-5.6,4.6-9.3,10.1-15.2,14.2l-10,7c-5.6,4-6.9,7.3-11.3,11.9l-3.2,3.3
	c-3.5,3.6-5.7,8.8-1.5,13c-1.1,4.2-1.2,6.3,3.1,8.7c-2.4,5.7-4,12.8-0.3,18.3c-0.7,6.3-1.2,5.2,2,10.7c-0.1,5.6-1.2,5.6,2.5,9.7
	c-0.1,8.2,5.6,15.4,9.5,22.7c3.6,3.2,7.5,5.4,10.2,9.1c7,1.5,5.2,3.6,10.1,8.9l4.4,0.3c1.2,5.9,1.5,4.6,6.3,8
	C110.7,255.4,111.9,253.5,115.3,257.9z M234,354.1c-6.5,25.2-15.1,49.9-28.2,68.6c0.1,6.3,0.1,12,0.3,16.5c-0.7-4.7-1.3-9.5-2-14.2
	c-5.5,7.4-11.7,13.7-18.8,18.6c-28.9,19.9-34,8.4-22.2-4.3c9.3-10,25-30.4,35.7-47.5c-1.4-9.3-2.6-18.8-3.5-28.5
	c3.8,5.1,6.2,12.6,7.7,21.2l-2.7,5.6c-7.8,19.6-26.2,43.6-34.3,52c-6.4,6.6-1.5,11.2,16.5-1.2c32.8-22.7,48.1-80.6,58.1-124.7h-0.1
	l6.7-30.6l0,0c0.8-2.7,0-4.8-2.2-8.4c-3.8-5.9-9.1-11.5-11.7-1.1l-0.7,2.7c-2.1-5.4,1.2-13.5,6.3-11.3c3.3,1.4,5.6,4.2,8.8,8.6
	c3.2,4.4,2.5,8.1,0.9,12.2l1.3,10.9l4.4-5.5l-2.4,13.1c3.6,12,4.9,21.3,5.7,31.3c8-6.6,17.3-7.7,27.1-7.5
	c13.3,0.4,30.5,1.1,41.4,9.6c0.4-3.5,0-5.5,1.6-10.1c-5.6-12-16.2-15.2-28.8-15.9c-15.1-0.9-30.1-1.3-43.1,6.5
	c9.6-12.2,28.2-10.1,43.3-9.8c3.8,0.1,3.7-0.8,7.5,0.1c13.7,3.5,17,3.5,22.3,15.8c0.2-0.5,0.5-1.2,0.9-1.9l1.8-2.4
	c-0.7-8.5-0.2-18.5-5.9-25.4c-2.6-3.2-5.6-5.9-9.8-7.1c-9.1-2.7-19.1-4.8-28.7-3.8c-9,0.9-14.8,1.5-23.5,7.7
	c-4.9,3.5-6.6,7.6-9.1,18.5c-1.9-9.9,2-14.5,7.8-20.6c5.8-6,15.7-7.6,24.7-8.4c11.9-1.1,20.7-0.1,29.7,4.2c6,3,8.4,4,10.6,8
	c2.3,4.2,3.7,7.7,5.1,12.2c2.5-3.5,3.5-4.7,5.8-6c-0.8-0.8-1.4-1.5-1.6-1.9l5.6-1c4.8-13.9,6.8-9.9,12.2-18.7
	c1.8-2.9,2.1-6,0.5-11.5c-1.3-3.5-3-9-4.3-14.7l0,0l0,0c-1.2-5.3-2.2-10.7-2.3-15.2l0.7,2.6c3.4-9.1,6.4-16.9,8.9-26.5
	c9.6-14.7,12.3-21.6,14.6-38.6c-2.2,4.5-4.5,8.9-6.8,13.3c1.6-10.2-3.8-8.2-9.5-4.3c-12.8,9.2-10.6,17-9.7,31.8
	c-3.6-9.7-0.8-18.3-7.5-18.3c-9.1-16.8-14.7-17.2-32.6-23.1c18.9,1.6,22.9,6.8,34.5,19.2c1.1-2,2-3.7,3.1-5.3l-1.9-1.8
	c-6.8-6.3-12.1-12.6-20.7-15.9c-12-4.7-24.4-5.9-37.7-4.2c-7.5,1-15.2,3.4-26.2,8c10.4-6,17.7-8.5,25.6-9.5
	c18-2.3,28.5-1.8,39.2,3.8c8.6,4.5,15.5,11.4,23.8,16.8c0.7-0.8,1.3-1.5,2-2.3c0.4-0.4,1-1,1.4-1.4l-3.8-6L335.7,167l11.3,9.1
	l4.4,5.6c1.5-1.3,3-2.2,4.5-3.1c1.1-4.3,2.7-7.3,6.4-11.8c-2.1,5.7-1.6,9.1,5.1,8c0.7-0.1,1.3-0.3,2.1-0.5
	c5.7-10.8,0.9-19.8-5.9-28.4c-5.6-7-11.1-13-14.2-27.3c16.8,25.4,15.5,30.2,20.3,0c5.3,5.9,4.8,6.9,5.5,13.4l3-10.4l0.8,9.6
	c9-9.5,13-15.1,27.6-19.2l-2,3.8l-0.7,6.5c-12.1,3.2-17.4,8.1-21.9,15.7c-1.1,1.9-2.2,3.8-3.3,6.2c-3.7,7.4-3.2,10.4-2.1,16.3
	c1.2,6.3,0.7,9.5-0.4,14.1c-1.4,6-1.8,11.7-2,17.6c-0.2,5.4-1.6,10-3.7,14.5c-0.5,12.3,0,19.8,2.4,34.9c-3.6-12.1-5.4-17.2-6-27.4
	c-3.8,8.1-4.1,12.6-4.7,20.7c-0.5,6.6-0.5,6.6-5.1,5.9c-6-1-0.4,12,0,23.8l-3.7-6c0.9,3,2,6.2,3.4,10.2c1.6,4.7,2.3,8.9-1.2,14.1
	l8.4,31l-10.9-29.1c-2.9,2.9-7.4,8-8.2,12.9l0,0c-1,4.3-0.8,8.5,0.1,12.2l2.3,13.5l-0.7,0.5c0.3,0.1,0.5,0.2,0.9,0.3l0.8,3.6
	c-4.4-0.3-7,2.4-8.5,6.3c-2.3,6.2,3.5,1.9,9.8,3.7l1.1,0.3l0.5,2.5c-7.3,0.4-12.2,1.9-20,3.5l-2.6,8.5c0.1,14,1,13-4.8,25
	c-0.8,2.5-0.2,4.8-1,7.3c-1.1,3.6-3.1,14.5-3.7,17.6l2.6,12.2l-5.1-9l-2.3,12.4c-0.4-13.1,2-12.4,3.5-21.2l0,0l0,0
	c-2.7-4.2-3.2-3.7-7.7-6.2c-10.7-5.6-14.7-7.6-29.9-8.5c13.9-2.4,20.9,0,30.4,5.6c2.5,1.5,5.3,3.2,8.4,5.2c0-1.6,0.5-4.6,1-6.8
	c-9.6-2.7-17.6-7.6-27.3-7.8c-11.3-0.3-20.7,0-32,3.5c0.1,1.9,0.1,3.8,0.2,5.7c4.1,1.5,4.7,1.9,10.6,1.3c11.5-1,15.5-0.8,27.1,0.9
	c-9.2,0.1-17.9,0.2-27.2,1c-5.9,0.4-6.4,0.7-10.3-0.8c0,1.3,0,2.6,0.1,4c0,1.3,0,2.6,0.1,4c10.6-0.1,20.3,0.3,31,0.9
	c-11.1,0.3-20.3,1.5-30.9-0.3l0.1,4.9c9.8-1.5,15.1-1.9,25.7-1.5c10.6,0.7,13.2-1.2,21.4,5.6c-7.1-1.6-12-3-19.5-3.3
	c-10.4-0.3-16.5-0.8-27.7,2.7v3.7c11.4,0.7,22.8,0.9,34.2,1c8.9,0.1,7.6-0.9,14.8,4.2c-4.9-0.7-9.7-1-14.4-1.3
	c-11.7-0.7-22.9-0.5-34.6-2.6c0.1,10.6,0.2,21,0.7,31.5c0.3,8.5,0.5,17.4,1.4,25.6c1.4,12.2,3.1,18.4,9.6,30.7
	c6.6,12.4,23.9,13.2,32.9,3.7c12.8-13.4,12.2-23,16.4-40.9c-0.4,15.4-0.9,30.2-0.5,45.5l-4.7-4.3c-1.3,9.3-4.5,64.6-18.9,55.1
	l-25.5-26.4c-7.9-5.2-15.1-32.8-16.2-41.7c-3.1-24-2.9-45.1-1.3-70.7c1.6-27.9,0.1-47.4-2.9-72.5l-4.6-14.7
	c-7.3,10.8-8.8,64.1-11.5,82.8C235.9,391.1,235.7,373.4,234,354.1z M467.6,386.1C508.8,263.9,484.9,281.6,467.6,386.1z"/>
	<path class="st6" d="M228.7,75.8c-51.9-4-76.7-0.7-105.4,23.4c32.3-15.9,45.4-16.5,69.5-6.6L228.7,75.8z M234,103
	c37.3-25.6,55.3-24.7,83.5-14c13.6,5.3,30.7,8.8,38.3,21.8l4.7,8c-5.5-5.2-26.3-27.4-22.1-7.4c3.2,15.4,8.8,22.8,17.4,39.4
	c-37.3-17.9-47.4-16.1-88.8-16.1c19.8-20.6,23.5-39.4-11.5-32L234,103z M244.1,233.7l2.5,33.7C233.5,255.4,239.6,252.3,244.1,233.7z
	 M340.4,282.1c17.8-11.3,9.7-15.5,3.6-37.9L340.4,282.1z M270.8,279.1c23.2-6.4,43-5.1,59.4,12.1
	C322.3,270.8,290.7,261.7,270.8,279.1z M414,427.7C364.6,406,351.2,316,346.8,302.2c-1.3-4.3,3.7-14.8,7-6.6
	C360.1,311.7,377.7,399.7,414,427.7z M172.7,441.4c49.4-28.5,67.4-137.6,71.9-153.3c1.3-4.8-3.7-15.9-7-6.6
	C231.2,300,208.9,407.3,172.7,441.4z M507.9,137.8c-36.5-26-81.2-59.7-127.6-35l-15.8-20.3C422.8,71.3,470.7,92.9,507.9,137.8z
	 M368.1,56.3h146.3V94C457.1,66.9,429,65.5,368.1,56.3z"/>
</svg>
