<?xml version="1.0" encoding="utf-8"?>
<!-- Generator: Adobe Illustrator 23.1.0, SVG Export Plug-In . SVG Version: 6.00 Build 0)  -->
<svg version="1.1" id="Слой_1" xmlns="http://www.w3.org/2000/svg" xmlns:xlink="http://www.w3.org/1999/xlink" x="0px" y="0px"
	 viewBox="0 0 600 600" style="enable-background:new 0 0 600 600;" xml:space="preserve">
<style type="text/css">
	.st0{fill-rule:evenodd;clip-rule:evenodd;fill:#F7F9F7;}
	.st1{fill-rule:evenodd;clip-rule:evenodd;fill:#AAD576;}
	.st2{fill-rule:evenodd;clip-rule:evenodd;fill:#9CCB8F;}
	.st3{fill-rule:evenodd;clip-rule:evenodd;fill:#81A576;}
	.st4{fill-rule:evenodd;clip-rule:evenodd;fill:#3A3A39;}
	.st5{fill-rule:evenodd;clip-rule:evenodd;fill:#575656;}
	.st6{fill-rule:evenodd;clip-rule:evenodd;}
	.st7{fill-rule:evenodd;clip-rule:evenodd;fill:#FFF7B2;}
</style>
<path class="st0" d="M47.1,158.9c-2.4,66.2-6.7,173.9,0,237.4C62.5,544.1,246.5,486,300,578.5c53.5-92.5,237.5-34.4,252.9-182.2
	c6.7-63.4,2.4-171.2,0-237.4c0-58.9,0-78.1,0-136.9H300H47.1C47.1,80.8,47.1,100,47.1,158.9"/>
<path class="st1" d="M527.5,169.2c2.2,60.5,6,159.1,0,217.1C513.4,521.6,348.9,468.4,300,553V47.4h227.5
	C527.5,101.2,527.5,115.4,527.5,169.2"/>
<path class="st2" d="M72.6,169.2c-2.2,60.5-6,159.1,0,217.1C86.7,521.6,251.2,468.4,300.1,553V47.4H72.6
	C72.6,101.2,72.6,115.4,72.6,169.2"/>
<path class="st3" d="M357.7,492.6c140.1-45,156.9-41.7,152.6-197.1C486.3,431,478.3,425.8,357.7,492.6"/>
<path class="st3" d="M85.9,204.3l16.4,124.9l0.5-103L85.9,204.3z M192.3,54.9H80.4v52.9C125.6,63.6,131,64.1,192.3,54.9z M228,492.6
	C104.5,450.7,89.6,453.7,93.5,308.8C114.6,435.1,121.6,430.3,228,492.6z"/>
<path class="st2" d="M163.8,442c0.1,1.4,0.3,2.8,0.5,4.2L163.8,442z M145.3,359.7c16.5,22.4,15.4,54.6,18.5,82.2l16.1-18.4
	c-6.3-16.1-8.1-32.6,0.4-42.2l8.9,28.5l13.8-23.6c-4.3-7.2-9.2-13.9-17.3-20.8l-13.9-51.1l-2.7-20.5l-11.6-3.1l-16.9-13.8l-5.8-8.5
	l-24-25.3l-10.7-11.7l-15.2-10.3l-12-20.4L74,198l-3.6-9.5L68.6,174l4.4-9.7l-8.2-19.6l13.5-15.1l7.4-4.9l15-17.3l23-16.9l9.5-11.5
	L155.6,69l23-3.3l70.6,3l2.8,4.5l4.7-2.4l27.5-2.3l23.1-1.1l29.7,9.8l4.6-5.3l26.6-3.7l36-1.2L452,77l32.6,20.2l28.1,27.9l22.7,27.1
	l-1.3,13l-8.1,41.7l-4.3,18.2l-13.8,19l-12.5,4.6l-27.7,10.9l-39.6,35.6l-21.5,11.2l-5.8,40.3c-20,18.5-20.9,46.5-27.6,73.9
	c-7.1-53.4-44.1,49.4-61.3,80.5l-31.2,6.1l-16.1-30.5l-4.3-33.6l-7.7-43.9c-26.4-8.6-25.9-14.9-35.3,3.4v0.1l-0.1,0.1
	c-0.8,1.5-1.6,3.3-2.6,5.1l-0.7-1.1l-18.5,23.3l10.1,32.2c-6.3-5.7-13.1-14.4-18.8-24.3l-22.7,7.9
	C145.5,414.1,149,396.7,145.3,359.7z"/>
<path class="st1" d="M223.4,385.2c2.1,10.6,4.3,22.9,7.3,38.2c27.8-17,20.4-8.9,29.7,26.5l2.8-67.3l-12.5-70.9l-4.5-7L234.3,352
	L223.4,385.2z M159.2,113.4c-60.5,33.8-19.5,32.4-45.1,76.9c-16,27.8,49.1,65.8,84.3,85.6c12.4,7,10.9,16.2-7.7,26.9
	c12,20.1,19,34.5,23.9,48.3l10.6-32.3l1.9-5.8l-2.1,1.9l-17-2l-14.7-9c21.8-2.7,35-5.1,39.5-21.3c0.1-0.5,0.5-2.1,0.8-2.6l-2-6.7
	l-0.1-11.4l5.3-34.8h-7l-21.1-51l-3.8-10.6l8.4-23.4c-4.6-23.7-9.8-33.6,7-52.4C195,109.1,182.1,100.7,159.2,113.4z M355.9,342.9
	c-4.5-4.4-10.2-3.5-17.2,6.6l-6,58.2c8.8,30.1,9.5,59.3-12.5,83c2.1-14.2,4-28.6,6.1-42.8c4.3-30.3,6.7-24.7-7.3-51.8l6.7-33.1l8-35
	l-0.4-14.8l8.9-13.4l3.8-0.9c0,1.4,0.1,3,0.4,4.3L355.9,342.9z M372.3,392.2c-0.3,1.2-0.7,2.5-1.1,3.7c-0.4-3.5-0.9-7.2-1.5-11.1
	L372.3,392.2z M395.2,323.6c-6,12.1-10.2,23.7-13.7,35.5l-13.9-38.9l10.9,8.6h10.7L395.2,323.6z M399.8,113.8
	c37.3,3.7,51.5,20.8,56.1,45.4c9.1,48-6.1,27.5,32.5,68.5c-60.2,22.7-38,35.3-84.8,58.1c-11.4,5.6-12.4,6.3-21.9,15
	c-14.7-9.2-14.8-8-24.3-22.5l2.5-8.2l-8.3-26l14-31l10.8-33.1l1-33.2l3.3-18.9L399.8,113.8z"/>
<path class="st4" d="M186.9,508.1c-76.5-21.9-125.1-37.4-129.8-131C72.3,465,121.4,478.1,186.9,508.1"/>
<polygon class="st5" points="296.4,33.9 541.9,32.8 543.4,143.3 535.7,38.9 "/>
<path class="st6" d="M342.6,296.4c11.4,45.1,21.9,113.8,62.8,134.5c28.8,14.4,33.8,3.1,22.1-6.9c-10.1-8.5-27.1-27-37.8-42
	c7.2,17.4,26.5,38.1,34.9,45.1c6.3,5.3,1.5,10.2-16.4,1.1c-40.5-20.4-54.1-95.1-63.9-133.3L342.6,296.4z"/>
<path class="st6" d="M352.1,193.6c3.3-7.3,5.3-8,13.6-11.3c-1.4,4.8-4.4,9.8-9.7,10.7c-1.5,0.2-2.1,0.9-2.2,2.2
	c-0.4,3.7,0.5,3.8,2.8,6.6C351.8,201.4,350.1,198,352.1,193.6 M351.3,204.5c8.9-0.4,11.2-4.9,15-13.5c-2.5,12.6-8.3,14-10.5,20.4
	c-2.4,7-4.7,14-6.9,21.1c-2-5-2.1-5.9-2-10.3c0.2-8.6,5-5.4,4.6-13.4L351.3,204.5z M377.4,312.5l2.4-2.1c0.4,0.2,1,0.4,1.4,0.7
	c5.9,2.4,8.2-0.9,13.1-5.9c2.1,3.1,1.3,3.6,3.8,2.3c2.6-1.4,4.8-2.5,6.9-3.4l17.6-8.9c0.5-1,1.2-2.4,2.1-4.3c1.4,1.3,2.4,2,3.3,2.2
	h0.1l5.5-4.4l0.3-0.3c3.8-3.9,8.2-6.2,12.3-9.8l1.2-1l8.2-8.2c0.7-1.5,0.7-3.3,1-7.1c0.5,0.3,1,0.8,1.4,1.1c0.9,0.8,1.6,1.3,2.4,1.1
	l4.7-4.8c0.1-0.3,0.2-0.7,0.2-1c0.5-2.5,0.7-3.8,3.7-3.5h0.4l4.5-4.5l-0.7,4.8c2.3,0.1,4.5-0.2,6.1-1.8c2.5-2.2,4.2-3.7,8.2-4
	c4.7-0.3,8.4-0.8,11.4-5.4l2.6-0.7c3.8-1,3.1-0.7,5.4-3.9l5.5-7.9c2.7-3.9,7.4-8.8,7.9-11.8c1.2-10.1,5.3-9.5,6.1-15.8l0.9-6.3
	l-0.3,7.2c-0.5,10.1-4.4,7.9-4.9,15.8c-0.7,11.1-3,5.3-7.4,12.6l-5.1,8.3c-3,4.8-2.1,3.9-7.2,6c-10.4,4.2-14.4,4.3-24.3,9.8
	c-1.8,1-3.4,1.4-5,1.6l-7.7,56.6c-6.7,0.4-35.2-45.3-55.4,30.2c-6.1,23.1-17.6,38.2-14.6,1.8l8.9-40.1l-5.5,2.4
	C392.1,313.1,383.1,317.7,377.4,312.5z M221,174.6c-0.4-6.3-0.5-7.3-2.8-13.2c6.7,2.8,8.5,3.5,15.8,4.6c1.3,5.8,1.5,6.1,4.7,11.2
	C229.9,172,228.8,168.2,221,174.6z M222.4,179.3l2.2-2.1c5.5,2.7,9,4.2,13.7,7.2c5.1,3.4,0.7,8.2-2,12.4c0.8-3.1,3.5-8.2,0.8-10.4
	l-2-1.5c-3.6,4.5-7.6,0.8-10-3.3L222.4,179.3z M244.7,190.3c-1,0-1,1.4-0.5,2.2c0.7,1.1,1.3-0.5,1.1-1.5
	C245.2,190.8,245,190.3,244.7,190.3z M216.3,178.8c-0.2-0.2-1.2-1.2-1.2-0.4c0,0.1,1.9,3.3,2.1,3.6c1.1,1.2,1.2-0.1,0.5-1.1
	C216.9,179.7,217.4,179.7,216.3,178.8z M280.7,171.4c-16.3,6.6-21.2,7.3-28.5,23.7C263.3,183,267.4,180.1,280.7,171.4z M272.3,181.9
	c-10.6,6.9-13.1,8.9-17.2,21C259.7,192.5,269.5,186.8,272.3,181.9z M274.6,190.1c-10.8,6.3-13.7,10-20.7,26.4
	c9-13.1,12.5-18.7,21.3-24c11.6-7,16-7,26.3-6.8c10.8,0.3,15.8,0.7,25.3,3.9c6.2,2.1,10.7,9.3,12,15.4c2.1-10.6-2.2-13.7-11.4-18.6
	c-8.3-4.5-11.9-4.2-25.9-3.9C289,182.8,287.7,182.4,274.6,190.1z M255,220.3l6.5-9.2c8.1-10,11.7-13.4,20.5-16.5
	c12.3-4.3,24.7-2.3,36.6,2.3c-12.6-2.4-24.1-5.5-36.2-0.3C269.6,202,266.9,206.6,255,220.3z M337.2,214.4c-3.2-8-3.6-10.6-9.8-17
	c-6.7-6.8-11.5-8.2-24.1-10c12.4,0.3,18.9,0.8,25.7,7.4C335.9,201.8,335.3,205.3,337.2,214.4z M299.8,204.9
	c-5.4,1.2-9.6,2.5-15.7,4.8c-12.6,4.8-18.2,6.7-29.1,20.7c12.5-11.7,17.5-14,29.7-19.3c12-5.1,13.7-4.3,23.9,3.5l-5.8-6.8
	c4.8-2.8,9-5.6,13.7-5.4c4.9,0.2,5.9,1.6,7.1,4.8c1.3,3.3,9.5,11.6,13.1,18.1c-2.5-12.6-4-9-8.8-18.4c-1.3-2.5-2.4-4-6.1-5.6
	c-3.5-1.3-6.2-2.1-10.5-0.2C307.5,202.9,304.8,203.7,299.8,204.9z M259.7,220.3c7.1-10,8.5-10.6,18.5-17.7
	C271.6,208.5,265.7,214.1,259.7,220.3z M269.1,214.3c10.6-11.7,16.2-12.7,31.1-17.4C287.4,202.5,280.1,205.3,269.1,214.3z
	 M317.3,215.4c11.7,2.7,12.7,3.7,18.1,14.4C328.1,221.2,327.5,219.9,317.3,215.4z M258.6,243c10.4-10.3,14.6-13.9,25.3-16.4
	c9.5-2.2,19.3-1.4,28.7,0.9c13.9,3.4,21.6,6.5,29.3,18.4c-5.6-5.9-7.8-7-14.8-11.2c4.8,6.5,6.5,10,10,17.3
	c-6.2-9.6-12.5-20.7-24.8-22.8c-9.8-1.8-17.6-3.2-28.2-0.7C272.6,231,270.3,233.9,258.6,243z M262.4,248.2
	c13.2-13.6,18.2-16.3,37.5-15.9C280.9,235.3,278.3,236.8,262.4,248.2z M278.5,244.3c9.1-5.8,11.6-6.7,21.9-9.8
	C293.1,237.9,286,241.1,278.5,244.3z M301.5,237.5c20-3.7,25.2,1.3,33.5,18.5C323,240.1,321.2,239.8,301.5,237.5z M333.8,269.3
	c-4.8-7.6-4.4-9.6-12.7-13.2c-9.5-4-18.3-5.9-29.8-4.8c-9.7,0.9-15.3,1.2-24,8.6c-8.1,6.9-12,15-11.7,27.3c3.9-13.7,6-19.2,13-24.8
	c9.5-7.7,13.8-8.2,22.9-8.8c11.8-0.8,19.6,1,29.1,5.1C327.5,261.8,328.7,264,333.8,269.3z M335.3,279.4
	c-8.2-12.6-11.7-15.4-26.5-18.1C322.7,266.3,325.8,268.2,335.3,279.4z M282.8,260.6c-9.3,2.2-9.3,2-17.1,7.4l8.2-4L282.8,260.6z
	 M264.2,300.5c6.6-5.5,10.2-7.8,17.7-11.9l-8.6,7.4c9.2,0.5,13.2,0.2,22,3.3C282.7,298.8,276.5,297.9,264.2,300.5z M261.5,353.1
	c-0.4-6.3-0.8-11.9-1.1-17.3c8.4-5.7,17.1-6.2,26.4-5.8c16.2,0.9,27.4,1.5,40.6,10.2c-0.1,0.5-0.3,1.1-0.5,1.6
	c-0.5,2.2-0.9,4.4-1.2,6.6c-7.2-4-12.3-5-20.9-6.7c-13-2.5-25-3.2-39.8-1.3c-3.5,0.4-2.8,2.4,0,2.2c15.7-1,26.3-0.2,39.5,2.2
	c9.4,1.8,12.9,2.8,21,6.7c0.4,4.2,1.2,4.5-0.7,7.4L322,357c-5.7-4-13-2-21.1-4C286.6,349.6,273.8,345.5,261.5,353.1z M262.8,374.8
	c0-1.1-0.1-2.2-0.1-3.4c6.7-1.5,13.1-2.5,19.9-3.7c-9.1,0-12.8-0.5-20,1.5c-0.2-4.4-0.5-8.9-0.9-13.4c-0.1-0.7-0.1-1.4-0.1-2.1
	c14.8-3.9,23.9-1.1,38.2,2.3c9.3,2.2,15.9,2.6,24.7,6.2l0.2,2.6c-1,1.2-1.1,3.1-1.5,5.7c-10-7.1-16.5-6.6-30.2-8.4
	c-1.8-0.2-2.4-0.5-4.2-0.4l-24.7,1.6c5.6,1.5,16.6,1.8,24.4,2.4c3.3,0.2,5.5,0.9,8.6,1.5c6.8,1.5,12.5,2.3,18.8,5.3l5.9,2.7
	c-0.3,1.1-0.1,1.4,0,2.8c-9.3-3.1-16.6-5.5-27-6.6C284,370.5,273.4,371.1,262.8,374.8z M277.8,389.7c7.1,0.4,13.5,0.7,20.4,0.5
	c6.3,0,11.2,2.6,17.2,4.8c-7.7-5.6-7.4-7.3-17-7.2C291.3,388,285.6,388.7,277.8,389.7z M305.5,424.1c-5.7-2.7-7.1-2.5-15.1-3.3
	c10.2-0.5,12.1-0.2,22,2.2C308.5,425.3,309.3,425.9,305.5,424.1z M266.1,424c13,4.6,17.5,4.9,31.3,4.7c7.9-0.1,2.8-4.2-0.4-4.5
	c-6.8-0.7-13.4-1.1-20.1-1.5c6.5,2.2,10.5,3.4,17.3,4.6C282.6,427.8,277,425.4,266.1,424z M266.9,429.9c17.1,6.7,23.7,4.8,41.5,2
	C293.1,432.3,282.1,432.6,266.9,429.9z M268.5,441c10.3,1.9,15.4-1.2,23.4-0.5c11.6,1,9.3,1.9,19.2-4.3c-9.7,2.8-9.7,3.5-19.8,2.2
	C283.2,437.3,276.9,440.3,268.5,441z M266.2,444.1c14.7,5.3,26.5,5.1,41.6,7.1C297.6,445,278.5,445.9,266.2,444.1z M268.4,450.1
	c9.2,3.5,8.9,3.3,18.7,3C280.8,454.5,272.2,457,268.4,450.1z M287.3,455.3c9.7,2.2,11.1,1.4,20.9,0
	C301,455.5,294.5,455.7,287.3,455.3z M278.8,466.1c16.6,2.7,15.4,2.5,31.7-2.1C298.7,465.7,290.7,466.1,278.8,466.1z M302.4,482.1
	h-15.1c-11.2,0-4-1.6,5.1-1.4c-7.4-1.5-13.4-2.3-20.4-5.3C278.8,489.1,289.7,485.2,302.4,482.1z M274.3,471.8
	c13.8,6.7,15.7,4.2,31,2.7C292.1,474.6,287.1,475.1,274.3,471.8z M316.2,422.8c-0.3,4.9-0.7,9.8-1.2,14.8c-1.3,11.7-3,22.3,0.3,34.1
	c0.9,3.3,3.4,2,1.9-2.3c-3.1-8.5,6.3,1.6,0.7-6.3c-7.3-10.2,7.8,2.5,0.7-4.9c-9.3-9.6,6,2.5,0.2-5.6c-5.1-7.1,6.5-3.2,1.1-8.1
	c-5.7-5.3,7.1,0.3,0.8-5.5c-5.8-5.3,4.5-2.3,6.8-11.2l0.4-1.9c2-7.4,0-6-5.5-11.5l-4.8-4.8c-0.5,3.5-0.9,6.7-1.2,10.1
	c-17-5.9-26.3-4.8-44.3-4.2c-4.5,0.2-4.8,2.7,0,2.3c14.9-1.4,25.2-0.5,39.3,2.7c2,0.4,3.3,0.3,5,0
	C316.3,421.3,316.2,422.1,316.2,422.8z M199,116.9c2.4-6.3,3.9-9.4,8.1-15.8c-7.9,6.3-7.6,5.6-10.2,13.4c-1.3-1.4-2.6-2.7-4.2-3.9
	c-6.7-5.5-12.5-7-19.6-14.6c1.9,4.8,6.2,10.3,8.9,14.1c1.1,1.6,1.9,3,2,3.6l-6.2,4c5.1-0.8,8.6-2.6,4.3,1.8c10.8-3,12-2,16.6,4.3
	c4.8,6.5,5.1,7.9,7.8,15.4C206.6,130.9,203.9,123.2,199,116.9z M203.9,115.5l6.5-10.7l9.8-15.2C210,100.8,209.6,101.5,203.9,115.5z
	 M96.6,215.2c10.5-5.5,15-8.6,24.2-16C111.4,204.7,105,208,96.6,215.2z M113.4,215.3c8.9-10.9,16-19,26-28.9
	C130.8,196.8,123,205.8,113.4,215.3z M86.5,207L98,181.5C94.6,195.9,96,195.7,86.5,207z M84.8,174.3l15.4-10.9
	C94.6,168.9,92.6,172.8,84.8,174.3z M101.6,174.8l16.9-16C113.2,166.2,109.9,176,101.6,174.8z M160.2,253.8l22.7-27.9
	c-1.9,15.3-17.3,15.7-4.7,18.4C170.3,247.6,167.1,249.1,160.2,253.8z M220.5,217.9l-0.7,7.3l-11.6,16.6l14.2-12.5l1.2-4.9l5.6,12
	l-0.2,3.4l-9.4,17.1l9.5-12.8l-0.1,3.6c-7,11.9-7.9,12-10,25.7c3-10.5,3.8-12.1,9.7-21.3c-0.4,11.2-0.3,20,4,30.3l1.8-6.2
	c-3.7-13-2.3-18.2,2.5-30.4l6.3-20.9l2.2-13.7l-1.1-13.5l-1.8,10.3c-4.2-1.1-11.2-11.4-14-14.9l3.8,8.4c-4.8-3.3-5.7-5-9.2-9.6
	c4.4,9.3,5.5,11.5,7.1,21.7c-3.3-6.3-6.7-12.3-10.3-18.5l7.9,20.5l1.4,11.5l-6.2-16l-6.5-20.8L212,179c-1.4-3.3-1.8-3.7-3.9-6.1
	c-1.1-11.1,1.4-20,4.6-30.1c3.1-9.8,0.7-19-0.7-29.3c-0.2,9.7,0.8,20.6-2.3,29.9l-2.5,7.6l-1.9-8.8l0.3,10.5l-0.8,8.6
	c-0.5,5.4,0.1,12.7,2.5,17.4l1.9,3.7l0.5,3l4,13.5l-2.2,15.1l4.6-6.9l2.2,7.1L220.5,217.9z M419.9,245.1
	c10.6,8.8,11.4,10.5,18.7,22.1C432,259.8,426.1,253,419.9,245.1z M408.6,244.9c13.8,12.5,12.1,10.4,18.1,28
	C420,259.7,418.2,256.1,408.6,244.9z M421.1,223l26.2,31.8c-5.3-1.9-4.3-1.2-7.3-5.8c-1-1.4-2-2.8-2.8-4.3c-4.8-3.6-5.3-3.5-8.2-8.8
	L421.1,223z M489,238.4l-16.3-8.5l-14.2-7.2C471.6,231.8,473.6,233.9,489,238.4z M472.4,242.6c-8.9-7.9-15.7-15.4-23.7-24.3
	c8.1,11.3,11.7,16.4,22,25.7C473.2,246.5,477.8,247.6,472.4,242.6z M519,163.7c-10-7.8-8.1-7.6-20.7-9.3c9.8,3.8,11.2,4.2,19.3,10.8
	C520,167.2,522.4,166.2,519,163.7z M515.6,156.2l7.8,5.4l-7.8-4C513.3,156.3,511.1,153.1,515.6,156.2z M498.4,164.5
	c4.3,2.5,8.5,5.7,13.4,6.9c8.2,2.1,6.8,1.6,12.6,7.8c-5.8-3.8-6.6-5.1-13.5-6.6C503.2,171.2,503.9,170.1,498.4,164.5z M480.8,171.2
	c7.9,3.5,14.4,5.9,22.7,8.6c7.8,2.6,11.9,5.4,19,9.4l0.1,6.9c-7.6-7.1-9.6-10.8-19.5-14C491.6,178.6,490.3,178.5,480.8,171.2z
	 M480,182.8c7.2,5.1,10.9,8.4,17.2,14.8C489.3,192.1,485.4,190.6,480,182.8z M500.6,196.8c6,4.8,10.4,8.6,15.5,13.8
	c2.8,2.8,5.4,10.2-0.4,3.3C510.7,207.9,505.8,202.5,500.6,196.8z M364.1,262.7l6.5,13.7C368.9,268.1,369.6,269,364.1,262.7z
	 M144.1,235.5c10.7-10.2,11.9-11.3,18.8-24.3C157.6,215.6,149.4,229,144.1,235.5z M372.2,329.1c9.6,5.1,19.3,4.7,25-9.4
	c-6.5,11.7-17.2,9.1-27.4,1.6L372.2,329.1z M369.9,385.5c0.2,10-0.2,20-0.8,29.9c1.1-10.2,2-17.7,2.3-25.4L369.9,385.5z
	 M364.4,369.7c-9.8-2.2-18.8,0.8-27.1,7.3c10-3.7,18.8-8.4,28.1-4.7L364.4,369.7z M365,341c0.2,2.3,0.4,4.6,0.7,6.9l3.1-2.7
	c-0.1-1.2-0.2-2.5-0.3-3.7L365,341z M118.6,253.9c-3.3,25.5,9.4,27.5,15.8,58.8l4,20.1c36.1-3.2,18.1,32.2,37.1,17.1l-5.5-39.6
	l7.1,24l6.2,20.4l-8-29.7l-3.5-16.6l-2.1-10.5c3.3,2.5,5.4,4.5,7.2,5.8c5,15.9,9,22.2,19.6,35.1c-3.8-14.1-4.9-17.4-4.6-30.2
	l1.8,9.6l0.4-11.2l1.6,0.7c3.9,3.1,7.8,5.1,11.3,6.6l4,22.3c4.3-14.6,1.9-13.1,13.7-17.4l0.1-0.7l-9.6,1.5l-0.5-3.8
	c3.4,0.3,7.2-0.1,10.3-1c0.5-0.1,0.3,1.9,0.4,3.4l2.3-9.1c-0.2,0.1-0.3,0.1-0.5,0.2c-12.3,4.6-29.8-1.5-40.2-9.6
	c1.1,1.1,2.2,2.2,3.2,3.2c-11.4,1.4-14.3-2.2-19.7-12.1c-8.1,0-20.1-4-26.5-11.1l-1.4-1.6c-1.8-2.3-2.8-4.9-3-7.8l4-8.6
	c-10.5,7.6-10.5,8.8-3.6-2.7c-11.5,8.2-9,6.8-2.8-4.4c-11.9,12.3-5.4,6.6-15.4-2.7c-3.7-3.5,2.5-15.3,3.9-19.8
	c-3.8,5.5-6.2,8.9-9.2,14.9c-11.8-8.5-6.1-12.6-1.3-25.3c-4.9,4.9-8.5,8.2-12.5,14.1c-7-9.7-6-8.4-16.9-13.7l5.5-9.3l-7.6,6.7
	c-8.8-15.7-10.5-12.4-1.9-27.1c-9.7,5.9-8.3,5.9-3.7-4.2c-6.1,3.7-5.5,4.3-3.5-2.6l6.9-13.4c-17.9,17.9-12.4-2-5-14.4l4.9-7.9
	l-5.6,3.4c-4.5,2.7-4.2,1.4-1.2-2.6l4.9-6.8l-5.3,1.5c-4.9,1.5-5.1,1-0.3-2.3l7.4-5c-0.2,0-0.3,0-0.5,0l-7.1,2.7
	c-6,2.4-6.5,2.1-1.4-3.2l7.3-7.7c5.4-5.6,11.5-8.5,16.5-13.8l11.1-11.5c6.1-6.3,13.5-11.5,19.9-17.5l4.7-4.3c4.5-4,4.9-3.9,10.6-6.1
	l8-3.1c6.9-2.6,10.9-3.9,18.2-5.5c6-1.2,8.2-1.5,14.4-1.4l26.4,0.5c11.4,0.2,22.7,0.9,33.9,1.6c4.4,0.3,5.4,0.7,6.7,3.2
	c-3.1,1-6.2,2.1-9.4,3.4c-9,3.8-16.3,9.5-23.2,20.9c10.3-11.8,14.1-14.7,24.1-19c15.5-6.9,30.4-8,46.7-8.9
	c19.4-1.1,38.2,5.7,56.3,12.8c14,5.6,14.3,6.1,20.8,15.8c-5.1-11.2-8-13.4-20.1-18.4c-2.2-0.9-4.3-1.8-6.5-2.6
	c2.4-3.1,3.2-3.5,6.6-4l12.7-1.8c12.7-1.8,32.9-3.5,45.6-2l12.6,1.5c10.7,1.3,28.9,6.5,38.9,11.4c13,6.3,24.4,12.7,34.6,23.4
	l18.2,19.2c4.9,5.1,23.3,22.1,25.8,28.8c0.7,1.8,0.2,3.5-0.4,5.1c-5.5-5.7-10.2-9.6-16.4-14.9c5.7,5.9,10.8,11.2,16,17.6
	c-0.2,2.6-0.3,5.1-0.3,7.8c-0.1,3.6-1,7.1-2,10.5c-1.5,5.6-2.5,10.5-3.6,16.2c2.1-5.4,4-9.7,5.1-15.4c0.8-3.6,1.3-7.1,1.6-11.1
	c0.2-2.2,0.4-4.3,1-6.7l0.5-2.5c0.5-2.4,1.4-4.7,0.3-7.1c-3-6.8-21.2-25.3-26.4-30.5l-18.2-18.7c-8.5-8.9-23.6-17.9-34.8-23.7
	c-8.2-4.2-30.2-9.8-39.5-10.9l-12.5-1.4c-12.5-1.4-33.2,0.2-46.3,2l-12.7,1.6c-4,0.5-5,0.8-8.3,4.8c-15.5-5.9-30.5-9.6-48.6-8.5
	c-12.5,0.7-24,1.4-35.8,4.7c-2.1-3.4-3-3.9-8.5-4.2c-11.5-0.4-23-0.9-34.5-1.1l-26.4-0.5c-5.4-0.1-9.1,0.5-14.4,1.3
	c-8.6,1.3-13.7,1.2-21.6,5.1l-12.7,6.2c-3.7,1.9-5.8,5.4-9.4,8.2l-18.4,15c-5.6,4.6-9.3,10.1-15.1,14.1l-10,7
	c-5.6,3.9-6.9,7.2-11.3,11.8l-3.2,3.3c-3.5,3.6-5.7,8.8-1.5,12.9c-1.1,4.2-1.2,6.2,3.1,8.6c-2.4,5.7-3.9,12.7-0.3,18.2
	c-0.7,6.2-1.2,5.1,2,10.6c-0.1,5.6-1.2,5.6,2.5,9.6c-0.1,8.2,5.6,15.3,9.4,22.5c3.6,3.2,7.4,5.4,10.2,9.1c7,1.5,5.1,3.6,10.1,8.9
	l4.4,0.3c1.2,5.9,1.5,4.6,6.2,8C114,251.4,115.2,249.5,118.6,253.9z M236.7,349.6c-6.5,25.1-15,49.7-28,68.3
	c0.1,6.2,0.1,11.9,0.3,16.4c-0.7-4.7-1.3-9.4-2-14.1c-5.5,7.3-11.6,13.7-18.7,18.5c-28.8,19.8-33.8,8.3-22.1-4.3
	c9.3-10,24.8-30.2,35.6-47.3c-1.4-9.3-2.6-18.7-3.5-28.3c3.8,5,6.1,12.6,7.7,21.1l-2.7,5.6c-7.8,19.5-26,43.3-34.1,51.8
	c-6.3,6.6-1.5,11.2,16.4-1.2c32.6-22.5,47.8-80.2,57.8-124.1h-0.1l6.7-30.4l0,0c0.8-2.7,0-4.8-2.2-8.3c-3.8-5.9-9.1-11.5-11.6-1.1
	l-0.7,2.7c-2.1-5.4,1.2-13.5,6.2-11.3c3.3,1.4,5.6,4.2,8.8,8.5c3.2,4.4,2.5,8.1,0.9,12.1l1.3,10.8l4.4-5.5l-2.4,13
	c3.6,11.9,4.9,21.2,5.7,31.2c8-6.6,17.2-7.7,26.9-7.4c13.2,0.4,30.3,1.1,41.1,9.5c0.4-3.5,0-5.5,1.6-10.1
	c-5.6-11.9-16.1-15.1-28.7-15.9c-15-0.9-30-1.3-42.9,6.5c9.5-12.1,28-10.1,43.1-9.7c3.8,0.1,3.7-0.8,7.4,0.1
	c13.7,3.5,17,3.5,22.2,15.8c0.2-0.5,0.5-1.2,0.9-1.9l1.8-2.4c-0.7-8.4-0.2-18.4-5.9-25.3c-2.6-3.2-5.6-5.9-9.7-7.1
	c-9.1-2.7-19-4.8-28.6-3.8c-9,0.9-14.8,1.5-23.4,7.7c-4.9,3.5-6.6,7.6-9.1,18.4c-1.9-9.8,2-14.4,7.8-20.5c5.8-6,15.7-7.6,24.6-8.3
	c11.8-1.1,20.6-0.1,29.5,4.2c6,3,8.3,3.9,10.5,8c2.3,4.2,3.7,7.7,5,12.1c2.5-3.5,3.5-4.7,5.8-6c-0.8-0.8-1.4-1.5-1.6-1.9l5.6-1
	c4.8-13.8,6.8-9.8,12.1-18.6c1.8-2.8,2.1-6,0.5-11.5c-1.3-3.5-3-9-4.3-14.7l0,0l0,0c-1.2-5.3-2.2-10.6-2.3-15.1l0.7,2.6
	c3.4-9.1,6.3-16.9,8.9-26.4c9.5-14.7,12.3-21.5,14.6-38.4c-2.2,4.5-4.5,8.9-6.8,13.2c1.6-10.2-3.8-8.2-9.4-4.3
	c-12.7,9.2-10.5,17-9.6,31.6c-3.6-9.6-0.8-18.2-7.4-18.2c-9.1-16.7-14.7-17.1-32.4-23c18.8,1.6,22.8,6.8,34.4,19.2
	c1.1-2,2-3.7,3.1-5.3l-1.9-1.8c-6.8-6.2-12-12.6-20.6-15.9c-11.9-4.7-24.3-5.9-37.5-4.2c-7.4,1-15.1,3.4-26,8
	c10.4-6,17.6-8.4,25.5-9.4c17.9-2.3,28.3-1.8,39,3.8c8.5,4.5,15.4,11.4,23.6,16.7c0.7-0.8,1.3-1.5,2-2.3c0.4-0.4,1-1,1.4-1.4l-3.8-6
	l-10.1-10.3l11.3,9.1l4.4,5.6c1.5-1.3,3-2.2,4.5-3.1c1.1-4.3,2.7-7.2,6.3-11.7c-2.1,5.7-1.6,9.1,5,8c0.7-0.1,1.3-0.3,2.1-0.5
	c5.7-10.7,0.9-19.7-5.9-28.2c-5.6-7-11.1-12.9-14.1-27.1c16.7,25.3,15.4,30.1,20.2,0c5.3,5.9,4.8,6.9,5.5,13.4l3-10.4l0.8,9.5
	c9-9.4,12.9-15,27.5-19.2l-2,3.8l-0.7,6.5c-12,3.2-17.3,8.1-21.8,15.7c-1.1,1.9-2.2,3.8-3.3,6.1c-3.7,7.3-3.2,10.4-2.1,16.2
	c1.2,6.2,0.7,9.4-0.4,14c-1.4,6-1.8,11.6-2,17.5c-0.2,5.4-1.6,10-3.7,14.4c-0.5,12.3,0,19.7,2.4,34.7c-3.6-12-5.4-17.1-6-27.3
	c-3.8,8.1-4,12.6-4.7,20.6c-0.5,6.6-0.5,6.6-5,5.9c-6-1-0.4,11.9,0,23.6l-3.7-6c0.9,3,2,6.1,3.4,10.2c1.6,4.7,2.3,8.9-1.2,14
	l8.3,30.9l-10.8-29c-2.8,2.8-7.3,8-8.2,12.8l0,0c-1,4.3-0.8,8.4,0.1,12.1l2.3,13.5l-0.7,0.5c0.3,0.1,0.5,0.2,0.9,0.3l0.8,3.6
	c-4.4-0.3-7,2.4-8.4,6.2c-2.3,6.1,3.5,1.9,9.7,3.7l1.1,0.3l0.5,2.5c-7.2,0.4-12.1,1.9-19.9,3.5l-2.6,8.4c0.1,13.9,1,12.9-4.8,24.8
	c-0.8,2.5-0.2,4.8-1,7.2c-1.1,3.6-3.1,14.4-3.7,17.5l2.6,12.1l-5-9l-2.3,12.4c-0.4-13,2-12.4,3.5-21.1l0,0l0,0
	c-2.7-4.2-3.2-3.7-7.7-6.1c-10.6-5.6-14.7-7.6-29.8-8.4c13.8-2.4,20.8,0,30.2,5.6c2.5,1.5,5.3,3.2,8.3,5.1c0-1.6,0.5-4.6,1-6.8
	c-9.5-2.7-17.5-7.6-27.1-7.8c-11.3-0.3-20.6,0-31.8,3.5c0.1,1.9,0.1,3.8,0.2,5.7c4,1.5,4.7,1.9,10.5,1.3c11.5-1,15.4-0.8,26.9,0.9
	c-9.2,0.1-17.8,0.2-27,1c-5.9,0.4-6.3,0.7-10.3-0.8c0,1.3,0,2.6,0.1,3.9c0,1.3,0,2.6,0.1,3.9c10.5-0.1,20.2,0.3,30.9,0.9
	c-11.1,0.3-20.2,1.5-30.8-0.3l0.1,4.9c9.7-1.5,15-1.9,25.6-1.5c10.5,0.7,13.1-1.2,21.3,5.6c-7.1-1.6-11.9-3-19.4-3.3
	c-10.4-0.3-16.4-0.8-27.6,2.7v3.7c11.4,0.7,22.7,0.9,34,1c8.9,0.1,7.6-0.9,14.8,4.2c-4.9-0.7-9.6-1-14.3-1.3
	c-11.6-0.7-22.8-0.5-34.5-2.6c0.1,10.5,0.2,20.9,0.7,31.3c0.3,8.4,0.5,17.3,1.4,25.5c1.4,12.1,3.1,18.3,9.5,30.5
	c6.6,12.4,23.7,13.1,32.7,3.7c12.7-13.4,12.1-22.9,16.3-40.7c-0.4,15.3-0.9,30.1-0.5,45.3l-4.7-4.3c-1.3,9.3-4.5,64.2-18.8,54.8
	l-25.4-26.3c-7.9-5.1-15-32.6-16.1-41.5c-3.1-23.9-2.8-44.9-1.3-70.4c1.6-27.8,0.1-47.2-2.8-72.1l-4.6-14.7
	c-7.2,10.7-8.8,63.8-11.5,82.4C238.6,386.4,238.4,368.8,236.7,349.6z M469.2,381.4C510.1,259.8,486.4,277.4,469.2,381.4z"/>
<path class="st7" d="M231.5,72.7C179.8,68.7,155.2,72,126.6,96c32.2-15.9,45.2-16.4,69.2-6.6L231.5,72.7z M236.7,99.7
	c37.1-25.5,55-24.6,83.1-13.9c13.6,5.3,30.5,8.8,38.1,21.7l4.7,8c-5.5-5.1-26.2-27.3-22-7.3c3.2,15.3,8.8,22.7,17.3,39.2
	c-37.1-17.8-47.2-16-88.3-16c19.7-20.5,23.4-39.2-11.5-31.8L236.7,99.7z M246.8,229.8l2.5,33.5C236.2,251.4,242.3,248.3,246.8,229.8
	z M342.6,278c17.7-11.3,9.6-15.4,3.6-37.8L342.6,278z M273.3,274.9c23.1-6.3,42.8-5,59.1,12C324.6,266.7,293.1,257.6,273.3,274.9z
	 M415.8,422.8c-49.1-21.6-62.5-111.1-66.9-124.9c-1.3-4.3,3.7-14.8,7-6.6C362.1,307.4,379.7,395,415.8,422.8z M175.7,436.5
	c49.1-28.3,67.1-136.9,71.6-152.6c1.3-4.8-3.7-15.9-7-6.6C233.9,295.7,211.8,402.5,175.7,436.5z M509.2,134.4
	c-36.3-25.8-80.8-59.4-127-34.8l-15.8-20.2C424.5,68.2,472.2,89.6,509.2,134.4z M370.1,53.3h145.6v37.4
	C458.7,63.8,430.8,62.4,370.1,53.3z"/>
</svg>
