<?xml version="1.0" encoding="utf-8"?>
<!-- Generator: Adobe Illustrator 23.1.0, SVG Export Plug-In . SVG Version: 6.00 Build 0)  -->
<svg version="1.1" id="Слой_1" xmlns="http://www.w3.org/2000/svg" xmlns:xlink="http://www.w3.org/1999/xlink" x="0px" y="0px"
	 viewBox="0 0 595.3 595.9" style="enable-background:new 0 0 595.3 595.9;" xml:space="preserve">
<style type="text/css">
	.st0{fill-rule:evenodd;clip-rule:evenodd;fill:#565656;}
	.st1{fill-rule:evenodd;clip-rule:evenodd;fill:#E2E2E2;}
	.st2{fill-rule:evenodd;clip-rule:evenodd;fill:#CECECE;}
	.st3{fill-rule:evenodd;clip-rule:evenodd;fill:#F9912B;}
	.st4{fill-rule:evenodd;clip-rule:evenodd;fill:#FFA440;}
	.st5{fill-rule:evenodd;clip-rule:evenodd;fill:#6D6D6D;}
	.st6{fill-rule:evenodd;clip-rule:evenodd;fill:#606060;}
	.st7{fill-rule:evenodd;clip-rule:evenodd;}
	.st8{fill-rule:evenodd;clip-rule:evenodd;fill:#666666;}
	.st9{fill-rule:evenodd;clip-rule:evenodd;fill:#CE7925;}
</style>
<path class="st0" d="M41.9,157c-2.4,66.7-6.7,175.3,0,239.3c15.6,149,201,90.4,254.9,183.7c53.9-93.2,239.4-34.6,254.9-183.7
	c6.7-63.9,2.4-172.5,0-239.3c0-59.3,0-78.8,0-138H296.8H41.9C41.9,78.2,41.9,97.6,41.9,157"/>
<path class="st1" d="M526.1,167.4c2.2,61,6.1,160.4,0,218.8c-14.2,136.3-180,82.7-229.3,168V44.6h229.3
	C526.1,98.9,526.1,113.1,526.1,167.4"/>
<path class="st1" d="M67.6,167.4c-2.2,61-6.1,160.4,0,218.8c14.2,136.3,180,82.7,229.3,168V44.6H67.6
	C67.6,98.9,67.6,113.1,67.6,167.4"/>
<path class="st2" d="M354.9,493.3c141.2-45.3,158.2-42,153.8-198.7C484.5,431.2,476.5,426,354.9,493.3"/>
<path class="st2" d="M81,202.8l16.5,125.9l0.6-103.8L81,202.8z M188.3,52.2H75.5v53.3C121.1,60.9,126.5,61.5,188.3,52.2z
	 M224.2,493.3C99.8,451.1,84.8,454.2,88.7,308.1C109.9,435.4,117,430.5,224.2,493.3z"/>
<path class="st3" d="M159.6,442.3c0.1,1.4,0.3,2.9,0.6,4.2L159.6,442.3z M140.9,359.4c16.7,22.6,15.6,55,18.6,82.8l16.2-18.5
	c-6.4-16.2-8.2-32.9,0.4-42.6l8.9,28.7l13.9-23.8c-4.3-7.3-9.3-14-17.4-21l-14-51.5l-2.8-20.6l-11.7-3.1l-17-13.9l-5.8-8.6
	l-24.2-25.5L95.4,230l-15.3-10.4l-12.1-20.5l1.1-2.8l-3.6-9.6l-1.8-14.6l4.4-9.8l-8.3-19.7l13.6-15.2l7.5-5L95.9,105l23.2-17
	l9.6-11.6l22.6-10.1l23.2-3.3l71.1,3l2.9,4.5l4.7-2.4l27.7-2.3l23.3-1.1l29.9,9.9l4.6-5.3l26.8-3.8l36.3-1.2L450,74.5l32.9,20.4
	l28.3,28.1l22.8,27.4l-1.3,13.1l-8.2,42l-4.3,18.3L506.4,243l-12.6,4.6l-27.9,11L426,294.5l-21.6,11.3l-5.8,40.6
	c-20.2,18.6-21.1,46.9-27.8,74.5c-7.2-53.8-44.5,49.7-61.8,81.2l-31.4,6.2l-16.2-30.8l-4.3-33.9l-7.7-44.2
	c-26.6-8.7-26.1-15-35.6,3.4v0.1l-0.1,0.1c-0.8,1.5-1.7,3.3-2.6,5.2l-0.7-1.1l-18.6,23.5l10.1,32.4c-6.4-5.7-13.2-14.6-19-24.5
	l-22.8,7.9C141,414.2,144.6,396.7,140.9,359.4z"/>
<path class="st4" d="M219.6,385.1c2.1,10.7,4.3,23.1,7.4,38.5c28-17.1,20.5-8.9,29.9,26.7l2.9-67.8L247.2,311l-4.5-7.1l-12,47.7
	L219.6,385.1z M154.9,111.1c-61,34.1-19.6,32.7-45.4,77.5c-16.1,28,49.5,66.3,84.9,86.3c12.5,7.1,11,16.3-7.7,27.1
	c12.1,20.3,19.2,34.7,24,48.6l10.7-32.5l1.9-5.8l-2.1,1.9l-17.1-2l-14.8-9c22-2.8,35.3-5.2,39.8-21.5c0.1-0.6,0.6-2.1,0.8-2.6
	l-2-6.7l-0.1-11.5l5.3-35.1h-7.1l-21.3-51.4l-3.9-10.7l8.5-23.6c-4.6-23.9-9.9-33.9,7.1-52.8C191,106.8,178,98.3,154.9,111.1z
	 M353.2,342.4c-4.5-4.4-10.3-3.5-17.3,6.6l-6.1,58.7c8.8,30.3,9.6,59.8-12.6,83.6c2.1-14.3,4.1-28.8,6.2-43.1
	c4.3-30.6,6.7-24.9-7.4-52.2l6.7-33.3l8.1-35.3l-0.4-14.9l8.9-13.5l3.9-0.9c0,1.4,0.1,3,0.4,4.3L353.2,342.4z M369.7,392.2
	c-0.3,1.2-0.7,2.5-1.1,3.8c-0.4-3.5-0.9-7.3-1.5-11.1L369.7,392.2z M392.8,323c-6.1,12.2-10.3,23.9-13.8,35.7l-14-39.2l11,8.7h10.8
	L392.8,323z M397.4,111.5c37.6,3.8,52,21,56.6,45.8c9.2,48.4-6.2,27.7,32.8,69.1c-60.7,22.8-38.3,35.6-85.5,58.6
	c-11.5,5.6-12.5,6.4-22.1,15.1c-14.8-9.3-14.9-8.1-24.5-22.7l2.5-8.3l-8.4-26.3l14.1-31.2l10.9-33.3l1-33.4l3.3-19.1L397.4,111.5z"
	/>
<path class="st5" d="M182.9,509c-77.1-22.1-126.1-37.7-130.8-132C67.4,465.5,116.8,478.8,182.9,509"/>
<polygon class="st6" points="293.2,31 540.6,29.9 542.1,141.2 534.4,36 "/>
<path class="st7" d="M339.7,295.5c11.5,45.4,22.1,114.7,63.3,135.6c29,14.6,34.1,3.1,22.3-6.9c-10.1-8.6-27.4-27.2-38.1-42.4
	c7.3,17.5,26.7,38.4,35.2,45.4c6.4,5.3,1.5,10.3-16.5,1.1c-40.8-20.5-54.5-95.9-64.4-134.4L339.7,295.5z"/>
<path class="st8" d="M349.3,192c3.3-7.4,5.3-8.1,13.7-11.4c-1.4,4.9-4.4,9.9-9.8,10.8c-1.5,0.2-2.1,0.9-2.2,2.2
	c-0.4,3.8,0.6,3.9,2.9,6.6C349,199.8,347.3,196.4,349.3,192 M348.5,203c8.9-0.4,11.3-5,15.1-13.6c-2.5,12.7-8.4,14.1-10.6,20.5
	c-2.4,7.1-4.7,14.1-6.9,21.3c-2-5.1-2.1-6-2-10.4c0.2-8.7,5.1-5.4,4.6-13.5L348.5,203z M374.8,311.7l2.4-2.1c0.4,0.2,1,0.4,1.4,0.7
	c6,2.4,8.3-0.9,13.2-6c2.1,3.1,1.3,3.6,3.9,2.3c2.6-1.4,4.9-2.5,6.9-3.4l17.8-8.9c0.6-1,1.2-2.4,2.1-4.3c1.4,1.3,2.4,2,3.3,2.2h0.1
	l5.5-4.4l0.3-0.3c3.9-4,8.3-6.3,12.4-9.9l1.2-1l8.3-8.3c0.7-1.5,0.7-3.3,1-7.2c0.6,0.3,1,0.8,1.4,1.1c0.9,0.8,1.7,1.3,2.4,1.1
	l4.7-4.9c0.1-0.3,0.2-0.7,0.2-1c0.6-2.5,0.7-3.9,3.8-3.5h0.4l4.5-4.5l-0.7,4.9c2.3,0.1,4.5-0.2,6.2-1.8c2.5-2.2,4.2-3.8,8.3-4.1
	c4.7-0.3,8.5-0.8,11.5-5.4l2.6-0.7c3.9-1,3.1-0.7,5.4-4l5.5-7.9c2.8-4,7.5-8.8,7.9-11.9c1.2-10.1,5.3-9.6,6.2-15.9l0.9-6.4l-0.3,7.3
	c-0.6,10.1-4.4,7.9-5,15.9c-0.7,11.1-3,5.3-7.5,12.7l-5.2,8.4c-3,4.9-2.1,4-7.3,6.1c-10.5,4.2-14.6,4.3-24.5,9.9
	c-1.8,1-3.4,1.4-5.1,1.7l-7.7,57c-6.7,0.4-35.5-45.7-55.8,30.4c-6.2,23.3-17.8,38.5-14.7,1.8l8.9-40.4l-5.5,2.4
	C389.7,312.4,380.5,317,374.8,311.7z M217.2,172.8c-0.4-6.4-0.6-7.4-2.9-13.3c6.7,2.9,8.6,3.5,15.9,4.6c1.3,5.8,1.5,6.2,4.7,11.3
	C226.2,170.2,225.1,166.4,217.2,172.8z M218.6,177.5l2.2-2.1c5.5,2.8,9,4.2,13.8,7.3c5.2,3.4,0.7,8.3-2,12.5
	c0.8-3.1,3.5-8.3,0.8-10.5l-2-1.5c-3.6,4.5-7.6,0.8-10-3.3L218.6,177.5z M241.1,188.6c-1,0-1,1.4-0.6,2.2c0.7,1.1,1.3-0.6,1.1-1.5
	C241.5,189.1,241.4,188.6,241.1,188.6z M212.4,177.1c-0.2-0.2-1.2-1.2-1.2-0.4c0,0.1,1.9,3.3,2.1,3.6c1.1,1.2,1.2-0.1,0.6-1.1
	C213.1,177.9,213.5,177.9,212.4,177.1z M277.4,169.6c-16.4,6.6-21.4,7.4-28.7,23.9C259.8,181.3,263.9,178.4,277.4,169.6z
	 M268.9,180.2c-10.7,6.9-13.2,8.9-17.3,21.2C256.2,190.9,266,185.1,268.9,180.2z M271.2,188.4c-10.9,6.4-13.8,10-20.8,26.6
	c9-13.2,12.6-18.9,21.5-24.2c11.7-7.1,16.1-7.1,26.5-6.8c10.9,0.3,15.9,0.7,25.5,4c6.3,2.1,10.8,9.4,12.1,15.6
	c2.1-10.7-2.2-13.8-11.5-18.8c-8.4-4.5-12-4.2-26.1-4C285.8,181,284.4,180.7,271.2,188.4z M251.5,218.9l6.5-9.3
	c8.2-10,11.8-13.5,20.6-16.7c12.4-4.3,24.9-2.3,36.8,2.3c-12.7-2.4-24.3-5.5-36.5-0.3C266.1,200.5,263.5,205.1,251.5,218.9z
	 M334.3,212.9c-3.2-8.1-3.6-10.7-9.9-17.1c-6.7-6.8-11.6-8.3-24.3-10c12.5,0.3,19.1,0.8,25.9,7.5C333,200.2,332.4,203.8,334.3,212.9
	z M296.6,203.3c-5.4,1.2-9.7,2.5-15.8,4.9c-12.7,4.9-18.3,6.7-29.3,20.8c12.6-11.8,17.6-14.1,29.9-19.4c12.1-5.2,13.8-4.3,24,3.5
	l-5.8-6.8c4.9-2.9,9-5.6,13.8-5.4c5,0.2,6,1.7,7.2,4.9c1.3,3.3,9.6,11.7,13.2,18.2c-2.5-12.7-4.1-9-8.8-18.5
	c-1.3-2.5-2.4-4.1-6.2-5.6c-3.5-1.3-6.3-2.1-10.6-0.2C304.4,201.3,301.7,202.1,296.6,203.3z M256.2,218.9c7.2-10,8.6-10.7,18.6-17.9
	C268.2,207,262.3,212.6,256.2,218.9z M265.7,212.8C276.4,201,282,200,297,195.3C284.1,200.9,276.7,203.8,265.7,212.8z M314.2,213.9
	c11.8,2.8,12.8,3.8,18.2,14.6C325.1,219.8,324.5,218.4,314.2,213.9z M255.1,241.7c10.5-10.4,14.7-14,25.5-16.5
	c9.6-2.2,19.4-1.4,28.9,0.9c14,3.4,21.7,6.5,29.6,18.5c-5.6-6-7.8-7.1-14.9-11.3c4.9,6.5,6.5,10,10,17.4c-6.3-9.7-12.6-20.8-25-22.9
	c-9.9-1.8-17.8-3.2-28.5-0.7C269.2,229.7,266.9,232.6,255.1,241.7z M259,247c13.3-13.7,18.3-16.4,37.8-16
	C277.6,234,275,235.5,259,247z M275.2,243c9.2-5.8,11.7-6.7,22.1-9.9C289.9,236.6,282.7,239.8,275.2,243z M298.3,236.2
	c20.2-3.8,25.4,1.3,33.8,18.6C320,238.8,318.2,238.5,298.3,236.2z M330.9,268.3c-4.9-7.6-4.4-9.7-12.8-13.3c-9.6-4.1-18.4-6-30-4.9
	c-9.8,0.9-15.4,1.2-24.2,8.7c-8.2,6.9-12.1,15.1-11.8,27.5c4-13.8,6.1-19.3,13.1-25c9.6-7.7,13.9-8.3,23.1-8.8
	c11.9-0.8,19.7,1,29.3,5.2C324.5,260.7,325.7,262.9,330.9,268.3z M332.4,278.4c-8.3-12.7-11.8-15.6-26.7-18.2
	C319.7,265.2,322.8,267.2,332.4,278.4z M279.5,259.5c-9.4,2.2-9.4,2-17.2,7.5l8.3-4.1L279.5,259.5z M260.7,299.7
	c6.6-5.5,10.3-7.8,17.9-12l-8.7,7.5c9.3,0.6,13.3,0.2,22.2,3.3C279.4,298,273.1,297.1,260.7,299.7z M258,352.7
	c-0.4-6.4-0.8-12-1.1-17.4c8.5-5.7,17.2-6.3,26.6-5.8c16.3,0.9,27.6,1.5,40.9,10.3c-0.1,0.6-0.3,1.1-0.6,1.7
	c-0.6,2.2-0.9,4.4-1.2,6.6c-7.3-4.1-12.4-5.1-21.1-6.7c-13.1-2.5-25.1-3.2-40.2-1.3c-3.5,0.4-2.9,2.4,0,2.2
	c15.8-1,26.5-0.2,39.8,2.2c9.5,1.8,13,2.9,21.2,6.7c0.4,4.2,1.2,4.5-0.7,7.5l-2.8-1.9c-5.7-4.1-13.1-2-21.3-4.1
	C283.3,349.1,270.4,345.1,258,352.7z M259.3,374.6c0-1.1-0.1-2.2-0.1-3.4c6.7-1.5,13.2-2.5,20.1-3.8c-9.2,0-12.9-0.6-20.2,1.5
	c-0.2-4.4-0.6-8.9-0.9-13.5c-0.1-0.7-0.1-1.4-0.1-2.1c14.9-4,24-1.1,38.5,2.3c9.4,2.2,16,2.6,24.9,6.3l0.2,2.6
	c-1,1.2-1.1,3.1-1.5,5.7c-10-7.2-16.7-6.6-30.4-8.5c-1.8-0.2-2.4-0.6-4.2-0.4l-24.9,1.7c5.6,1.5,16.8,1.8,24.6,2.4
	c3.3,0.2,5.5,0.9,8.7,1.5c6.8,1.5,12.6,2.3,19,5.3l6,2.8c-0.3,1.1-0.1,1.4,0,2.9c-9.4-3.1-16.8-5.5-27.2-6.6
	C280.7,370.2,270,370.9,259.3,374.6z M274.4,389.6c7.2,0.4,13.6,0.7,20.5,0.6c6.4,0,11.3,2.6,17.3,4.9c-7.7-5.6-7.5-7.4-17.1-7.3
	C288.1,387.9,282.4,388.6,274.4,389.6z M302.3,424.3c-5.7-2.8-7.2-2.5-15.2-3.3c10.3-0.6,12.2-0.2,22.2,2.2
	C305.4,425.5,306.2,426.1,302.3,424.3z M262.6,424.1c13.1,4.6,17.6,5,31.5,4.7c7.9-0.1,2.9-4.2-0.4-4.5c-6.8-0.7-13.5-1.1-20.3-1.5
	c6.5,2.2,10.6,3.4,17.4,4.6C279.3,428,273.6,425.6,262.6,424.1z M263.5,430.1c17.2,6.7,23.9,4.9,41.8,2
	C289.9,432.5,278.8,432.9,263.5,430.1z M265,441.4c10.4,1.9,15.6-1.2,23.6-0.6c11.7,1,9.4,1.9,19.3-4.3c-9.8,2.9-9.8,3.5-20,2.2
	C279.9,437.6,273.5,440.6,265,441.4z M262.7,444.4c14.8,5.3,26.7,5.2,41.9,7.2C294.4,445.3,275.2,446.2,262.7,444.4z M264.9,450.5
	c9.3,3.5,8.9,3.3,18.9,3C277.5,454.9,268.8,457.5,264.9,450.5z M284,455.7c9.8,2.2,11.1,1.4,21.1,0
	C297.8,455.9,291.3,456.1,284,455.7z M275.4,466.6c16.8,2.8,15.6,2.5,32-2.1C295.5,466.2,287.4,466.6,275.4,466.6z M299.2,482.7H284
	c-11.3,0-4.1-1.7,5.2-1.4c-7.5-1.5-13.5-2.3-20.5-5.3C275.4,489.8,286.4,485.8,299.2,482.7z M270.9,472.4
	c13.9,6.7,15.8,4.2,31.2,2.8C288.9,475.2,283.8,475.7,270.9,472.4z M313.1,422.9c-0.3,5-0.7,9.9-1.2,14.9c-1.3,11.8-3,22.5,0.3,34.4
	c0.9,3.3,3.4,2,1.9-2.3c-3.1-8.6,6.4,1.7,0.7-6.4c-7.4-10.3,7.8,2.5,0.7-5c-9.4-9.7,6.1,2.5,0.2-5.6c-5.2-7.2,6.5-3.2,1.1-8.2
	c-5.7-5.3,7.2,0.3,0.8-5.5c-5.8-5.3,4.5-2.3,6.8-11.3l0.4-1.9c2-7.5,0-6.1-5.5-11.6l-4.9-4.9c-0.6,3.5-0.9,6.7-1.2,10.1
	c-17.1-6-26.5-4.9-44.7-4.2c-4.5,0.2-4.9,2.8,0,2.3c15-1.4,25.4-0.6,39.6,2.8c2,0.4,3.3,0.3,5.1,0
	C313.2,421.5,313.1,422.3,313.1,422.9z M195,114.6c2.4-6.4,4-9.5,8.2-15.9c-7.9,6.4-7.6,5.6-10.3,13.5c-1.3-1.4-2.6-2.8-4.2-4
	c-6.7-5.5-12.6-7.1-19.7-14.7c1.9,4.9,6.3,10.4,8.9,14.2c1.1,1.7,1.9,3,2,3.6l-6.3,4.1c5.2-0.8,8.7-2.6,4.3,1.8
	c10.9-3,12.1-2,16.8,4.3c4.9,6.5,5.2,7.9,7.8,15.6C202.7,128.8,200,121,195,114.6z M200,113.2l6.5-10.8l9.9-15.3
	C206.1,98.4,205.7,99.1,200,113.2z M91.9,213.7c10.6-5.5,15.1-8.7,24.4-16.1C106.7,203.1,100.2,206.5,91.9,213.7z M108.7,213.8
	c8.9-11,16.1-19.2,26.3-29.1C126.3,195.2,118.4,204.2,108.7,213.8z M81.6,205.4l11.6-25.7C89.8,194.3,91.2,194.1,81.6,205.4z
	 M79.9,172.5l15.6-11C89.8,167,87.8,171,79.9,172.5z M96.8,173l17-16.1C108.5,164.4,105.2,174.2,96.8,173z M155.9,252.6l22.8-28.1
	c-1.9,15.4-17.4,15.8-4.7,18.5C166.1,246.3,162.9,247.9,155.9,252.6z M216.7,216.4l-0.7,7.4l-11.7,16.8l14.3-12.6l1.2-5l5.6,12.1
	l-0.2,3.4l-9.5,17.2l9.6-12.9l-0.1,3.6c-7.1,12-7.9,12.1-10,25.9c3-10.6,3.9-12.2,9.8-21.5c-0.4,11.3-0.3,20.2,4.1,30.6l1.8-6.3
	c-3.8-13.1-2.3-18.3,2.5-30.7l6.4-21.1l2.2-13.8l-1.1-13.6l-1.8,10.4c-4.2-1.1-11.3-11.5-14.1-15l3.9,8.5c-4.9-3.3-5.7-5.1-9.3-9.7
	c4.4,9.4,5.5,11.6,7.2,21.8c-3.3-6.4-6.7-12.4-10.4-18.6l7.9,20.6l1.4,11.6l-6.3-16.1l-6.5-21l-5-11.4c-1.4-3.3-1.8-3.8-4-6.2
	c-1.1-11.1,1.4-20.2,4.6-30.3c3.1-9.9,0.7-19.2-0.7-29.6c-0.2,9.8,0.8,20.7-2.3,30.1l-2.5,7.6l-1.9-8.8l0.3,10.6l-0.8,8.7
	c-0.6,5.4,0.1,12.8,2.5,17.5l1.9,3.8l0.6,3l4.1,13.6l-2.2,15.2l4.6-6.9l2.2,7.2L216.7,216.4z M417.7,243.9
	c10.7,8.8,11.5,10.6,18.9,22.3C429.8,258.7,423.9,251.9,417.7,243.9z M406.2,243.7c13.9,12.6,12.2,10.5,18.2,28.2
	C417.8,258.6,415.9,254.9,406.2,243.7z M418.9,221.6l26.4,32.1c-5.3-1.9-4.3-1.2-7.4-5.8c-1-1.4-2-2.9-2.9-4.3
	c-4.9-3.6-5.3-3.5-8.3-8.8L418.9,221.6z M487.3,237.1l-16.4-8.6l-14.3-7.3C469.8,230.5,471.7,232.6,487.3,237.1z M470.5,241.4
	c-8.9-7.9-15.8-15.6-23.9-24.5c8.2,11.4,11.8,16.5,22.2,25.9C471.4,245.2,476,246.3,470.5,241.4z M517.5,161.8
	c-10-7.8-8.2-7.6-20.8-9.4c9.9,3.9,11.3,4.2,19.4,10.9C518.5,165.4,520.9,164.4,517.5,161.8z M514.1,154.2l7.8,5.4l-7.8-4.1
	C511.8,154.3,509.6,151.1,514.1,154.2z M496.8,162.6c4.3,2.5,8.6,5.7,13.5,6.9c8.3,2.1,6.8,1.7,12.7,7.8c-5.8-3.9-6.6-5.2-13.6-6.6
	C501.6,169.3,502.3,168.2,496.8,162.6z M479,169.3c7.9,3.5,14.6,6,22.8,8.7c7.8,2.6,12,5.4,19.2,9.5l0.1,6.9
	c-7.6-7.2-9.7-10.9-19.6-14.1C489.9,176.8,488.6,176.7,479,169.3z M478.3,181c7.3,5.2,11,8.5,17.3,14.9
	C487.6,190.4,483.7,189,478.3,181z M499,195.2c6.1,4.9,10.5,8.7,15.7,13.9c2.9,2.9,5.4,10.3-0.4,3.3
	C509.1,206.4,504.3,200.9,499,195.2z M361.4,261.6l6.5,13.8C366.3,267.1,367,268,361.4,261.6z M139.7,234.2
	c10.8-10.3,12-11.4,19-24.5C153.3,214.1,145,227.6,139.7,234.2z M369.6,328.5c9.7,5.2,19.4,4.7,25.1-9.5
	c-6.5,11.8-17.3,9.2-27.6,1.7L369.6,328.5z M367.3,385.3c0.2,10-0.2,20.2-0.8,30.1c1.1-10.3,2-17.9,2.3-25.6L367.3,385.3z
	 M361.8,369.4c-9.9-2.2-19,0.8-27.4,7.4c10-3.8,19-8.5,28.3-4.7L361.8,369.4z M362.3,340.5c0.2,2.3,0.4,4.6,0.7,6.9l3.1-2.8
	c-0.1-1.2-0.2-2.5-0.3-3.8L362.3,340.5z M114,252.7c-3.3,25.7,9.5,27.7,15.9,59.2l4.1,20.3c36.4-3.2,18.2,32.4,37.4,17.2l-5.5-39.9
	l7.2,24.2l6.3,20.5l-8.1-29.9l-3.5-16.8l-2.1-10.6c3.3,2.5,5.4,4.5,7.3,5.8c5.1,16,9,22.4,19.7,35.4c-3.9-14.2-5-17.5-4.6-30.4
	l1.8,9.7l0.4-11.3l1.7,0.7c4,3.1,7.8,5.2,11.4,6.6l4.1,22.5c4.3-14.7,1.9-13.2,13.8-17.5l0.1-0.7l-9.7,1.5l-0.6-3.9
	c3.4,0.3,7.3-0.1,10.4-1c0.6-0.1,0.3,1.9,0.4,3.4l2.3-9.2c-0.2,0.1-0.3,0.1-0.6,0.2c-12.4,4.6-30-1.5-40.5-9.7
	c1.1,1.1,2.2,2.2,3.2,3.2c-11.5,1.4-14.4-2.2-19.9-12.2c-8.2,0-20.3-4.1-26.7-11.1l-1.4-1.7c-1.8-2.3-2.9-5-3-7.8l4.1-8.7
	c-10.6,7.6-10.6,8.8-3.6-2.8c-11.6,8.3-9,6.8-2.9-4.4c-12,12.4-5.4,6.6-15.6-2.8c-3.8-3.5,2.5-15.4,4-20c-3.9,5.5-6.3,8.9-9.3,15
	c-11.9-8.6-6.2-12.7-1.3-25.5c-5,5-8.6,8.3-12.6,14.2c-7.1-9.8-6.1-8.5-17-13.8l5.5-9.4l-7.6,6.7c-8.8-15.8-10.6-12.5-1.9-27.4
	c-9.8,6-8.4,6-3.8-4.2c-6.2,3.8-5.5,4.3-3.5-2.6l6.9-13.5c-18.1,18.1-12.5-2-5.1-14.6l5-7.9l-5.6,3.4c-4.5,2.8-4.2,1.4-1.2-2.6
	l5-6.8l-5.3,1.5c-5,1.5-5.2,1-0.3-2.3l7.5-5.1c-0.2,0-0.3,0-0.6,0L69,139c-6.1,2.4-6.5,2.1-1.4-3.2l7.4-7.7
	c5.4-5.6,11.6-8.6,16.7-13.9l11.1-11.6C109,96.2,116.3,91,122.8,85l4.7-4.3c4.5-4.1,5-4,10.7-6.2l8.1-3.1c6.9-2.6,11-4,18.3-5.5
	c6.1-1.2,8.3-1.5,14.6-1.4l26.6,0.6c11.5,0.2,22.8,0.9,34.2,1.7c4.4,0.3,5.4,0.7,6.7,3.2c-3.1,1-6.3,2.1-9.5,3.4
	c-9,3.9-16.4,9.6-23.4,21.1c10.4-11.9,14.2-14.8,24.3-19.2c15.7-6.9,30.7-8.1,47.1-8.9c19.5-1.1,38.5,5.7,56.7,12.9
	c14.1,5.6,14.4,6.2,21,15.9c-5.2-11.3-8.1-13.5-20.3-18.5c-2.2-0.9-4.3-1.8-6.5-2.6c2.4-3.1,3.2-3.5,6.6-4.1l12.8-1.8
	c12.8-1.8,33.2-3.5,46-2l12.7,1.5C425,68.9,443.3,74,453.3,79c13.1,6.4,24.6,12.8,34.9,23.6l18.3,19.3c5,5.2,23.5,22.3,26,29
	c0.7,1.8,0.2,3.5-0.4,5.2c-5.5-5.7-10.3-9.7-16.5-15c5.7,6,10.9,11.3,16.1,17.8c-0.2,2.6-0.3,5.2-0.3,7.8c-0.1,3.6-1,7.2-2,10.6
	c-1.5,5.6-2.5,10.6-3.6,16.3c2.1-5.4,4.1-9.8,5.2-15.6c0.8-3.6,1.3-7.2,1.7-11.1c0.2-2.2,0.4-4.3,1-6.7l0.6-2.5
	c0.6-2.4,1.4-4.7,0.3-7.2c-3-6.8-21.4-25.5-26.6-30.8l-18.3-18.9c-8.6-8.9-23.8-18.1-35.1-23.9c-8.3-4.2-30.4-9.9-39.8-11L402,64.4
	c-12.6-1.4-33.4,0.2-46.7,2l-12.8,1.7c-4.1,0.6-5.1,0.8-8.4,4.9c-15.7-6-30.8-9.7-49-8.6c-12.6,0.7-24.2,1.4-36.1,4.7
	c-2.1-3.4-3-4-8.6-4.2c-11.6-0.4-23.2-0.9-34.7-1.1l-26.6-0.6c-5.4-0.1-9.2,0.6-14.6,1.3c-8.7,1.3-13.8,1.2-21.7,5.2L130.1,76
	c-3.8,1.9-5.8,5.4-9.5,8.3l-18.5,15.1c-5.6,4.6-9.4,10.1-15.2,14.2l-10,7.1c-5.6,4-6.9,7.3-11.4,11.9l-3.2,3.3
	c-3.5,3.6-5.7,8.8-1.5,13c-1.1,4.2-1.2,6.3,3.1,8.7c-2.4,5.7-4,12.8-0.3,18.3c-0.7,6.3-1.2,5.2,2,10.7c-0.1,5.6-1.2,5.6,2.5,9.7
	c-0.1,8.3,5.6,15.4,9.5,22.7c3.6,3.2,7.5,5.4,10.3,9.2c7.1,1.5,5.2,3.6,10.1,8.9l4.4,0.3c1.2,6,1.5,4.6,6.3,8.1
	C109.4,250.2,110.6,248.3,114,252.7z M233,349.1c-6.5,25.3-15.1,50.1-28.2,68.8c0.1,6.3,0.1,12,0.3,16.5c-0.7-4.7-1.3-9.5-2-14.2
	c-5.5,7.4-11.7,13.8-18.9,18.6c-29,20-34.1,8.4-22.3-4.3c9.4-10,25-30.4,35.8-47.7c-1.4-9.4-2.6-18.9-3.5-28.6
	c3.9,5.1,6.2,12.7,7.7,21.3l-2.8,5.6c-7.8,19.6-26.3,43.7-34.4,52.2c-6.4,6.6-1.5,11.3,16.5-1.2c32.9-22.7,48.2-80.9,58.2-125.1
	h-0.1l6.7-30.7l0,0c0.8-2.8,0-4.9-2.2-8.4c-3.9-6-9.2-11.6-11.7-1.1l-0.7,2.8c-2.1-5.4,1.2-13.6,6.3-11.4c3.3,1.4,5.6,4.2,8.8,8.6
	c3.2,4.4,2.5,8.2,0.9,12.2l1.3,10.9l4.4-5.5l-2.4,13.1c3.6,12,5,21.4,5.7,31.4c8.1-6.6,17.3-7.7,27.1-7.5
	c13.3,0.4,30.6,1.1,41.5,9.6c0.4-3.5,0-5.5,1.7-10.1c-5.6-12-16.2-15.2-28.9-16c-15.1-0.9-30.2-1.3-43.2,6.5
	c9.6-12.2,28.2-10.1,43.5-9.8c3.9,0.1,3.8-0.8,7.5,0.1c13.8,3.5,17.1,3.5,22.4,15.9c0.2-0.6,0.6-1.2,0.9-1.9l1.8-2.4
	c-0.7-8.5-0.2-18.5-6-25.5c-2.6-3.2-5.6-6-9.8-7.2c-9.2-2.8-19.2-4.9-28.8-3.9c-9,0.9-14.9,1.5-23.6,7.7c-5,3.5-6.6,7.6-9.2,18.5
	c-1.9-9.9,2-14.6,7.8-20.6c5.8-6.1,15.8-7.6,24.8-8.4c11.9-1.1,20.7-0.1,29.8,4.2c6.1,3,8.4,4,10.6,8.1c2.3,4.2,3.8,7.7,5.1,12.2
	c2.5-3.5,3.5-4.7,5.8-6.1c-0.8-0.8-1.4-1.5-1.7-1.9l5.6-1c4.9-13.9,6.8-9.9,12.2-18.8c1.8-2.9,2.1-6.1,0.6-11.6
	c-1.3-3.5-3-9-4.3-14.8l0,0l0,0c-1.2-5.3-2.2-10.7-2.3-15.2l0.7,2.6c3.4-9.2,6.4-17,8.9-26.6c9.6-14.8,12.4-21.6,14.7-38.7
	c-2.2,4.5-4.5,8.9-6.8,13.3c1.7-10.3-3.9-8.3-9.5-4.3c-12.8,9.3-10.6,17.1-9.7,31.9c-3.6-9.7-0.8-18.3-7.5-18.3
	c-9.2-16.9-14.8-17.2-32.7-23.2c19,1.7,22.9,6.8,34.6,19.3c1.1-2,2-3.8,3.1-5.3l-1.9-1.8c-6.8-6.3-12.1-12.7-20.7-16
	c-12-4.7-24.5-6-37.8-4.2c-7.5,1-15.2,3.4-26.3,8.1c10.5-6.1,17.8-8.5,25.7-9.5c18.1-2.3,28.6-1.8,39.3,3.9
	c8.6,4.5,15.6,11.5,23.8,16.9c0.7-0.8,1.3-1.5,2-2.3c0.4-0.4,1-1,1.4-1.4l-3.9-6.1L335,161.5l11.4,9.2l4.4,5.6
	c1.5-1.3,3-2.2,4.5-3.1c1.1-4.3,2.8-7.3,6.4-11.8c-2.1,5.7-1.7,9.2,5.1,8.1c0.7-0.1,1.3-0.3,2.1-0.6c5.7-10.8,0.9-19.9-6-28.5
	c-5.6-7.1-11.1-13-14.2-27.4c16.9,25.5,15.6,30.3,20.4,0c5.3,6,4.9,6.9,5.5,13.5l3-10.5l0.8,9.6c9-9.5,13-15.1,27.7-19.3l-2,3.9
	l-0.7,6.5c-12.1,3.2-17.4,8.2-22,15.8c-1.1,1.9-2.2,3.9-3.3,6.2c-3.8,7.4-3.2,10.5-2.1,16.3c1.2,6.3,0.7,9.5-0.4,14.1
	c-1.4,6.1-1.8,11.7-2,17.6c-0.2,5.4-1.7,10-3.8,14.6c-0.6,12.4,0,19.9,2.4,35c-3.6-12.1-5.4-17.2-6.1-27.5
	c-3.9,8.2-4.1,12.7-4.7,20.7c-0.6,6.6-0.6,6.6-5.1,6c-6.1-1-0.4,12,0,23.8l-3.8-6.1c0.9,3,2,6.2,3.4,10.3c1.7,4.7,2.3,8.9-1.2,14.1
	l8.4,31.1l-10.9-29.2c-2.9,2.9-7.4,8.1-8.3,12.9l0,0c-1,4.3-0.8,8.5,0.1,12.2l2.3,13.6l-0.7,0.6c0.3,0.1,0.6,0.2,0.9,0.3l0.8,3.6
	c-4.4-0.3-7.1,2.4-8.5,6.3c-2.3,6.2,3.5,1.9,9.8,3.8l1.1,0.3l0.6,2.5c-7.3,0.4-12.2,1.9-20.1,3.5l-2.6,8.5c0.1,14,1,13-4.9,25
	c-0.8,2.5-0.2,4.9-1,7.3c-1.1,3.6-3.1,14.6-3.8,17.6l2.6,12.2l-5.1-9l-2.3,12.5c-0.4-13.1,2-12.5,3.5-21.3l0,0l0,0
	c-2.8-4.2-3.2-3.8-7.7-6.2c-10.7-5.6-14.8-7.6-30-8.5c13.9-2.4,21,0,30.4,5.6c2.5,1.5,5.3,3.2,8.4,5.2c0-1.7,0.6-4.6,1-6.8
	c-9.6-2.8-17.6-7.6-27.4-7.8c-11.4-0.3-20.7,0-32.1,3.5c0.1,1.9,0.1,3.9,0.2,5.7c4.1,1.5,4.7,1.9,10.6,1.3c11.6-1,15.6-0.8,27.1,0.9
	c-9.3,0.1-18,0.2-27.2,1c-6,0.4-6.4,0.7-10.4-0.8c0,1.3,0,2.6,0.1,4c0,1.3,0,2.6,0.1,4c10.6-0.1,20.4,0.3,31.1,0.9
	c-11.1,0.3-20.4,1.5-31-0.3l0.1,5c9.8-1.5,15.1-1.9,25.8-1.5c10.6,0.7,13.2-1.2,21.5,5.6c-7.2-1.7-12-3-19.5-3.3
	c-10.5-0.3-16.5-0.8-27.8,2.8v3.8c11.5,0.7,22.8,0.9,34.3,1c8.9,0.1,7.6-0.9,14.9,4.2c-5-0.7-9.7-1-14.4-1.3
	c-11.7-0.7-22.9-0.6-34.7-2.6c0.1,10.6,0.2,21.1,0.7,31.5c0.3,8.5,0.6,17.4,1.4,25.7c1.4,12.2,3.1,18.4,9.6,30.8
	c6.6,12.5,23.9,13.2,33,3.8c12.8-13.5,12.2-23.1,16.4-41c-0.4,15.4-0.9,30.3-0.6,45.7l-4.7-4.3c-1.3,9.4-4.5,64.7-19,55.3
	l-25.6-26.5c-7.9-5.2-15.1-32.9-16.2-41.8c-3.1-24-2.9-45.2-1.3-70.9c1.7-28,0.1-47.5-2.9-72.7l-4.6-14.8
	c-7.3,10.8-8.8,64.3-11.6,83.1C234.9,386.3,234.7,368.6,233,349.1z M467.3,381.2C508.6,258.7,484.6,276.5,467.3,381.2z"/>
<path class="st9" d="M227.7,70.1c-52.1-4-76.9-0.7-105.7,23.5c32.4-16,45.6-16.5,69.7-6.6L227.7,70.1z M233,97.3
	c37.4-25.7,55.5-24.8,83.7-14c13.7,5.3,30.8,8.8,38.4,21.8l4.7,8.1c-5.5-5.2-26.4-27.5-22.2-7.4c3.2,15.4,8.8,22.8,17.4,39.5
	c-37.4-18-47.5-16.1-89-16.1c19.9-20.6,23.6-39.5-11.6-32.1L233,97.3z M243.2,228.5l2.5,33.8C232.5,250.2,238.7,247.1,243.2,228.5z
	 M339.7,277c17.9-11.4,9.7-15.6,3.6-38.1L339.7,277z M269.9,273.9c23.3-6.4,43.1-5.1,59.6,12.1C321.6,265.6,289.9,256.5,269.9,273.9
	z M413.5,422.9c-49.5-21.7-63-112-67.4-125.9c-1.3-4.3,3.8-14.9,7.1-6.6C359.5,306.7,377.1,394.9,413.5,422.9z M171.5,436.7
	c49.5-28.6,67.6-138,72.1-153.8c1.3-4.9-3.8-16-7.1-6.6C230.2,294.9,207.9,402.5,171.5,436.7z M507.7,132.3
	c-36.6-26-81.4-59.9-128-35.1l-15.9-20.4C422.3,65.5,470.4,87.2,507.7,132.3z"/>
<path class="st2" d="M367.7,49.8h146.7v37.7C456.9,60.4,428.8,58.9,367.7,49.8z"/>
</svg>
