<?xml version="1.0" encoding="utf-8"?>
<!-- Generator: Adobe Illustrator 23.1.1, SVG Export Plug-In . SVG Version: 6.00 Build 0)  -->
<svg version="1.1" id="Слой_1" xmlns="http://www.w3.org/2000/svg" xmlns:xlink="http://www.w3.org/1999/xlink" x="0px" y="0px"
	 viewBox="0 0 595.3 841.9" style="enable-background:new 0 0 595.3 841.9;" xml:space="preserve">
<style type="text/css">
	.st0{fill-rule:evenodd;clip-rule:evenodd;fill:#F7F9F7;}
	.st1{fill-rule:evenodd;clip-rule:evenodd;fill:#AAD576;}
	.st2{fill-rule:evenodd;clip-rule:evenodd;fill:#9CCB8F;}
	.st3{fill-rule:evenodd;clip-rule:evenodd;fill:#81A576;}
	.st4{fill-rule:evenodd;clip-rule:evenodd;fill:#3A3A39;}
	.st5{fill-rule:evenodd;clip-rule:evenodd;fill:#575656;}
	.st6{fill-rule:evenodd;clip-rule:evenodd;}
	.st7{fill:#FAFCFA;}
	.st8{fill-rule:evenodd;clip-rule:evenodd;fill:#FFF7B2;}
</style>
<path class="st0" d="M66.5,458.5c-2.2,60.5-6.1,158.9,0,216.9c14.1,135.1,182.2,82,231.1,166.5c48.9-84.5,217-31.4,231.1-166.5
	c6.1-57.9,2.2-156.4,0-216.9c0-53.8,0-71.4,0-125.1H297.6H66.5C66.5,387.1,66.5,404.7,66.5,458.5"/>
<path class="st1" d="M505.5,467.9c2,55.3,5.5,145.4,0,198.4c-12.9,123.6-163.2,75-207.9,152.3v-462h207.9
	C505.5,405.8,505.5,418.7,505.5,467.9"/>
<path class="st2" d="M89.8,467.9c-2,55.3-5.5,145.4,0,198.4c12.9,123.6,163.2,75,207.9,152.3v-462H89.8
	C89.8,405.8,89.8,418.7,89.8,467.9"/>
<rect x="66.5" class="st0" width="462.2" height="22.6"/>
<path class="st3" d="M350.3,763.4c128-41.1,143.4-38.1,139.4-180.1C467.8,707.1,460.5,702.4,350.3,763.4"/>
<path class="st3" d="M102,500l15,114.1l0.5-94.1L102,500z M199.2,363.5H97v48.3C138.3,371.4,143.2,371.9,199.2,363.5z M231.8,763.4
	C119,725.1,105.4,727.9,108.9,595.5C128.2,710.9,134.6,706.5,231.8,763.4z"/>
<path class="st2" d="M173.2,717.2c0.1,1.3,0.3,2.6,0.5,3.8L173.2,717.2z M156.3,642c15.1,20.5,14.1,49.9,16.9,75.1l14.7-16.8
	c-5.8-14.7-7.4-29.8,0.4-38.6l8.1,26l12.6-21.6c-3.9-6.6-8.4-12.7-15.8-19l-12.7-46.7l-2.5-18.7l-10.6-2.8L152,566.3l-5.3-7.8
	l-21.9-23.1l-9.8-10.7l-13.9-9.4l-11-18.6l1-2.5l-3.3-8.7l-1.6-13.2l4-8.9l-7.5-17.9L95,431.7l6.8-4.5l13.7-15.8l21-15.4l8.7-10.5
	l20.5-9.2l21-3l64.5,2.7l2.6,4.1l4.3-2.2l25.1-2.1l21.1-1l27.1,9l4.2-4.8l24.3-3.4l32.9-1.1l43.7,9.2l29.8,18.5l25.7,25.5l20.7,24.8
	l-1.2,11.9l-7.4,38.1l-3.9,16.6l-12.6,17.4l-11.4,4.2l-25.3,10l-36.2,32.5l-19.6,10.2l-5.3,36.8c-18.3,16.9-19.1,42.5-25.2,67.5
	c-6.5-48.8-40.3,45.1-56,73.6l-28.5,5.6L265.4,749l-3.9-30.7l-7-40.1c-24.1-7.9-23.7-13.6-32.3,3.1v0.1l-0.1,0.1
	c-0.7,1.4-1.5,3-2.4,4.7l-0.6-1l-16.9,21.3l9.2,29.4c-5.8-5.2-12-13.2-17.2-22.2l-20.7,7.2C156.4,691.7,159.6,675.8,156.3,642z"/>
<path class="st1" d="M227.6,665.3c1.9,9.7,3.9,20.9,6.7,34.9c25.4-15.5,18.6-8.1,27.1,24.2l2.6-61.5l-11.4-64.8l-4.1-6.4l-10.9,43.2
	L227.6,665.3z M169,416.9c-55.3,30.9-17.8,29.6-41.2,70.3c-14.6,25.4,44.9,60.1,77,78.2c11.3,6.4,10,14.8-7,24.6
	c11,18.4,17.4,31.5,21.8,44.1l9.7-29.5l1.7-5.3l-1.9,1.7l-15.5-1.8l-13.4-8.2c19.9-2.5,32-4.7,36.1-19.5c0.1-0.5,0.5-1.9,0.7-2.4
	l-1.8-6.1l-0.1-10.4l4.8-31.8h-6.4l-19.3-46.6l-3.5-9.7l7.7-21.4c-4.2-21.7-9-30.7,6.4-47.9C201.7,413,189.9,405.3,169,416.9z
	 M348.7,626.6c-4.1-4-9.3-3.2-15.7,6l-5.5,53.2c8,27.5,8.7,54.2-11.4,75.8c1.9-13,3.7-26.1,5.6-39.1c3.9-27.7,6.1-22.6-6.7-47.3
	l6.1-30.2l7.3-32l-0.4-13.5l8.1-12.2l3.5-0.8c0,1.3,0.1,2.7,0.4,3.9L348.7,626.6z M363.7,671.7c-0.3,1.1-0.6,2.3-1,3.4
	c-0.4-3.2-0.8-6.6-1.4-10.1L363.7,671.7z M384.6,609c-5.5,11.1-9.3,21.7-12.5,32.4l-12.7-35.5l10,7.9h9.8L384.6,609z M388.8,417.3
	c34.1,3.4,47.1,19,51.3,41.5c8.3,43.9-5.6,25.1,29.7,62.6c-55,20.7-34.7,32.3-77.5,53.1c-10.4,5.1-11.3,5.8-20,13.7
	c-13.4-8.4-13.5-7.3-22.2-20.6l2.3-7.5l-7.6-23.8l12.8-28.3l9.9-30.2l0.9-30.3l3-17.3L388.8,417.3z"/>
<path class="st4" d="M194.3,777.6c-69.9-20-114.3-34.2-118.6-119.7C89.6,738.2,134.4,750.2,194.3,777.6"/>
<polygon class="st5" points="294.3,344.3 518.6,343.3 520,444.2 513,348.8 "/>
<path class="st6" d="M336.5,584.1c10.4,41.2,20,104,57.4,122.9c26.3,13.2,30.9,2.8,20.2-6.3c-9.2-7.8-24.8-24.7-34.5-38.4
	c6.6,15.9,24.2,34.8,31.9,41.2c5.8,4.8,1.4,9.3-15,1c-37-18.6-49.4-86.9-58.4-121.8L336.5,584.1z"/>
<path class="st7" d="M497.9,45.1L474,185L450.3,45.1h-30.9v265.4h23.1V120.8l21.2,109.4h21l21.1-109.4v189.8h23V45.1H497.9z
	 M376.6,45.1v156.5c0,4.9-3.4,7.3-9.6,7.3c-5.7,0-9.3-2.5-9.3-7.8v-156h-22v156.8c0,7.1,2.7,13.4,7.5,18.9
	c5.8,6.7,13.8,10.1,23.8,10.1c3.5,0,6.7-0.4,9.6-1.1v51.7c0,1.9-0.8,3.4-2,4.6c-1.5,1.5-3.9,2.4-7.6,2.4c-5.7,0-9.3-2.6-9.3-7.8v-8
	h-22v8.8c0,7.1,2.7,13.3,7.5,18.8c5.9,6.8,13.8,10.2,23.8,10.2c9.9,0,17.7-3,23.4-8.8c5.5-5.7,8.3-12.7,8.3-20.7V45.1H376.6z
	 M314.8,45.1v22.6h-25.7v243.1h-23.4V67.7h-26.2V45.1h26.2h23.4H314.8z M193.3,201.2c0.9-0.9,1.5-1.8,1.9-2.7
	c0.2-0.5,0.3-0.9,0.4-1.2v-0.8V76.3c-0.2-2.1-0.6-3.6-1.5-4.7s-1.9-1.9-2.8-2.4c-1.1-0.4-2.1-0.8-3.3-0.9s-1.9-0.1-2.5-0.1H176v135
	h9.6c1.4,0,2.8-0.1,4.3-0.4C191.3,202.6,192.4,202,193.3,201.2z M185.5,45.1c6.1,0,11.2,1,15.6,3c4.3,1.9,7.8,4.4,10.4,7.5
	c2.6,3,4.5,6.3,5.7,9.8c1.2,3.5,1.8,6.9,1.8,10v121c0,1.2-0.4,3.9-1.3,8.1c-0.8,4.2-3.2,8.5-7,12.8c-1.9,1.9-4.9,3.9-9,5.8
	c-4.2,2-9.6,3-16.1,3H176v84.2h-23.1V45.1H176H185.5z M89.6,279.2c0.5,5.5,3.9,8.2,10.1,8.2c1.1,0,2.3-0.2,3.8-0.5
	c1.4-0.3,2.7-0.9,4-1.8c0.9-1.1,1.3-2.1,1.4-3.3c0.1-1.1,0.1-1.9,0.1-2.2V75.5c-0.1-1.8-0.6-3.1-1.4-4.2c-0.7-1.1-1.7-1.8-2.7-2.2
	c-1.1-0.4-2-0.7-3-0.8c-1-0.1-1.7-0.1-2.2-0.1s-1.3,0-2.5,0.1S95,68.7,94,69.1c-1.1,0.4-2,1.2-2.9,2.2c-0.8,1.1-1.3,2.4-1.5,4.2
	C89.6,75.5,89.6,279.2,89.6,279.2z M99.7,310.5c-5.8,0-10.9-1.1-15.1-3.1c-4.2-2.1-7.7-4.7-10.3-7.8c-2.6-3.1-4.5-6.5-5.8-10
	c-1.2-3.5-1.9-6.8-2-10V75.5c0-3.1,0.6-6.4,1.9-9.9c1.2-3.4,3.1-6.7,5.7-9.8s6-5.7,10.3-7.6c4.2-2,9.4-3,15.4-3c5.8,0,11,1,15.1,3
	c4.2,1.9,7.6,4.5,10.2,7.6c2.5,3.1,4.2,6.4,5.4,9.8c1.2,3.5,1.7,6.8,1.7,9.9v204.2c0,0.5,0,1.6-0.1,3.1c-0.1,1.6-0.4,3.4-0.9,5.2
	c-0.5,1.9-1.4,4.1-2.5,6.5c-1.2,2.5-2.7,4.7-4.9,6.8c-1.9,2.2-4.9,4.3-8.9,6.3C110.9,309.5,105.7,310.5,99.7,310.5z"/>
<path class="st6" d="M345.2,490.2c3-6.7,4.8-7.3,12.4-10.3c-1.3,4.4-4,9-8.9,9.8c-1.4,0.2-1.9,0.8-2,2c-0.4,3.4,0.5,3.5,2.6,6
	C344.9,497.3,343.4,494.2,345.2,490.2 M344.5,500.2c8.1-0.4,10.2-4.5,13.7-12.3c-2.3,11.5-7.6,12.8-9.6,18.6
	c-2.2,6.4-4.3,12.8-6.3,19.3c-1.8-4.6-1.9-5.4-1.8-9.4c0.2-7.9,4.6-4.9,4.2-12.2L344.5,500.2z M368.3,598.8l2.2-1.9
	c0.4,0.2,0.9,0.4,1.3,0.6c5.4,2.2,7.5-0.8,12-5.4c1.9,2.8,1.2,3.3,3.5,2.1c2.4-1.3,4.4-2.3,6.3-3.1l16.1-8.1
	c0.5-0.9,1.1-2.2,1.9-3.9c1.3,1.2,2.2,1.8,3,2h0.1l5-4l0.3-0.3c3.5-3.6,7.5-5.7,11.2-9l1.1-0.9l7.5-7.5c0.6-1.4,0.6-3,0.9-6.5
	c0.5,0.3,0.9,0.7,1.3,1c0.8,0.7,1.5,1.2,2.2,1l4.3-4.4c0.1-0.3,0.2-0.6,0.2-0.9c0.5-2.3,0.6-3.5,3.4-3.2h0.4l4.1-4.1l-0.6,4.4
	c2.1,0.1,4.1-0.2,5.6-1.6c2.3-2,3.8-3.4,7.5-3.7c4.3-0.3,7.7-0.7,10.4-4.9l2.4-0.6c3.5-0.9,2.8-0.6,4.9-3.6l5-7.2
	c2.5-3.6,6.8-8,7.2-10.8c1.1-9.2,4.8-8.7,5.6-14.4l0.8-5.8l-0.3,6.6c-0.5,9.2-4,7.2-4.5,14.4c-0.6,10.1-2.7,4.8-6.8,11.5l-4.7,7.6
	c-2.7,4.4-1.9,3.6-6.6,5.5c-9.5,3.8-13.2,3.9-22.2,9c-1.6,0.9-3.1,1.3-4.6,1.5l-7,51.7c-6.1,0.4-32.2-41.4-50.6,27.6
	c-5.6,21.1-16.1,34.9-13.3,1.6l8.1-36.6l-5,2.2C381.8,599.4,373.5,603.6,368.3,598.8z M225.4,472.8c-0.4-5.8-0.5-6.7-2.6-12.1
	c6.1,2.6,7.8,3.2,14.4,4.2c1.2,5.3,1.4,5.6,4.3,10.2C233.6,470.5,232.6,467,225.4,472.8z M226.7,477.1l2-1.9c5,2.5,8.2,3.8,12.5,6.6
	c4.7,3.1,0.6,7.5-1.8,11.3c0.7-2.8,3.2-7.5,0.7-9.5l-1.8-1.4c-3.3,4.1-6.9,0.7-9.1-3L226.7,477.1z M247.1,487.2
	c-0.9,0-0.9,1.3-0.5,2c0.6,1,1.2-0.5,1-1.4C247.5,487.6,247.4,487.2,247.1,487.2z M221.1,476.7c-0.2-0.2-1.1-1.1-1.1-0.4
	c0,0.1,1.7,3,1.9,3.3c1,1.1,1.1-0.1,0.5-1C221.7,477.5,222.1,477.5,221.1,476.7z M280,469.9c-14.9,6-19.4,6.7-26,21.7
	C264.1,480.5,267.8,477.9,280,469.9z M272.3,479.5c-9.7,6.3-12,8.1-15.7,19.2C260.8,489.2,269.7,484,272.3,479.5z M274.4,487
	c-9.9,5.8-12.5,9.1-18.9,24.1c8.2-12,11.4-17.1,19.5-21.9c10.6-6.4,14.6-6.4,24-6.2c9.9,0.3,14.4,0.6,23.1,3.6
	c5.7,1.9,9.8,8.5,11,14.1c1.9-9.7-2-12.5-10.4-17c-7.6-4.1-10.9-3.8-23.7-3.6C287.6,480.3,286.4,480,274.4,487z M256.5,514.6
	l5.9-8.4c7.4-9.1,10.7-12.2,18.7-15.1c11.2-3.9,22.6-2.1,33.4,2.1c-11.5-2.2-22-5-33.1-0.3C269.8,497.9,267.4,502.1,256.5,514.6z
	 M331.6,509.2c-2.9-7.3-3.3-9.7-9-15.5c-6.1-6.2-10.5-7.5-22-9.1c11.3,0.3,17.3,0.7,23.5,6.8C330.4,497.7,329.9,500.9,331.6,509.2z
	 M297.4,500.5c-4.9,1.1-8.8,2.3-14.3,4.4c-11.5,4.4-16.6,6.1-26.6,18.9c11.4-10.7,16-12.8,27.1-17.6c11-4.7,12.5-3.9,21.8,3.2
	l-5.3-6.2c4.4-2.6,8.2-5.1,12.5-4.9c4.5,0.2,5.4,1.5,6.5,4.4c1.2,3,8.7,10.6,12,16.5c-2.3-11.5-3.7-8.2-8-16.8
	c-1.2-2.3-2.2-3.7-5.6-5.1c-3.2-1.2-5.7-1.9-9.6-0.2C304.5,498.7,302,499.4,297.4,500.5z M260.8,514.6c6.5-9.1,7.8-9.7,16.9-16.2
	C271.7,503.8,266.3,508.9,260.8,514.6z M269.4,509.1c9.7-10.7,14.8-11.6,28.4-15.9C286.1,498.3,279.4,500.9,269.4,509.1z
	 M313.4,510.1c10.7,2.5,11.6,3.4,16.5,13.2C323.3,515.4,322.7,514.2,313.4,510.1z M259.8,535.3c9.5-9.4,13.3-12.7,23.1-15
	c8.7-2,17.6-1.3,26.2,0.8c12.7,3.1,19.7,5.9,26.8,16.8c-5.1-5.4-7.1-6.4-13.5-10.2c4.4,5.9,5.9,9.1,9.1,15.8
	c-5.7-8.8-11.4-18.9-22.7-20.8c-9-1.6-16.1-2.9-25.8-0.6C272.6,524.4,270.5,527,259.8,535.3z M263.3,540.1
	c12.1-12.4,16.6-14.9,34.3-14.5C280.2,528.3,277.8,529.7,263.3,540.1z M278,536.5c8.3-5.3,10.6-6.1,20-9
	C291.3,530.7,284.8,533.6,278,536.5z M299,530.3c18.3-3.4,23,1.2,30.6,16.9C318.6,532.7,317,532.4,299,530.3z M328.5,559.4
	c-4.4-6.9-4-8.8-11.6-12.1c-8.7-3.7-16.7-5.4-27.2-4.4c-8.9,0.8-14,1.1-21.9,7.9c-7.4,6.3-11,13.7-10.7,24.9
	c3.6-12.5,5.5-17.5,11.9-22.7c8.7-7,12.6-7.5,20.9-8c10.8-0.7,17.9,0.9,26.6,4.7C322.7,552.5,323.8,554.5,328.5,559.4z M329.9,568.6
	c-7.5-11.5-10.7-14.1-24.2-16.5C318.4,556.6,321.2,558.4,329.9,568.6z M281.9,551.4c-8.5,2-8.5,1.8-15.6,6.8l7.5-3.7L281.9,551.4z
	 M264.9,587.9c6-5,9.3-7.1,16.2-10.9l-7.9,6.8c8.4,0.5,12.1,0.2,20.1,3C281.8,586.3,276.1,585.5,264.9,587.9z M262.4,635.9
	c-0.4-5.8-0.7-10.9-1-15.8c7.7-5.2,15.6-5.7,24.1-5.3c14.8,0.8,25,1.4,37.1,9.3c-0.1,0.5-0.3,1-0.5,1.5c-0.5,2-0.8,4-1.1,6
	c-6.6-3.7-11.2-4.6-19.1-6.1c-11.9-2.3-22.8-2.9-36.4-1.2c-3.2,0.4-2.6,2.2,0,2c14.3-0.9,24-0.2,36.1,2c8.6,1.6,11.8,2.6,19.2,6.1
	c0.4,3.8,1.1,4.1-0.6,6.8l-2.5-1.7c-5.2-3.7-11.9-1.8-19.3-3.7C285.4,632.7,273.7,629,262.4,635.9z M263.6,655.8c0-1-0.1-2-0.1-3.1
	c6.1-1.4,12-2.3,18.2-3.4c-8.3,0-11.7-0.5-18.3,1.4c-0.2-4-0.5-8.1-0.8-12.2c-0.1-0.6-0.1-1.3-0.1-1.9c13.5-3.6,21.8-1,34.9,2.1
	c8.5,2,14.5,2.4,22.6,5.7l0.2,2.4c-0.9,1.1-1,2.8-1.4,5.2c-9.1-6.5-15.1-6-27.6-7.7c-1.6-0.2-2.2-0.5-3.8-0.4l-22.6,1.5
	c5.1,1.4,15.2,1.6,22.3,2.2c3,0.2,5,0.8,7.9,1.4c6.2,1.4,11.4,2.1,17.2,4.8l5.4,2.5c-0.3,1-0.1,1.3,0,2.6c-8.5-2.8-15.2-5-24.7-6
	C283,651.8,273.3,652.4,263.6,655.8z M277.3,669.4c6.5,0.4,12.3,0.6,18.6,0.5c5.8,0,10.2,2.4,15.7,4.4c-7-5.1-6.8-6.7-15.5-6.6
	C289.7,667.8,284.5,668.5,277.3,669.4z M302.6,700.8c-5.2-2.5-6.5-2.3-13.8-3c9.3-0.5,11.1-0.2,20.1,2
	C305.4,701.9,306.1,702.5,302.6,700.8z M266.6,700.7c11.9,4.2,16,4.5,28.6,4.3c7.2-0.1,2.6-3.8-0.4-4.1c-6.2-0.6-12.2-1-18.4-1.4
	c5.9,2,9.6,3.1,15.8,4.2C281.7,704.2,276.6,702,266.6,700.7z M267.4,706.1c15.6,6.1,21.7,4.4,37.9,1.8
	C291.3,708.3,281.3,708.6,267.4,706.1z M268.8,716.3c9.4,1.7,14.1-1.1,21.4-0.5c10.6,0.9,8.5,1.7,17.5-3.9c-8.9,2.6-8.9,3.2-18.1,2
	C282.3,712.9,276.5,715.6,268.8,716.3z M266.7,719.1c13.4,4.8,24.2,4.7,38,6.5C295.4,719.9,278,720.7,266.7,719.1z M268.7,724.6
	c8.4,3.2,8.1,3,17.1,2.7C280.1,728.6,272.2,730.9,268.7,724.6z M286,729.3c8.9,2,10.1,1.3,19.1,0C298.5,729.5,292.6,729.7,286,729.3
	z M278.2,739.2c15.2,2.5,14.1,2.3,29-1.9C296.4,738.8,289.1,739.2,278.2,739.2z M299.8,753.8H286c-10.2,0-3.7-1.5,4.7-1.3
	c-6.8-1.4-12.2-2.1-18.6-4.8C278.2,760.2,288.2,756.6,299.8,753.8z M274.1,744.4c12.6,6.1,14.3,3.8,28.3,2.5
	C290.4,747,285.8,747.4,274.1,744.4z M312.4,699.6c-0.3,4.5-0.6,9-1.1,13.5c-1.2,10.7-2.7,20.4,0.3,31.2c0.8,3,3.1,1.8,1.7-2.1
	c-2.8-7.8,5.8,1.5,0.6-5.8c-6.7-9.3,7.1,2.3,0.6-4.5c-8.5-8.8,5.5,2.3,0.2-5.1c-4.7-6.5,5.9-2.9,1-7.4c-5.2-4.8,6.5,0.3,0.7-5
	c-5.3-4.8,4.1-2.1,6.2-10.2l0.4-1.7c1.8-6.8,0-5.5-5-10.5l-4.4-4.4c-0.5,3.2-0.8,6.1-1.1,9.2c-15.5-5.4-24-4.4-40.5-3.8
	c-4.1,0.2-4.4,2.5,0,2.1c13.6-1.3,23-0.5,35.9,2.5c1.8,0.4,3,0.3,4.6,0C312.5,698.3,312.4,699,312.4,699.6z M205.3,420.1
	c2.2-5.8,3.6-8.6,7.4-14.4c-7.2,5.8-6.9,5.1-9.3,12.2c-1.2-1.3-2.4-2.5-3.8-3.6c-6.1-5-11.4-6.4-17.9-13.3c1.7,4.4,5.7,9.4,8.1,12.9
	c1,1.5,1.7,2.7,1.8,3.3l-5.7,3.7c4.7-0.7,7.9-2.4,3.9,1.6c9.9-2.7,11-1.8,15.2,3.9c4.4,5.9,4.7,7.2,7.1,14.1
	C212.3,432.9,209.8,425.9,205.3,420.1z M209.8,418.8l5.9-9.8l9-13.9C215.4,405.4,215,406,209.8,418.8z M111.8,509.9
	c9.6-5,13.7-7.9,22.1-14.6C125.3,500.3,119.4,503.4,111.8,509.9z M127.1,510c8.1-10,14.6-17.4,23.8-26.4
	C143,493.1,135.9,501.3,127.1,510z M102.5,502.4l10.5-23.3C109.9,492.3,111.2,492.1,102.5,502.4z M101,472.6l14.1-10
	C109.9,467.6,108.1,471.2,101,472.6z M116.3,473l15.4-14.6C126.9,465.2,123.9,474.1,116.3,473z M169.9,545.2l20.7-25.5
	c-1.7,14-15.8,14.3-4.3,16.8C179.1,539.5,176.2,540.9,169.9,545.2z M225,512.4l-0.6,6.7l-10.6,15.2l13-11.4l1.1-4.5l5.1,11l-0.2,3.1
	l-8.6,15.6l8.7-11.7l-0.1,3.3c-6.4,10.9-7.2,11-9.1,23.5c2.7-9.6,3.5-11.1,8.9-19.5c-0.4,10.2-0.3,18.3,3.7,27.7l1.6-5.7
	c-3.4-11.9-2.1-16.6,2.3-27.8l5.8-19.1l2-12.5l-1-12.3l-1.6,9.4c-3.8-1-10.2-10.4-12.8-13.6l3.5,7.7c-4.4-3-5.2-4.6-8.4-8.8
	c4,8.5,5,10.5,6.5,19.8c-3-5.8-6.1-11.2-9.4-16.9l7.2,18.7l1.3,10.5l-5.7-14.6l-5.9-19l-4.5-10.3c-1.3-3-1.6-3.4-3.6-5.6
	c-1-10.1,1.3-18.3,4.2-27.5c2.8-9,0.6-17.4-0.6-26.8c-0.2,8.9,0.7,18.8-2.1,27.3l-2.3,6.9l-1.7-8l0.3,9.6l-0.7,7.9
	c-0.5,4.9,0.1,11.6,2.3,15.9l1.7,3.4l0.5,2.7l3.7,12.3l-2,13.8l4.2-6.3l2,6.5L225,512.4z M407.2,537.3c9.7,8,10.4,9.6,17.1,20.2
	C418.2,550.7,412.8,544.5,407.2,537.3z M396.8,537.1c12.6,11.4,11.1,9.5,16.5,25.6C407.3,550.6,405.6,547.3,396.8,537.1z
	 M408.3,517.1l23.9,29.1c-4.8-1.7-3.9-1.1-6.7-5.3c-0.9-1.3-1.8-2.6-2.6-3.9c-4.4-3.3-4.8-3.2-7.5-8L408.3,517.1z M470.3,531.1
	l-14.9-7.8l-13-6.6C454.4,525.1,456.2,527,470.3,531.1z M455.1,535c-8.1-7.2-14.3-14.1-21.7-22.2c7.4,10.3,10.7,15,20.1,23.5
	C455.9,538.5,460.1,539.5,455.1,535z M497.7,462.9c-9.1-7.1-7.4-6.9-18.9-8.5c9,3.5,10.2,3.8,17.6,9.9
	C498.6,466.1,500.8,465.2,497.7,462.9z M494.6,456l7.1,4.9l-7.1-3.7C492.5,456.1,490.5,453.2,494.6,456z M478.9,463.6
	c3.9,2.3,7.8,5.2,12.2,6.3c7.5,1.9,6.2,1.5,11.5,7.1c-5.3-3.5-6-4.7-12.3-6C483.3,469.7,483.9,468.7,478.9,463.6z M462.8,469.7
	c7.2,3.2,13.2,5.4,20.7,7.9c7.1,2.4,10.9,4.9,17.4,8.6l0.1,6.3c-6.9-6.5-8.8-9.9-17.8-12.8C472.7,476.5,471.5,476.4,462.8,469.7z
	 M462.1,480.3c6.6,4.7,10,7.7,15.7,13.5C470.6,488.8,467,487.5,462.1,480.3z M480.9,493.1c5.5,4.4,9.5,7.9,14.2,12.6
	c2.6,2.6,4.9,9.3-0.4,3C490.1,503.3,485.7,498.3,480.9,493.1z M356.2,553.3l5.9,12.5C360.6,558.3,361.2,559.1,356.2,553.3z
	 M155.2,528.5c9.8-9.3,10.9-10.3,17.2-22.2C167.5,510.3,160,522.5,155.2,528.5z M363.6,614c8.8,4.7,17.6,4.3,22.8-8.6
	c-5.9,10.7-15.7,8.3-25,1.5L363.6,614z M361.5,665.5c0.2,9.1-0.2,18.3-0.7,27.3c1-9.3,1.8-16.2,2.1-23.2L361.5,665.5z M356.5,651.1
	c-9-2-17.2,0.7-24.8,6.7c9.1-3.4,17.2-7.7,25.7-4.3L356.5,651.1z M357,624.9c0.2,2.1,0.4,4.2,0.6,6.3l2.8-2.5
	c-0.1-1.1-0.2-2.3-0.3-3.4L357,624.9z M131.9,545.3c-3,23.3,8.6,25.1,14.4,53.7l3.7,18.4c33-2.9,16.5,29.4,33.9,15.6l-5-36.2
	l6.5,21.9l5.7,18.6l-7.3-27.1l-3.2-15.2l-1.9-9.6c3,2.3,4.9,4.1,6.6,5.3c4.6,14.5,8.2,20.3,17.9,32.1c-3.5-12.9-4.5-15.9-4.2-27.6
	l1.6,8.8l0.4-10.2l1.5,0.6c3.6,2.8,7.1,4.7,10.3,6l3.7,20.4c3.9-13.3,1.7-12,12.5-15.9l0.1-0.6l-8.8,1.4l-0.5-3.5
	c3.1,0.3,6.6-0.1,9.4-0.9c0.5-0.1,0.3,1.7,0.4,3.1l2.1-8.3c-0.2,0.1-0.3,0.1-0.5,0.2c-11.2,4.2-27.2-1.4-36.7-8.8c1,1,2,2,2.9,2.9
	c-10.4,1.3-13.1-2-18-11.1c-7.4,0-18.4-3.7-24.2-10.1l-1.3-1.5c-1.6-2.1-2.6-4.5-2.7-7.1l3.7-7.9c-9.6,6.9-9.6,8-3.3-2.5
	c-10.5,7.5-8.2,6.2-2.6-4c-10.9,11.2-4.9,6-14.1-2.5c-3.4-3.2,2.3-14,3.6-18.1c-3.5,5-5.7,8.1-8.4,13.6c-10.8-7.8-5.6-11.5-1.2-23.1
	c-4.5,4.5-7.8,7.5-11.4,12.9c-6.4-8.9-5.5-7.7-15.4-12.5l5-8.5l-6.9,6.1c-8-14.3-9.6-11.3-1.7-24.8c-8.9,5.4-7.6,5.4-3.4-3.8
	c-5.6,3.4-5,3.9-3.2-2.4l6.3-12.2c-16.4,16.4-11.3-1.8-4.6-13.2l4.5-7.2l-5.1,3.1c-4.1,2.5-3.8,1.3-1.1-2.4l4.5-6.2l-4.8,1.4
	c-4.5,1.4-4.7,0.9-0.3-2.1l6.8-4.6c-0.2,0-0.3,0-0.5,0l-6.5,2.5c-5.5,2.2-5.9,1.9-1.3-2.9l6.7-7c4.9-5.1,10.5-7.8,15.1-12.6
	l10.1-10.5c5.6-5.8,12.3-10.5,18.2-16l4.3-3.9c4.1-3.7,4.5-3.6,9.7-5.6l7.3-2.8c6.3-2.4,10-3.6,16.6-5c5.5-1.1,7.5-1.4,13.2-1.3
	l24.1,0.5c10.4,0.2,20.7,0.8,31,1.5c4,0.3,4.9,0.6,6.1,2.9c-2.8,0.9-5.7,1.9-8.6,3.1c-8.2,3.5-14.9,8.7-21.2,19.1
	c9.4-10.8,12.9-13.4,22-17.4c14.2-6.3,27.8-7.3,42.7-8.1c17.7-1,34.9,5.2,51.4,11.7c12.8,5.1,13.1,5.6,19,14.4
	c-4.7-10.2-7.3-12.2-18.4-16.8c-2-0.8-3.9-1.6-5.9-2.4c2.2-2.8,2.9-3.2,6-3.7l11.6-1.6c11.6-1.6,30.1-3.2,41.7-1.8l11.5,1.4
	c9.8,1.2,26.4,5.9,35.5,10.4c11.9,5.8,22.3,11.6,31.6,21.4l16.6,17.5c4.5,4.7,21.3,20.2,23.6,26.3c0.6,1.6,0.2,3.2-0.4,4.7
	c-5-5.2-9.3-8.8-15-13.6c5.2,5.4,9.9,10.2,14.6,16.1c-0.2,2.4-0.3,4.7-0.3,7.1c-0.1,3.3-0.9,6.5-1.8,9.6c-1.4,5.1-2.3,9.6-3.3,14.8
	c1.9-4.9,3.7-8.9,4.7-14.1c0.7-3.3,1.2-6.5,1.5-10.1c0.2-2,0.4-3.9,0.9-6.1l0.5-2.3c0.5-2.2,1.3-4.3,0.3-6.5
	c-2.7-6.2-19.4-23.1-24.1-27.9l-16.6-17.1c-7.8-8.1-21.6-16.4-31.8-21.7c-7.5-3.8-27.6-9-36.1-10l-11.4-1.3
	c-11.4-1.3-30.3,0.2-42.3,1.8l-11.6,1.5c-3.7,0.5-4.6,0.7-7.6,4.4c-14.2-5.4-27.9-8.8-44.4-7.8c-11.4,0.6-21.9,1.3-32.7,4.3
	c-1.9-3.1-2.7-3.6-7.8-3.8c-10.5-0.4-21-0.8-31.5-1l-24.1-0.5c-4.9-0.1-8.3,0.5-13.2,1.2c-7.9,1.2-12.5,1.1-19.7,4.7l-11.6,5.7
	c-3.4,1.7-5.3,4.9-8.6,7.5l-16.8,13.7c-5.1,4.2-8.5,9.2-13.8,12.9l-9.1,6.4c-5.1,3.6-6.3,6.6-10.3,10.8l-2.9,3
	c-3.2,3.3-5.2,8-1.4,11.8c-1,3.8-1.1,5.7,2.8,7.9c-2.2,5.2-3.6,11.6-0.3,16.6c-0.6,5.7-1.1,4.7,1.8,9.7c-0.1,5.1-1.1,5.1,2.3,8.8
	c-0.1,7.5,5.1,14,8.6,20.6c3.3,2.9,6.8,4.9,9.3,8.3c6.4,1.4,4.7,3.3,9.2,8.1l4,0.3c1.1,5.4,1.4,4.2,5.7,7.3
	C127.7,543,128.8,541.3,131.9,545.3z M239.8,632.7c-5.9,22.9-13.7,45.4-25.6,62.4c0.1,5.7,0.1,10.9,0.3,15
	c-0.6-4.3-1.2-8.6-1.8-12.9c-5,6.7-10.6,12.5-17.1,16.9c-26.3,18.1-30.9,7.6-20.2-3.9c8.5-9.1,22.7-27.6,32.5-43.2
	c-1.3-8.5-2.4-17.1-3.2-25.9c3.5,4.6,5.6,11.5,7,19.3l-2.5,5.1c-7.1,17.8-23.8,39.6-31.2,47.3c-5.8,6-1.4,10.2,15-1.1
	c29.8-20.6,43.7-73.3,52.8-113.4h-0.1l6.1-27.8l0,0c0.7-2.5,0-4.4-2-7.6c-3.5-5.4-8.3-10.5-10.6-1l-0.6,2.5
	c-1.9-4.9,1.1-12.3,5.7-10.3c3,1.3,5.1,3.8,8,7.8s2.3,7.4,0.8,11.1l1.2,9.9l4-5l-2.2,11.9c3.3,10.9,4.5,19.4,5.2,28.5
	c7.3-6,15.7-7,24.6-6.8c12.1,0.4,27.7,1,37.6,8.7c0.4-3.2,0-5,1.5-9.2c-5.1-10.9-14.7-13.8-26.2-14.5c-13.7-0.8-27.4-1.2-39.2,5.9
	c8.7-11.1,25.6-9.2,39.4-8.9c3.5,0.1,3.4-0.7,6.8,0.1c12.5,3.2,15.5,3.2,20.3,14.4c0.2-0.5,0.5-1.1,0.8-1.7l1.6-2.2
	c-0.6-7.7-0.2-16.8-5.4-23.1c-2.4-2.9-5.1-5.4-8.9-6.5c-8.3-2.5-17.4-4.4-26.1-3.5c-8.2,0.8-13.5,1.4-21.4,7
	c-4.5,3.2-6,6.9-8.3,16.8c-1.7-9,1.8-13.2,7.1-18.7c5.3-5.5,14.3-6.9,22.5-7.6c10.8-1,18.8-0.1,27,3.8c5.5,2.7,7.6,3.6,9.6,7.3
	c2.1,3.8,3.4,7,4.6,11.1c2.3-3.2,3.2-4.3,5.3-5.5c-0.7-0.7-1.3-1.4-1.5-1.7l5.1-0.9c4.4-12.6,6.2-9,11.1-17
	c1.6-2.6,1.9-5.5,0.5-10.5c-1.2-3.2-2.7-8.2-3.9-13.4l0,0l0,0c-1.1-4.8-2-9.7-2.1-13.8l0.6,2.4c3.1-8.3,5.8-15.4,8.1-24.1
	c8.7-13.4,11.2-19.6,13.3-35.1c-2,4.1-4.1,8.1-6.2,12.1c1.5-9.3-3.5-7.5-8.6-3.9c-11.6,8.4-9.6,15.5-8.8,28.9
	c-3.3-8.8-0.7-16.6-6.8-16.6c-8.3-15.3-13.4-15.6-29.6-21c17.2,1.5,20.8,6.2,31.4,17.5c1-1.8,1.8-3.4,2.8-4.8l-1.7-1.6
	c-6.2-5.7-11-11.5-18.8-14.5c-10.9-4.3-22.2-5.4-34.3-3.8c-6.8,0.9-13.8,3.1-23.8,7.3c9.5-5.5,16.1-7.7,23.3-8.6
	c16.4-2.1,25.9-1.6,35.6,3.5c7.8,4.1,14.1,10.4,21.6,15.3c0.6-0.7,1.2-1.4,1.8-2.1c0.4-0.4,0.9-0.9,1.3-1.3l-3.5-5.5l-9.2-9.4
	l10.3,8.3l4,5.1c1.4-1.2,2.7-2,4.1-2.8c1-3.9,2.5-6.6,5.8-10.7c-1.9,5.2-1.5,8.3,4.6,7.3c0.6-0.1,1.2-0.3,1.9-0.5
	c5.2-9.8,0.8-18-5.4-25.8c-5.1-6.4-10.1-11.8-12.9-24.8c15.3,23.1,14.1,27.5,18.5,0c4.8,5.4,4.4,6.3,5,12.2l2.7-9.5l0.7,8.7
	c8.2-8.6,11.8-13.7,25.1-17.5l-1.8,3.5l-0.6,5.9c-11,2.9-15.8,7.4-19.9,14.3c-1,1.7-2,3.5-3,5.6c-3.4,6.7-2.9,9.5-1.9,14.8
	c1.1,5.7,0.6,8.6-0.4,12.8c-1.3,5.5-1.6,10.6-1.8,16c-0.2,4.9-1.5,9.1-3.4,13.2c-0.5,11.2,0,18,2.2,31.7c-3.3-11-4.9-15.6-5.5-24.9
	c-3.5,7.4-3.7,11.5-4.3,18.8c-0.5,6-0.5,6-4.6,5.4c-5.5-0.9-0.4,10.9,0,21.6l-3.4-5.5c0.8,2.7,1.8,5.6,3.1,9.3
	c1.5,4.3,2.1,8.1-1.1,12.8l7.6,28.2l-9.9-26.5c-2.6,2.6-6.7,7.3-7.5,11.7l0,0c-0.9,3.9-0.7,7.7,0.1,11.1l2.1,12.3l-0.6,0.5
	c0.3,0.1,0.5,0.2,0.8,0.3l0.7,3.3c-4-0.3-6.4,2.2-7.7,5.7c-2.1,5.6,3.2,1.7,8.9,3.4l1,0.3l0.5,2.3c-6.6,0.4-11.1,1.7-18.2,3.2
	l-2.4,7.7c0.1,12.7,0.9,11.8-4.4,22.7c-0.7,2.3-0.2,4.4-0.9,6.6c-1,3.3-2.8,13.2-3.4,16l2.4,11.1l-4.6-8.2l-2.1,11.3
	c-0.4-11.9,1.8-11.3,3.2-19.3l0,0l0,0c-2.5-3.8-2.9-3.4-7-5.6c-9.7-5.1-13.4-6.9-27.2-7.7c12.6-2.2,19,0,27.6,5.1
	c2.3,1.4,4.8,2.9,7.6,4.7c0-1.5,0.5-4.2,0.9-6.2c-8.7-2.5-16-6.9-24.8-7.1c-10.3-0.3-18.8,0-29.1,3.2c0.1,1.7,0.1,3.5,0.2,5.2
	c3.7,1.4,4.3,1.7,9.6,1.2c10.5-0.9,14.1-0.7,24.6,0.8c-8.4,0.1-16.3,0.2-24.7,0.9c-5.4,0.4-5.8,0.6-9.4-0.7c0,1.2,0,2.4,0.1,3.6
	c0,1.2,0,2.4,0.1,3.6c9.6-0.1,18.5,0.3,28.2,0.8c-10.1,0.3-18.5,1.4-28.1-0.3l0.1,4.5c8.9-1.4,13.7-1.7,23.4-1.4
	c9.6,0.6,12-1.1,19.5,5.1c-6.5-1.5-10.9-2.7-17.7-3c-9.5-0.3-15-0.7-25.2,2.5v3.4c10.4,0.6,20.7,0.8,31.1,0.9
	c8.1,0.1,6.9-0.8,13.5,3.8c-4.5-0.6-8.8-0.9-13.1-1.2c-10.6-0.6-20.8-0.5-31.5-2.4c0.1,9.6,0.2,19.1,0.6,28.6
	c0.3,7.7,0.5,15.8,1.3,23.3c1.3,11.1,2.8,16.7,8.7,27.9c6,11.3,21.7,12,29.9,3.4c11.6-12.2,11.1-20.9,14.9-37.2
	c-0.4,14-0.8,27.5-0.5,41.4l-4.3-3.9c-1.2,8.5-4.1,58.7-17.2,50.1l-23.2-24c-7.2-4.7-13.7-29.8-14.7-37.9c-2.8-21.8-2.6-41-1.2-64.3
	c1.5-25.4,0.1-43.1-2.6-65.9l-4.2-13.4c-6.6,9.8-8,58.3-10.5,75.3C241.5,666.4,241.3,650.3,239.8,632.7z M452.2,661.8
	C489.6,550.7,467.9,566.8,452.2,661.8z"/>
<path class="st8" d="M235,379.7c-47.2-3.6-69.7-0.6-95.8,21.3c29.4-14.5,41.3-15,63.2-6L235,379.7z M239.8,404.4
	c33.9-23.3,50.3-22.5,75.9-12.7c12.4,4.8,27.9,8,34.8,19.8l4.3,7.3c-5-4.7-23.9-24.9-20.1-6.7c2.9,14,8,20.7,15.8,35.8
	c-33.9-16.3-43.1-14.6-80.7-14.6c18-18.7,21.4-35.8-10.5-29.1L239.8,404.4z M249,523.3l2.3,30.6C239.3,543,244.9,540.2,249,523.3z
	 M336.5,567.3c16.2-10.3,8.8-14.1,3.3-34.5L336.5,567.3z M273.2,564.5c21.1-5.8,39.1-4.6,54,11C320.1,557,291.3,548.7,273.2,564.5z
	 M403.4,699.6c-44.9-19.7-57.1-101.5-61.1-114.1c-1.2-3.9,3.4-13.5,6.4-6C354.4,594.2,370.4,674.2,403.4,699.6z M184,712.1
	c44.9-25.9,61.3-125.1,65.4-139.4c1.2-4.4-3.4-14.5-6.4-6C237.2,583.5,217,681.1,184,712.1z M488.8,436.1
	c-33.2-23.6-73.8-54.3-116-31.8l-14.4-18.5C411.4,375.6,455,395.2,488.8,436.1z M361.7,362h133v34.2
	C442.6,371.6,417.1,370.3,361.7,362z"/>
</svg>
