<?xml version="1.0" encoding="utf-8"?>
<svg version="1.1" id="Layer_1" xmlns="http://www.w3.org/2000/svg" xmlns:xlink="http://www.w3.org/1999/xlink" x="0px" y="0px" viewBox="0 0 166.6 350.9" style="enable-background:new 0 0 166.6 350.9;" xml:space="preserve">
	<style type="text/css">
		.st0{fill:red;}
		.st1{fill:none;stroke:rgba(0, 0, 0, 0.03);stroke-width:0.5;}
		.st2{fill:none;stroke:rgba(0, 0, 0, 0.03);stroke-width:0.5;stroke-linecap:round;stroke-linejoin:round;stroke-miterlimit:2.613;}
		.st3{fill-rule:evenodd;clip-rule:evenodd;fill:transparent;}
	</style>
	<path class="st0" d="M95.6,6.5h1.9H95.6z" />
	<polyline class="st1" points="95.6,6.5 97.5,6.5 95.6,6.5 " />
	<line class="st2" x1="95.6" y1="6.5" x2="97.5" y2="6.5" />
	<g>
		<path class="st3" d="M93.7,12.4c1.9,0.3,6.2,3.1,7.2,0.9L93.7,12.4" />
		<path class="st1" d="M93.7,12.4c1.9,0.3,6.2,3.1,7.2,0.9L93.7,12.4" />
		<path class="st2" d="M93.7,12.4c1.9,0.3,6.2,3.1,7.2,0.9" />
		<path class="st3" d="M101.5,9.3c0.6,0.9-1.9,3.4-2.5,2.2L101.5,9.3" />
		<path class="st1" d="M101.5,9.3c0.6,0.9-1.9,3.4-2.5,2.2L101.5,9.3" />
		<path class="st2" d="M101.5,9.3c0.6,0.9-1.9,3.4-2.5,2.2" />
		<path class="st3" d="M95,14.6c0.9,3.1,6.9-0.9,8.7-1.6L95,14.6" />
		<path class="st1" d="M95,14.6c0.9,3.1,6.9-0.9,8.7-1.6L95,14.6" />
		<path class="st2" d="M95,14.6c0.9,3.1,6.9-0.9,8.7-1.6" />
		<path class="st3" d="M99.4,17.7c1.2-2.2,1.6,2.2,0,2.2V17.7" />
		<path class="st1" d="M99.4,17.7c1.2-2.2,1.6,2.2,0,2.2V17.7" />
		<path class="st2" d="M99.4,17.7c1.2-2.2,1.6,2.2,0,2.2" />
		<path class="st3" d="M103.1,16.8c0.9,1.6-0.3,3.1-1.2,4.4L103.1,16.8" />
		<path class="st1" d="M103.1,16.8c0.9,1.6-0.3,3.1-1.2,4.4L103.1,16.8" />
		<path class="st2" d="M103.1,16.8c0.9,1.6-0.3,3.1-1.2,4.4" />
		<path class="st3" d="M66.3,339.1c0.3,0.9,0,1.6-0.6,1.3L66.3,339.1" />
		<path class="st1" d="M66.3,339.1c0.3,0.9,0,1.6-0.6,1.3L66.3,339.1" />
		<path class="st2" d="M66.3,339.1c0.3,0.9,0,1.6-0.6,1.3" />
		<path class="st3" d="M63.5,338.5c0.9,0.3,1.2-0.3,1.6-0.9L63.5,338.5" />
		<path class="st1" d="M63.5,338.5c0.9,0.3,1.2-0.3,1.6-0.9L63.5,338.5" />
		<path class="st2" d="M63.5,338.5c0.9,0.3,1.2-0.3,1.6-0.9" />
		<path class="st3" d="M63.2,334.8c-0.6,1.3-1.9,0.3-2.5,0H63.2" />
		<path class="st1" d="M63.2,334.8c-0.6,1.3-1.9,0.3-2.5,0H63.2" />
		<path class="st2" d="M63.2,334.8c-0.6,1.3-1.9,0.3-2.5,0" />
		<path class="st3" d="M57,328.8c0.3,0.3,3.4,0.6,3.4,0.3L57,328.8" />
		<path class="st1" d="M57,328.8c0.3,0.3,3.4,0.6,3.4,0.3L57,328.8" />
		<path class="st2" d="M57,328.8c0.3,0.3,3.4,0.6,3.4,0.3" />
		<path class="st3" d="M80.7,65.5c-0.9,0.6-1.9,1.2-3.4,1.6c-6.2,0.9-6.9-0.9-9.7,1.2c-3.1,1.9-2.8-5.6,0.6-3.7
		c0.9,0.3,4-2.5,5.6-1.9c2.2,0.9,4.4-0.9,5.9-1.6c-1.6,0.3-3.1-0.3-5,0c-0.6,0-0.9-2.5,1.2-2.8c9.7-1.2,7.2-5.6,10.6-4.1
		c2.2,0.6,3.7-0.3,5-1.6l-0.3-1.9c-4.7,2.2-7.2,0.6-8.4,3.1c-0.3,0.9-0.6-0.6-0.6-0.9c-0.6-5.9,3.4-1.3,5-5c1.6-3.7,5.6,0,5.6-4.7
		c0,0-0.3-0.3-0.3-1.2C86.9,43.7,86,44,85,46.2c0,0.3-2.2,2.2-1.6,0.3c0.3-0.9-0.6-5.6,1.9-4.4c3.1,1.9,2.2-3.7,5-4.1
		c2.2-0.3,2.8-0.9,3.7-2.8c-1.6,0.3-2.5,0-1.9-2.2c-4,0.3-5.6,5.3-9.3,5.6c-1.6,0.3-0.3-0.9,0-2.8c0-2.8,3.4-0.9,4-4.4
		c0.6-2.5,3.7-0.9,4.4-3.7c0-1.2-4.7-0.6-9.3,3.1c-0.9-5-1.2-4.7,3.4-8.4c4.7-3.7,3.7,2.2,9-3.1c0.9-0.9,0.9-2.8-0.6-3.4
		c-2.8-0.3-8.1,2.8-9.3,0.6c-1.9-4.1,7.2-1.9,8.1-3.7c1.6-1.3-3.4-3.1,3.1-2.8l0.6-1.2C96.9,8.4,97.2,8,97.8,8l-0.3,1.9
		c3.4-1.2,6.5-3.7,5.9-0.6c-0.6,2.2,3.7-1.3,2.8,2.8c0,1.2-2.5,2.5-2.5,4.4c2.5,0,1.6,5.3,2.5,6.9c1.9,3.4-3.1,1.9-4.4,1.2l-0.3,0.6
		c0.6,4.7,4.7,1.2,4,4.1c-0.6,2.8,1.2,3.1,0.6,5.3c0,0.9-2.8-0.3-5-1.3l-0.3,0.3c1.6,0.9,0.9,2.8,4.1,3.1c1.6,0,0.6,8.7-0.9,7.8
		c-0.9-0.9-1.6-2.5-3.4-1.6l-0.3,0.3c0.6,2.8,3.7,2.8,3.7,5.9c-0.3,1.3-0.6,6.9-2.2,4.7c-0.6-1.2-1.9-2.2-2.8-2.8
		c-0.3,0.3-0.6,0.3-0.9,0.3c0.9,4.7,0.6,1.3,3.1,4.7c0.9,1.3-1.6,2.8-2.2,5.3c-0.6,2.2-1.9-3.1-4-0.9c0.9,3.1-1.2,2.2,2.8,3.7
		c0.9,0.3-2.2,4.7-2.2,5.9c-0.3,0.9-2.5-1.2-2.5-1.9c-2.2,1.2-5.3,0-5.6-2.5l-1.9,0.3C83.2,63,82.8,64.3,80.7,65.5" />
		<path class="st1" d="M80.7,65.5c-0.9,0.6-1.9,1.2-3.4,1.6c-6.2,0.9-6.9-0.9-9.7,1.2c-3.1,1.9-2.8-5.6,0.6-3.7
		c0.9,0.3,4-2.5,5.6-1.9c2.2,0.9,4.4-0.9,5.9-1.6c-1.6,0.3-3.1-0.3-5,0c-0.6,0-0.9-2.5,1.2-2.8c9.7-1.2,7.2-5.6,10.6-4.1
		c2.2,0.6,3.7-0.3,5-1.6l-0.3-1.9c-4.7,2.2-7.2,0.6-8.4,3.1c-0.3,0.9-0.6-0.6-0.6-0.9c-0.6-5.9,3.4-1.3,5-5c1.6-3.7,5.6,0,5.6-4.7
		c0,0-0.3-0.3-0.3-1.2C86.9,43.7,86,44,85,46.2c0,0.3-2.2,2.2-1.6,0.3c0.3-0.9-0.6-5.6,1.9-4.4c3.1,1.9,2.2-3.7,5-4.1
		c2.2-0.3,2.8-0.9,3.7-2.8c-1.6,0.3-2.5,0-1.9-2.2c-4,0.3-5.6,5.3-9.3,5.6c-1.6,0.3-0.3-0.9,0-2.8c0-2.8,3.4-0.9,4-4.4
		c0.6-2.5,3.7-0.9,4.4-3.7c0-1.2-4.7-0.6-9.3,3.1c-0.9-5-1.2-4.7,3.4-8.4c4.7-3.7,3.7,2.2,9-3.1c0.9-0.9,0.9-2.8-0.6-3.4
		c-2.8-0.3-8.1,2.8-9.3,0.6c-1.9-4.1,7.2-1.9,8.1-3.7c1.6-1.3-3.4-3.1,3.1-2.8l0.6-1.2C96.9,8.4,97.2,8,97.8,8l-0.3,1.9
		c3.4-1.2,6.5-3.7,5.9-0.6c-0.6,2.2,3.7-1.3,2.8,2.8c0,1.2-2.5,2.5-2.5,4.4c2.5,0,1.6,5.3,2.5,6.9c1.9,3.4-3.1,1.9-4.4,1.2l-0.3,0.6
		c0.6,4.7,4.7,1.2,4,4.1c-0.6,2.8,1.2,3.1,0.6,5.3c0,0.9-2.8-0.3-5-1.3l-0.3,0.3c1.6,0.9,0.9,2.8,4.1,3.1c1.6,0,0.6,8.7-0.9,7.8
		c-0.9-0.9-1.6-2.5-3.4-1.6l-0.3,0.3c0.6,2.8,3.7,2.8,3.7,5.9c-0.3,1.3-0.6,6.9-2.2,4.7c-0.6-1.2-1.9-2.2-2.8-2.8
		c-0.3,0.3-0.6,0.3-0.9,0.3c0.9,4.7,0.6,1.3,3.1,4.7c0.9,1.3-1.6,2.8-2.2,5.3c-0.6,2.2-1.9-3.1-4-0.9c0.9,3.1-1.2,2.2,2.8,3.7
		c0.9,0.3-2.2,4.7-2.2,5.9c-0.3,0.9-2.5-1.2-2.5-1.9c-2.2,1.2-5.3,0-5.6-2.5l-1.9,0.3C83.2,63,82.8,64.3,80.7,65.5" />
		<path class="st2" d="M80.7,65.5c-0.9,0.6-1.9,1.2-3.4,1.6c-6.2,0.9-6.9-0.9-9.7,1.2c-3.1,1.9-2.8-5.6,0.6-3.7
		c0.9,0.3,4-2.5,5.6-1.9c2.2,0.9,4.4-0.9,5.9-1.6c-1.6,0.3-3.1-0.3-5,0c-0.6,0-0.9-2.5,1.2-2.8c9.7-1.2,7.2-5.6,10.6-4.1
		c2.2,0.6,3.7-0.3,5-1.6l-0.3-1.9c-4.7,2.2-7.2,0.6-8.4,3.1c-0.3,0.9-0.6-0.9-0.6-0.9c-0.6-5.9,3.4-1.3,5-5c1.6-3.7,5.6,0,5.6-4.7
		c0,0-0.3-0.3-0.3-1.2C86.9,43.7,86,44,85,46.2c0,0.3-2.2,2.2-1.6,0.3c0.3-0.9-0.6-5.6,1.9-4.4c3.1,1.9,2.2-3.7,5-4.1
		c2.2-0.3,2.8-0.9,3.7-2.8c-1.6,0.3-2.5,0-1.9-2.2c-4,0.3-5.6,5.3-9.3,5.6c-1.6,0.3-0.3-0.9,0-2.8c0-2.8,3.4-0.9,4-4.4
		c0.6-2.5,3.7-0.9,4.4-3.7c0-1.2-4.7-0.6-9.3,3.1c-0.9-5-1.2-4.7,3.4-8.4c4.7-3.7,3.7,2.2,9-3.1c0.9-0.9,0.9-2.8-0.6-3.4
		c-2.8-0.3-8.1,2.8-9.3,0.6c-1.9-4.1,7.2-1.9,8.1-3.7c1.6-1.3-3.4-3.1,3.1-2.8l0.6-1.2C96.9,8.4,97.2,8,97.8,8l-0.3,1.9
		c3.4-1.2,6.5-3.7,5.9-0.6c-0.6,2.2,3.7-1.3,2.8,2.8c0,1.2-2.5,2.5-2.5,4.4c2.5,0,1.6,5.3,2.5,6.9c1.9,3.4-3.1,1.9-4.4,1.2l-0.3,0.6
		c0.6,4.7,4.7,1.2,4,4.1c-0.6,2.8,1.2,3.1,0.6,5.3c0,0.9-2.8-0.3-5-1.3l-0.3,0.3c1.6,0.9,0.9,2.8,4.1,3.1c1.6,0,0.6,8.7-0.9,7.8
		c-0.9-0.9-1.6-2.5-3.4-1.6l-0.3,0.3c0.6,2.8,3.7,2.8,3.7,5.9c0,1.3-0.6,6.9-2.2,4.7c-0.6-1.2-1.9-2.2-2.8-2.8
		c-0.3,0.3-0.6,0.3-0.9,0.3c0.9,4.7,0.6,1.3,3.1,4.7c0.9,1.3-1.6,2.8-2.2,5.3c-0.6,2.2-1.9-3.1-4-0.9c0.9,3.1-1.2,2.2,2.8,3.7
		c0.9,0.3-2.2,4.7-2.2,5.9c-0.3,0.9-2.5-1.2-2.5-1.9c-2.2,1.2-5.3,0-5.6-2.5l-1.9,0.3C83.2,63,82.8,64.3,80.7,65.5z" />
		<path class="st3" d="M95.6,9.9h1.9H95.6z" />
		<polyline class="st1" points="95.6,9.9 97.5,9.9 95.6,9.9 	" />
		<line class="st2" x1="95.6" y1="9.9" x2="97.5" y2="9.9" />
		<path class="st3" d="M93.7,15.9c1.9,0.3,6.2,3.1,7.2,0.9L93.7,15.9" />
		<path class="st1" d="M93.7,15.9c1.9,0.3,6.2,3.1,7.2,0.9L93.7,15.9" />
		<path class="st2" d="M93.7,15.9c1.9,0.3,6.2,3.1,7.2,0.9" />
		<path class="st3" d="M101.5,12.7c0.9,0.9-1.9,3.4-2.5,2.2L101.5,12.7" />
		<path class="st1" d="M101.5,12.7c0.9,0.9-1.9,3.4-2.5,2.2L101.5,12.7" />
		<path class="st2" d="M101.5,12.7c0.9,0.9-1.9,3.4-2.5,2.2" />
		<path class="st3" d="M95,18c1.2,3.1,6.9-0.9,8.7-1.6L95,18" />
		<path class="st1" d="M95,18c1.2,3.1,6.9-0.9,8.7-1.6L95,18" />
		<path class="st2" d="M95,18c1.2,3.1,6.9-0.9,8.7-1.6" />
		<path class="st3" d="M99.4,21.5c1.6-2.5,1.9,1.9,0,1.9V21.5" />
		<path class="st1" d="M99.4,21.5c1.6-2.5,1.9,1.9,0,1.9V21.5" />
		<path class="st2" d="M99.4,21.5c1.6-2.5,1.9,1.9,0,1.9" />
		<path class="st3" d="M103.4,20.2c0.6,1.6-0.6,3.1-1.6,4.4L103.4,20.2" />
		<path class="st1" d="M103.4,20.2c0.6,1.6-0.6,3.1-1.6,4.4L103.4,20.2" />
		<path class="st2" d="M103.4,20.2c0.6,1.6-0.6,3.1-1.6,4.4" />
		<path class="st3" d="M101.5,25.2c-1.9,3.4-4.7-1.9-6.2,0c-0.9,0.9-1.9,3.7-4,2.5L101.5,25.2" />
		<path class="st1" d="M101.5,25.2c-1.9,3.4-4.7-1.9-6.2,0c-0.9,0.9-1.9,3.7-4,2.5L101.5,25.2" />
		<path class="st2" d="M101.5,25.2c-1.9,3.4-4.7-1.9-6.2,0c-0.9,0.9-1.9,3.7-4,2.5" />
		<path class="st3" d="M101.2,28c0,2.2-2.5,3.4-2.5,0.6L101.2,28" />
		<path class="st1" d="M101.2,28c0,2.2-2.5,3.4-2.5,0.6L101.2,28" />
		<path class="st2" d="M101.2,28c0,2.2-2.5,3.4-2.5,0.6" />
		<path class="st3" d="M100.9,33.7c-1.9,2.2-2.2-1.2-3.7-1.9L100.9,33.7" />
		<path class="st1" d="M100.9,33.7c-1.9,2.2-2.2-1.2-3.7-1.9L100.9,33.7" />
		<path class="st2" d="M100.9,33.7c-1.9,2.2-2.2-1.2-3.7-1.9" />
		<path class="st3" d="M98.1,32.7c-0.9,0.6-2.5,1.9-4.1,2.5L98.1,32.7" />
		<path class="st1" d="M98.1,32.7c-0.9,0.6-2.5,1.9-4.1,2.5L98.1,32.7" />
		<path class="st2" d="M98.1,32.7c-0.9,0.6-2.5,1.9-4.1,2.5" />
		<path class="st3" d="M92.2,33l0.6-0.9L92.2,33z" />
		<polyline class="st1" points="92.2,33 92.8,32.1 92.2,33 	" />
		<line class="st2" x1="92.2" y1="33" x2="92.8" y2="32.1" />
		<path class="st3" d="M92.8,40.5l-0.3,1.6L92.8,40.5z" />
		<polyline class="st1" points="92.8,40.5 92.5,42.1 92.8,40.5 	" />
		<line class="st2" x1="92.8" y1="40.5" x2="92.5" y2="42.1" />
		<path class="st3" d="M92.8,43.3c0.6,0.3,2.2-0.9,3.7-1.2c0.9,2.2,2.5,2.2,3.7,1.2H92.8" />
		<path class="st1" d="M92.8,43.3c0.6,0.3,2.2-0.9,3.7-1.2c0.9,2.2,2.5,2.2,3.7,1.2H92.8" />
		<path class="st2" d="M92.8,43.3c0.6,0.3,2.2-0.9,3.7-1.2c0.9,2.2,2.5,2.2,3.7,1.2" />
		<path class="st3" d="M100.6,43c0.9-0.9,1.6-2.2,1.9-3.7L100.6,43" />
		<path class="st1" d="M100.6,43c0.9-0.9,1.6-2.2,1.9-3.7L100.6,43" />
		<path class="st2" d="M100.6,43c0.9-0.9,1.6-2.2,1.9-3.7" />
		<path class="st3" d="M100.6,39.6c-1.2,1.9-3.1,0.9-2.5-1.2L100.6,39.6" />
		<path class="st1" d="M100.6,39.6c-1.2,1.9-3.1,0.9-2.5-1.2L100.6,39.6" />
		<path class="st2" d="M100.6,39.6c-1.2,1.9-3.1,0.9-2.5-1.2" />
		<path class="st3" d="M99,48.7c-2.5,0.9-1.6-1.6-1.9-2.5L99,48.7" />
		<path class="st1" d="M99,48.7c-2.5,0.9-1.6-1.6-1.9-2.5L99,48.7" />
		<path class="st2" d="M99,48.7c-2.5,0.9-1.6-1.6-1.9-2.5" />
		<path class="st3" d="M100.9,48.7c-0.6,1.3-1.6,1.9-1.9,2.5L100.9,48.7" />
		<path class="st1" d="M100.9,48.7c-0.6,1.3-1.6,1.9-1.9,2.5L100.9,48.7" />
		<path class="st2" d="M100.9,48.7c-0.6,1.3-1.6,1.9-1.9,2.5" />
		<path class="st3" d="M98.1,51.5c-1.2,0.3-2.2-0.9-3.4-3.1L98.1,51.5" />
		<path class="st1" d="M98.1,51.5c-1.2,0.3-2.2-0.9-3.4-3.1L98.1,51.5" />
		<path class="st2" d="M98.1,51.5c-1.2,0.3-2.2-0.9-3.4-3.1" />
		<path class="st3" d="M95.6,49.6c-1.6,0.3-2.8,1.9-4,3.1L95.6,49.6" />
		<path class="st1" d="M95.6,49.6c-1.6,0.3-2.8,1.9-4,3.1L95.6,49.6" />
		<path class="st2" d="M95.6,49.6c-1.6,0.3-2.8,1.9-4,3.1" />
		<path class="st3" d="M95.9,54c0.6,0.9,0.6,2.2,0,3.1c-1.9,1.9,2.5,1.2,1.9-0.9L95.9,54" />
		<path class="st1" d="M95.9,54c0.6,0.9,0.6,2.2,0,3.1c-1.9,1.9,2.5,1.2,1.9-0.9L95.9,54" />
		<path class="st2" d="M95.9,54c0.6,0.9,0.6,2.2,0,3.1c-1.9,1.9,2.5,1.2,1.9-0.9" />
		<path class="st3" d="M95,60.5c-2.2,1.9-3.1-4.4-4.7-1.9c-1.6,2.2-5,0.6-10.6,2.5L95,60.5" />
		<path class="st1" d="M95,60.5c-2.2,1.9-3.1-4.4-4.7-1.9c-1.6,2.2-5,0.6-10.6,2.5L95,60.5" />
		<path class="st2" d="M95,60.5c-2.2,1.9-3.1-4.4-4.7-1.9c-1.6,2.2-5,0.6-10.6,2.5" />
		<path class="st3" d="M91.9,61.1c0,1.2,0,2.8-0.9,4.4c-0.3,0.6,2.2,0.6,3.1-0.6L91.9,61.1" />
		<path class="st1" d="M91.9,61.1c0,1.2,0,2.8-0.9,4.4c-0.3,0.6,2.2,0.6,3.1-0.6L91.9,61.1" />
		<path class="st2" d="M91.9,61.1c0,1.2,0,2.8-0.9,4.4c-0.3,0.6,2.2,0.6,3.1-0.6" />
		<path class="st3" d="M93.7,67.7l-0.6,0.6L93.7,67.7z" />
		<polyline class="st1" points="93.7,67.7 93.1,68.3 93.7,67.7 	" />
		<line class="st2" x1="93.7" y1="67.7" x2="93.1" y2="68.3" />
		<path class="st3" d="M79.4,220.8c-2.8,0.9-7.2,4.1-8.1,1.3c-2.2-5.9,7.2-5.6,7.5-11.6c-1.2-0.6-2.2-1.6-2.8-1.9
		c-3.4,3.4-5.6,6.2-6.9,4.4c-2.8-4.7,4.4-7.5,3.7-12.5c-1.9,0.3-3.7,0.3-3.4-1.6c-1.9,5.3-5.9,0-5.3-0.9c2.8-3.8,1.9-6.6,2.5-10
		c-0.3,0-0.9-0.3-1.2-0.6c-1.9-0.9-4.4,5-5,1.9l-0.9-2.8c-0.3-1.6,3.4-8.1,2.8-11.9c-1.2,0.3-2.5,0-3.1-0.9
		c-1.2,1.9-4.1,4.7-4.7,2.5c-1.9-6.6,4.7-11.2,3.4-17.8h-1.6c0,1.9-3.1,8.4-5,4.4c-3.1-6.2,4.4-12.8,4.7-19.4l-0.9-0.3
		c-1.6,4.4-5.3,6.6-4.4-1.9c0.3-4.4,4.4-7.5,5.6-11.9c-0.9,0-1.6,0-2.2-0.6c-6.2,3.7-1.9-6.9,2.8-13.1c-1.6-0.6-1.9-2.2-1.6-3.7
		c-2.2,1.6-3.4-1.3,0.6-3.7c3.1-1.9,2.8-5,6.2-7.2c-0.9-0.3-1.9-1.3-1.9-2.5c-3.4,1.9-5.6-0.9-3.1-3.4c1.2-1.6,2.5,0,4.4-1.6
		l5.6-5.3c-1.2-0.6-2.2-2.8-0.9-4.1c-1.9-2.8-6.5,2.8-6.5,0.9c-0.6-9.4,10-3.1,13.1-6.6c-1.6-0.9-1.2-2.5,0-3.7
		c-2.5,0-4.4-1.2-8.4,0.3c-1.6,0.6-2.5-5.3,2.5-4.7c4,0.3,8.1,0.9,11.5-0.9c-0.3-1.3,0-2.5,2.2-3.8c2.2-1.2,2.5-2.5,5,0.6
		c1.6,2.2-0.9,4.4,0.9,4.4c0.9,0,1.6,0,1.6-1.2c2.2,1.2,3.1,3.4,5.9,3.7c2.5,0-0.9,2.2-2.2,5.6c-0.6,2.5-5.9-2.2-7.8-2.5
		c-1.9-0.3,1.6-2.8,0-3.4c-1.6-0.3-3.7,3.1-2.5,5c0.6,1.3,1.6,0,2.8,0.6l5.3,2.8c1.9,0.9-2.8,2.5-2.5,6.2c0.3,3.4-3.4-1.9-7.8-2.2
		c1.2-5.3-3.7-5.3-4,0.3c0,3.8,1.2,1.9,3.1,1.9c2.2,0.6,2.2,2.2,6.9,3.4c1.2,0.6-1.6,3.7-1.6,5.9c-0.3,3.1-3.1,1.2-4.7,0.3
		c-2.2-1.2-5.9-0.3-4.4-2.8c2.2-4.4-2.8-5-3.7-0.6c-0.3,1.9-3.4,0.3-5,1.9c0.9,3.4,4-1.6,5,1.6c1.6,3.7,1.2-1.9,3.4,0.9
		c2.8,3.1,7.5,0.3,6.9,4.4c0,1.9-0.9,2.8-1.2,4.7c0,2.5-4.7,1.2-5.9,0c-1.2-1.3-6.9,0.9-4.7-2.5c2.2-3.4-3.1-2.8-3.4,0.6
		c0,0.6-0.6,1.3-1.2,1.3c0,2.8,0.9,0,1.2,2.8c0.9-0.9,2.2-1.2,3.1-0.9c-1.9,2.5,8.1,1.3,9.3,2.8c0.9,0.6-0.9,2.8,0,5.6
		c0.9,2.2,0,3.7-0.9,3.7c-3.4-0.3-7.2-0.6-10.6-0.6c-2.2,0,0.6-5.6-3.4-5.3c-2.2,0-2.5,3.1-1.9,4.7c1.2,3.4,0.3,4.4,4.7,1.6l0.3,0.9
		c0.3,1.3,10.3-0.3,10.3,2.5c-0.3,7.8,2.2,7.8,0.3,8.1c-3.7,0.6-8.1-1.2-11.5,0.6c0-2.5,0.6-4.1-2.5-4.1c-2.2-0.3-1.9,2.8-1.9,4.1
		c1.9-0.3,0.6,2.8,1.6,3.1c1.6,0.3,0.9-1.3,2.8-1.6c1.2,0,0,2.8,11.5,0c1.9-0.6-0.6,5,2.2,10c0.9,1.9-3.4,0-9.3,1.6
		c-4.4,0.9-2.2-1.6-4-4.1c-1.9-1.9-5,3.8-4.1,5c2.8-0.9,0.6,7.2,5,0.9c0.6-0.9,4,1.6,8.7,0c5.6-1.6,3.7,1.9,4,4.1
		c0.6,3.7,2.5,3.1,1.2,5.6c0,0.6-5.6,0.9-8.4,1.9c-1.9,0.3-3.1,2.2-3.4-1.6c-0.3-3.4-7.2-2.2-5.3,2.2c0.6,1.6-0.3,0.9-1.2,2.8
		c4-3.1,2.2,0.9,4.7,0.6c1.9-0.3,0.6-1.3,1.9-1.3c7.2,0.3,9.7-0.9,11.8-2.2c2.8-1.6,0.9,4.4,2.8,6.2c2.2,2.2,2.5,4.1,1.6,4.4
		c-3.4,1.2-5.9,1.2-10.3,3.1c-2.2,1.2-1.2-1.9-2.8-2.5c-2.5-1.3-5.3,1.9-2.2,3.7c0.6,0.3,0,2.2,0,2.5c2.2,2.8,2.8-2.5,5.3-1.2
		c3.1,0.9,9-3.8,10.6-3.4c1.9,0.3,0.6,5,3.7,6.9c3.4,2.5-0.9,4.1-2.8,4.4c-2.8,0.6-5,1.9-7.2,3.1s-1.6-4.4-4.7-2.2
		c-1.6,1.3-0.9,3.4-0.3,4.7c2.2-1.6,0.6,2.2,3.4,2.2c2.8-0.3-1.6-2.2,4.7-2.8c3.1,0,5.6-3.4,9-3.1c2.5,0,0.6,5.3,2.8,7.5
		c2.5,1.6,0.9,3.7-0.9,3.1c-2.5-0.6-9,5.9-10,3.1c-0.9-2.8-5,0.3-3.4,2.5c0,0.3,0.9,2.5-0.9,2.8c5-2.2,3.1,2.8,5.9-0.6
		c2.5-3.4,7.2-2.2,9.4-4.7c3.7-4.1,3.4,1.6,4.7,3.7c0.9,1.2,4.4,5.6,2.5,6.6c-1.9,0.9-4.7,0-10.9,4.1c-0.9-4.7-5-2.2-5.3,1.6
		C82.2,215.4,80.3,218.3,79.4,220.8" />
		<path class="st1" d="M79.4,220.8c-2.8,0.9-7.2,4.1-8.1,1.3c-2.2-5.9,7.2-5.6,7.5-11.6c-1.2-0.6-2.2-1.6-2.8-1.9
		c-3.4,3.4-5.6,6.2-6.9,4.4c-2.8-4.7,4.4-7.5,3.7-12.5c-1.9,0.3-3.7,0.3-3.4-1.6c-1.9,5.3-5.9,0-5.3-0.9c2.8-3.8,1.9-6.6,2.5-10
		c-0.3,0-0.9-0.3-1.2-0.6c-1.9-0.9-4.4,5-5,1.9l-0.9-2.8c-0.3-1.6,3.4-8.1,2.8-11.9c-1.2,0.3-2.5,0-3.1-0.9
		c-1.2,1.9-4.1,4.7-4.7,2.5c-1.9-6.6,4.7-11.2,3.4-17.8h-1.6c0,1.9-3.1,8.4-5,4.4c-3.1-6.2,4.4-12.8,4.7-19.4l-0.9-0.3
		c-1.6,4.4-5.3,6.6-4.4-1.9c0.3-4.4,4.4-7.5,5.6-11.9c-0.9,0-1.6,0-2.2-0.6c-6.2,3.7-1.9-6.9,2.8-13.1c-1.6-0.6-1.9-2.2-1.6-3.7
		c-2.2,1.6-3.4-1.3,0.6-3.7c3.1-1.9,2.8-5,6.2-7.2c-0.9-0.3-1.9-1.3-1.9-2.5c-3.4,1.9-5.6-0.9-3.1-3.4c1.2-1.6,2.5,0,4.4-1.6
		l5.6-5.3c-1.2-0.6-2.2-2.8-0.9-4.1c-1.9-2.8-6.5,2.8-6.5,0.9c-0.6-9.4,10-3.1,13.1-6.6c-1.6-0.9-1.2-2.5,0-3.7
		c-2.5,0-4.4-1.2-8.4,0.3c-1.6,0.6-2.5-5.3,2.5-4.7c4,0.3,8.1,0.9,11.5-0.9c-0.3-1.3,0-2.5,2.2-3.8c2.2-1.2,2.5-2.5,5,0.6
		c1.6,2.2-0.9,4.4,0.9,4.4c0.9,0,1.6,0,1.6-1.2c2.2,1.2,3.1,3.4,5.9,3.7c2.5,0-0.9,2.2-2.2,5.6c-0.6,2.5-5.9-2.2-7.8-2.5
		c-1.9-0.3,1.6-2.8,0-3.4c-1.6-0.3-3.7,3.1-2.5,5c0.6,1.3,1.6,0,2.8,0.6l5.3,2.8c1.9,0.9-2.8,2.5-2.5,6.2c0.3,3.4-3.4-1.9-7.8-2.2
		c1.2-5.3-3.7-5.3-4,0.3c0,3.8,1.2,1.9,3.1,1.9c2.2,0.6,2.2,2.2,6.9,3.4c1.2,0.6-1.6,3.7-1.6,5.9c-0.3,3.1-3.1,1.2-4.7,0.3
		c-2.2-1.2-5.9-0.3-4.4-2.8c2.2-4.4-2.8-5-3.7-0.6c-0.3,1.9-3.4,0.3-5,1.9c0.9,3.4,4-1.6,5,1.6c1.6,3.7,1.2-1.9,3.4,0.9
		c2.8,3.1,7.5,0.3,6.9,4.4c0,1.9-0.9,2.8-1.2,4.7c0,2.5-4.7,1.2-5.9,0c-1.2-1.3-6.9,0.9-4.7-2.5c2.2-3.4-3.1-2.8-3.4,0.6
		c0,0.6-0.6,1.3-1.2,1.3c0,2.8,0.9,0,1.2,2.8c0.9-0.9,2.2-1.2,3.1-0.9c-1.9,2.5,8.1,1.3,9.3,2.8c0.9,0.6-0.9,2.8,0,5.6
		c0.9,2.2,0,3.7-0.9,3.7c-3.4-0.3-7.2-0.6-10.6-0.6c-2.2,0,0.6-5.6-3.4-5.3c-2.2,0-2.5,3.1-1.9,4.7c1.2,3.4,0.3,4.4,4.7,1.6l0.3,0.9
		c0.3,1.3,10.3-0.3,10.3,2.5c-0.3,7.8,2.2,7.8,0.3,8.1c-3.7,0.6-8.1-1.2-11.5,0.6c0-2.5,0.6-4.1-2.5-4.1c-2.2-0.3-1.9,2.8-1.9,4.1
		c1.9-0.3,0.6,2.8,1.6,3.1c1.6,0.3,0.9-1.3,2.8-1.6c1.2,0,0,2.8,11.5,0c1.9-0.6-0.6,5,2.2,10c0.9,1.9-3.4,0-9.3,1.6
		c-4.4,0.9-2.2-1.6-4-4.1c-1.9-1.9-5,3.8-4.1,5c2.8-0.9,0.6,7.2,5,0.9c0.6-0.9,4,1.6,8.7,0c5.6-1.6,3.7,1.9,4,4.1
		c0.6,3.7,2.5,3.1,1.2,5.6c0,0.6-5.6,0.9-8.4,1.9c-1.9,0.3-3.1,2.2-3.4-1.6c-0.3-3.4-7.2-2.2-5.3,2.2c0.6,1.6-0.3,0.9-1.2,2.8
		c4-3.1,2.2,0.9,4.7,0.6c1.9-0.3,0.6-1.3,1.9-1.3c7.2,0.3,9.7-0.9,11.8-2.2c2.8-1.6,0.9,4.4,2.8,6.2c2.2,2.2,2.5,4.1,1.6,4.4
		c-3.4,1.2-5.9,1.2-10.3,3.1c-2.2,1.2-1.2-1.9-2.8-2.5c-2.5-1.3-5.3,1.9-2.2,3.7c0.6,0.3,0,2.2,0,2.5c2.2,2.8,2.8-2.5,5.3-1.2
		c3.1,0.9,9-3.8,10.6-3.4c1.9,0.3,0.6,5,3.7,6.9c3.4,2.5-0.9,4.1-2.8,4.4c-2.8,0.6-5,1.9-7.2,3.1s-1.6-4.4-4.7-2.2
		c-1.6,1.3-0.9,3.4-0.3,4.7c2.2-1.6,0.6,2.2,3.4,2.2c2.8-0.3-1.6-2.2,4.7-2.8c3.1,0,5.6-3.4,9-3.1c2.5,0,0.6,5.3,2.8,7.5
		c2.5,1.6,0.9,3.7-0.9,3.1c-2.5-0.6-9,5.9-10,3.1c-0.9-2.8-5,0.3-3.4,2.5c0,0.3,0.9,2.5-0.9,2.8c5-2.2,3.1,2.8,5.9-0.6
		c2.5-3.4,7.2-2.2,9.4-4.7c3.7-4.1,3.4,1.6,4.7,3.7c0.9,1.2,4.4,5.6,2.5,6.6c-1.9,0.9-4.7,0-10.9,4.1c-0.9-4.7-5-2.2-5.3,1.6
		C82.2,215.4,80.3,218.3,79.4,220.8" />
		<path class="st2" d="M79.4,220.8c-2.8,0.9-7.2,4.1-8.1,1.3c-2.2-5.9,7.2-5.6,7.5-11.6c-1.2-0.6-2.2-1.6-2.8-1.9
		c-3.4,3.4-5.6,6.2-6.9,4.4c-2.8-4.7,4.4-7.5,3.7-12.5c-1.9,0.3-3.7,0.3-3.4-1.6c-1.9,5.3-5.9,0-5.3-0.9c2.8-3.8,1.9-6.6,2.5-10
		c-0.3,0-0.9-0.3-1.2-0.6c-1.9-0.9-4.4,5-5,1.9l-0.9-2.8c-0.3-1.6,3.4-8.1,2.8-11.9c-1.2,0.3-2.5,0-3.1-0.9
		c-1.2,1.9-4.1,4.7-4.7,2.5c-1.9-6.6,4.7-11.2,3.4-17.8h-1.6c0,1.9-3.1,8.4-5,4.4c-3.1-6.2,4.4-12.8,4.7-19.4l-0.9-0.3
		c-1.6,4.4-5.3,6.6-4.4-1.9c0.3-4.4,4.4-7.5,5.6-11.9c-0.9,0-1.6,0-2.2-0.6c-6.2,3.7-1.9-6.9,2.8-13.1c-1.6-0.6-1.9-2.2-1.6-3.7
		c-2.2,1.6-3.4-1.3,0.6-3.7c3.1-1.9,2.8-5,6.2-7.2c-0.9-0.3-1.9-1.3-1.9-2.5c-3.4,1.9-5.6-0.9-3.1-3.4c1.2-1.6,2.5,0,4.4-1.6
		l5.6-5.3c-1.2-0.6-2.2-2.8-0.9-4.1c-1.9-2.8-6.5,2.8-6.5,0.9c-0.6-9.4,10-3.1,13.1-6.6c-1.6-0.9-1.2-2.5,0-3.7
		c-2.5,0-4.4-1.2-8.4,0.3c-1.6,0.6-2.5-5.3,2.5-4.7c4,0.3,8.1,0.9,11.5-0.9c-0.3-1.3,0-2.5,2.2-3.8c2.2-1.2,2.5-2.5,5,0.6
		c1.6,2.2-0.9,4.4,0.9,4.4c0.9,0,1.6,0,1.6-1.2c2.2,1.2,3.1,3.4,5.9,3.7c2.5,0-0.9,2.2-2.2,5.6c-0.6,2.5-5.9-2.2-7.8-2.5
		c-1.9-0.3,1.6-2.8,0-3.4c-1.6-0.3-3.7,3.1-2.5,5c0.6,1.3,1.6,0,2.8,0.6l5.3,2.8c1.9,0.9-2.8,2.5-2.5,6.2c0.3,3.4-3.4-1.9-7.8-2.2
		c1.2-5.3-4-5.3-4,0.3c0,3.8,1.2,1.9,3.1,1.9c2.2,0.6,2.2,2.2,6.9,3.4c1.2,0.6-1.6,3.7-1.6,5.9c-0.3,3.1-3.1,1.2-4.7,0.3
		c-2.2-1.2-5.9-0.3-4.4-2.8c2.2-4.4-2.8-5-3.7-0.6c-0.3,1.9-3.4,0.3-5,1.9c0.9,3.4,4-1.6,5,1.6c1.6,3.7,1.2-1.9,3.4,0.9
		c2.8,3.1,7.5,0.3,6.9,4.4c0,1.9-1.2,2.8-1.2,4.7c0,2.5-4.7,1.2-5.9,0c-1.2-1.3-6.9,0.9-4.7-2.5c2.2-3.4-3.1-2.8-3.4,0.6
		c0,0.6-0.6,1.3-1.2,1.3c0,2.8,0.9,0,1.2,2.8c0.9-0.9,2.2-1.2,3.1-0.9c-1.9,2.5,8.1,1.3,9.3,2.8c0.9,0.6-0.9,2.8,0,5.6
		c0.9,2.2,0,3.7-0.9,3.7c-3.4-0.3-7.2-0.6-10.6-0.6c-2.2,0,0.6-5.6-3.4-5.3c-2.2,0-2.5,3.1-1.9,4.7c1.2,3.4,0.3,4.4,4.7,1.6l0.3,0.9
		c0.3,1.3,10.3-0.3,10.3,2.5c-0.3,7.8,2.2,7.8,0.3,8.1c-3.7,0.6-8.1-1.2-11.5,0.6c0-2.5,0.6-4.1-2.5-4.1c-2.2-0.3-1.9,2.8-1.9,4.1
		c1.9-0.3,0.6,2.8,1.6,3.1c1.6,0.3,0.9-1.3,2.8-1.6c1.2,0,0,2.8,11.5,0c1.9-0.6-0.6,5,2.2,10c0.9,1.9-3.4,0-9.3,1.6
		c-4.4,0.9-2.2-1.6-4-4.1c-1.9-1.9-5,3.8-4.1,5c2.8-0.9,0.6,7.2,5,0.9c0.6-0.9,4,1.6,8.7,0c5.6-1.6,3.7,1.9,4,4.1
		c0.6,3.7,2.5,3.1,1.2,5.6c0,0.6-5.6,0.9-8.4,1.9c-1.9,0.3-3.1,2.2-3.4-1.6c-0.3-3.4-7.2-2.2-5.3,2.2c0.6,1.6-0.3,0.9-1.2,2.8
		c4-3.1,2.2,0.9,4.7,0.6c1.9-0.3,0.6-1.3,1.9-1.3c7.2,0.3,9.7-0.9,11.8-2.2c2.8-1.6,0.9,4.4,2.8,6.2c2.2,2.2,2.5,4.1,1.6,4.4
		c-3.4,1.2-5.9,1.2-10.3,3.1c-2.2,1.2-1.2-1.9-2.8-2.5c-2.5-1.3-5.3,1.9-2.2,3.7c0.6,0.3,0,2.2,0,2.5c2.2,2.8,2.8-2.5,5.3-1.2
		c3.1,0.9,9-3.8,10.6-3.4c1.9,0.3,0.6,5,3.7,6.9c3.4,2.5-0.9,4.1-2.8,4.4c-2.8,0.6-5,1.9-7.2,3.1s-1.6-4.4-4.7-2.2
		c-1.6,1.3-0.9,3.4-0.3,4.7c2.2-1.6,0.6,2.2,3.4,2.2c2.8-0.3-1.6-2.2,4.7-2.8c3.1,0,5.6-3.4,9-3.1c2.5,0,0.6,5.3,2.8,7.5
		c2.5,1.6,0.9,3.7-0.9,3.1c-2.5-0.6-9,5.9-10,3.1c-0.9-2.8-5,0.3-3.4,2.5c0,0.3,0.9,2.5-0.9,2.8c5-2.2,3.1,2.8,5.9-0.6
		c2.5-3.4,7.2-2.2,9.4-4.7c3.7-4.1,3.4,1.6,4.7,3.7c0.9,1.2,4.4,5.6,2.5,6.6c-1.9,0.9-4.7,0-10.9,4.1c-0.9-4.7-5-2.2-5.3,1.6
		C82.2,215.4,80.3,218.3,79.4,220.8z" />
		<path class="st3" d="M78.5,69c0.6,0.9,1.2,2.5,3.4,2.5L78.5,69" />
		<path class="st1" d="M78.5,69c0.6,0.9,1.2,2.5,3.4,2.5L78.5,69" />
		<path class="st2" d="M78.5,69c0.6,0.9,1.2,2.5,3.4,2.5" />
		<path class="st3" d="M90,71.8c-0.6,0.6-2.2,1.9-2.5,0.6L90,71.8" />
		<path class="st1" d="M90,71.8c-0.6,0.6-2.2,1.9-2.5,0.6L90,71.8" />
		<path class="st2" d="M90,71.8c-0.6,0.6-2.2,1.9-2.5,0.6" />
		<path class="st3" d="M81.3,76.1c-0.9-1.6-3.1,0.3-3.1-1.6c-0.3-2.8-4-1.6-5.3,0L81.3,76.1" />
		<path class="st1" d="M81.3,76.1c-0.9-1.6-3.1,0.3-3.1-1.6c-0.3-2.8-4-1.6-5.3,0L81.3,76.1" />
		<path class="st2" d="M81.3,76.1c-0.9-1.6-3.1,0.3-3.1-1.6c-0.3-2.8-4-1.6-5.3,0" />
		<path class="st3" d="M72.9,78.3c0.3,0.3,0.6,0.6,1.2,0.9L72.9,78.3" />
		<path class="st1" d="M72.9,78.3c0.3,0.3,0.6,0.6,1.2,0.9L72.9,78.3" />
		<path class="st2" d="M72.9,78.3c0.3,0.3,0.6,0.6,1.2,0.9" />
		<path class="st3" d="M84.4,80.5c-0.6,0.9-3.1,1.6-1.6-0.6L84.4,80.5" />
		<path class="st1" d="M84.4,80.5c-0.6,0.9-3.1,1.6-1.6-0.6L84.4,80.5" />
		<path class="st2" d="M84.4,80.5c-0.6,0.9-3.1,1.6-1.6-0.6" />
		<path class="st3" d="M75.4,85.5c-5,0-0.9-0.6-3.4-2.8c-1.6-1.6-4.7,0-5.6,1.2L75.4,85.5" />
		<path class="st1" d="M75.4,85.5c-5,0-0.9-0.6-3.4-2.8c-1.6-1.6-4.7,0-5.6,1.2L75.4,85.5" />
		<path class="st2" d="M75.4,85.5c-5,0-0.9-0.6-3.4-2.8c-1.6-1.6-4.7,0-5.6,1.2" />
		<path class="st3" d="M67.3,88c0.6,0.3,1.2,0.3,2.2-0.3L67.3,88" />
		<path class="st1" d="M67.3,88c0.6,0.3,1.2,0.3,2.2-0.3L67.3,88" />
		<path class="st2" d="M67.3,88c0.6,0.3,1.2,0.3,2.2-0.3" />
		<path class="st3" d="M76.9,89.6c-0.9,2.2,0.9,2.8,1.9,0.6L76.9,89.6" />
		<path class="st1" d="M76.9,89.6c-0.9,2.2,0.9,2.8,1.9,0.6L76.9,89.6" />
		<path class="st2" d="M76.9,89.6c-0.9,2.2,0.9,2.8,1.9,0.6" />
		<path class="st3" d="M66,95.5c-0.6-1.9-5.9-3.1-5.6,2.8L66,95.5" />
		<path class="st1" d="M66,95.5c-0.6-1.9-5.9-3.1-5.6,2.8L66,95.5" />
		<path class="st2" d="M66,95.5c-0.6-1.9-5.6-3.1-5.6,2.8" />
		<path class="st3" d="M62.3,100.8c0.6,0.3,1.2,0.3,2.2-0.3L62.3,100.8" />
		<path class="st1" d="M62.3,100.8c0.6,0.3,1.2,0.3,2.2-0.3L62.3,100.8" />
		<path class="st2" d="M62.3,100.8c0.6,0.3,1.2,0.3,2.2-0.3" />
		<path class="st3" d="M73.2,99.3c-1.9,2.2,0,3.7,1.6,1.2L73.2,99.3" />
		<path class="st1" d="M73.2,99.3c-1.9,2.2,0,3.7,1.6,1.2L73.2,99.3" />
		<path class="st2" d="M73.2,99.3c-1.9,2.2,0,3.7,1.6,1.2" />
		<path class="st3" d="M64.8,106.4c-3.4,0.3-0.6,2.5-3.7,2.5c-3.1-0.3-5,1.2-5.6,2.8L64.8,106.4" />
		<path class="st1" d="M64.8,106.4c-3.4,0.3-0.6,2.5-3.7,2.5c-3.1-0.3-5,1.2-5.6,2.8L64.8,106.4" />
		<path class="st2" d="M64.8,106.4c-3.4,0.3-0.6,2.5-3.7,2.5c-3.1-0.3-5,1.2-5.6,2.8" />
		<path class="st3" d="M57,115.5l1.2,0.6L57,115.5z" />
		<polyline class="st1" points="57,115.5 58.2,116.1 57,115.5 	" />
		<line class="st2" x1="57" y1="115.5" x2="58.2" y2="116.1" />
		<path class="st3" d="M68.8,109.9c-0.6,1.6-0.3,4.1,1.6,2.2L68.8,109.9" />
		<path class="st1" d="M68.8,109.9c-0.6,1.6-0.3,4.1,1.6,2.2L68.8,109.9" />
		<path class="st2" d="M68.8,109.9c-0.6,1.6-0.3,4.1,1.6,2.2" />
		<path class="st3" d="M61.7,119.2c-1.6,1.6-3.7,1.6-4.7,3.7L61.7,119.2" />
		<path class="st1" d="M61.7,119.2c-1.6,1.6-3.7,1.6-4.7,3.7L61.7,119.2" />
		<path class="st2" d="M61.7,119.2c-1.6,1.6-3.7,1.6-4.7,3.7" />
		<path class="st3" d="M59.8,122.1c-1.6,2.8-3.1-1.3-5.6,2.5c-0.9,1.9-0.9,3.1,0,4.1L59.8,122.1" />
		<path class="st1" d="M59.8,122.1c-1.6,2.8-3.1-1.3-5.6,2.5c-0.9,1.9-0.9,3.1,0,4.1L59.8,122.1" />
		<path class="st2" d="M59.8,122.1c-1.6,2.8-3.1-1.3-5.6,2.5c-0.9,1.9-0.9,3.1,0,4.1" />
		<path class="st3" d="M56.4,129.2c0.9,0.3,1.9,0,2.8-0.9L56.4,129.2" />
		<path class="st1" d="M56.4,129.2c0.9,0.3,1.9,0,2.8-0.9L56.4,129.2" />
		<path class="st2" d="M56.4,129.2c0.9,0.3,1.9,0,2.8-0.9" />
		<path class="st3" d="M66,123.6c-0.6,2.5,0.6,3.4,2.2,0.6L66,123.6" />
		<path class="st1" d="M66,123.6c-0.6,2.5,0.6,3.4,2.2,0.6L66,123.6" />
		<path class="st2" d="M66,123.6c-0.6,2.5,0.6,3.4,2.2,0.6" />
		<path class="st3" d="M68.2,137.7c0.3,2.2-4,1.6-1.9-0.6L68.2,137.7" />
		<path class="st1" d="M68.2,137.7c0.3,2.2-4,1.6-1.9-0.6L68.2,137.7" />
		<path class="st2" d="M68.2,137.7c0.3,2.2-4,1.6-1.9-0.6" />
		<path class="st3" d="M61.3,133c-1.9,0-1.6,2.2-2.8,3.1L61.3,133" />
		<path class="st1" d="M61.3,133c-1.9,0-1.6,2.2-2.8,3.1L61.3,133" />
		<path class="st2" d="M61.3,133c-1.9,0-1.6,2.2-2.8,3.1" />
		<path class="st3" d="M59.8,136.1c-8.7,0.3-8.7,5.6-4.7,6.9L59.8,136.1" />
		<path class="st1" d="M59.8,136.1c-8.7,0.3-8.7,5.6-4.7,6.9L59.8,136.1" />
		<path class="st2" d="M59.8,136.1c-8.7,0.3-8.7,5.6-4.7,6.9" />
		<path class="st3" d="M56.1,143.3c1.2,0,2.5-0.6,3.1-2.2L56.1,143.3" />
		<path class="st1" d="M56.1,143.3c1.2,0,2.5-0.6,3.1-2.2L56.1,143.3" />
		<path class="st2" d="M56.1,143.3c1.2,0,2.5-0.6,3.1-2.2" />
		<path class="st3" d="M70.7,150.5c-0.9,2.2-3.4,2.5-3.1-0.9L70.7,150.5" />
		<path class="st1" d="M70.7,150.5c-0.9,2.2-3.4,2.5-3.1-0.9L70.7,150.5" />
		<path class="st2" d="M70.7,150.5c-0.9,2.2-3.4,2.5-3.1-0.9" />
		<path class="st3" d="M62,147c-1.2,0.3-2.8,4.7-4.7,4.7c-2.8,0.3-5.3,7.5-0.9,6.6L62,147" />
		<path class="st1" d="M62,147c-1.2,0.3-2.8,4.7-4.7,4.7c-2.8,0.3-5.3,7.5-0.9,6.6L62,147" />
		<path class="st2" d="M62,147c-1.2,0.3-2.8,4.7-4.7,4.7c-2.8,0.3-5.3,7.5-0.9,6.6" />
		<path class="st3" d="M57.9,158.3c1.9-0.6,4-1.6,3.7-2.8L57.9,158.3" />
		<path class="st1" d="M57.9,158.3c1.9-0.6,4-1.6,3.7-2.8L57.9,158.3" />
		<path class="st2" d="M57.9,158.3c1.9-0.6,4-1.6,3.7-2.8" />
		<path class="st3" d="M59.2,173.6c-2.2-1.9,0.6-7.2,2.8-8.1c1.2-0.6-0.6-1.2,0.6-2.5L59.2,173.6" />
		<path class="st1" d="M59.2,173.6c-2.2-1.9,0.6-7.2,2.8-8.1c1.2-0.6-0.6-1.2,0.6-2.5L59.2,173.6" />
		<path class="st2" d="M59.2,173.6c-2.2-1.9,0.6-7.2,2.8-8.1c1.2-0.6-0.6-1.2,0.6-2.5" />
		<path class="st3" d="M72.9,163.9c0.9,2.2-3.4,3.4-2.5,0.6L72.9,163.9" />
		<path class="st1" d="M72.9,163.9c0.9,2.2-3.4,3.4-2.5,0.6L72.9,163.9" />
		<path class="st2" d="M72.9,163.9c0.9,2.2-3.4,3.4-2.5,0.6" />
		<path class="st3" d="M66.3,170.8c0.3,3.4-1.2,3.7-4,3.7L66.3,170.8" />
		<path class="st1" d="M66.3,170.8c0.3,3.4-1.2,3.7-4,3.7L66.3,170.8" />
		<path class="st2" d="M66.3,170.8c0.3,3.4-1.2,3.7-4,3.7" />
		<path class="st3" d="M70.1,177.6c-1.6-2.2-2.5,2.2-5.3,3.1c-3.1,0.6-0.9,5,0.6,6.6L70.1,177.6" />
		<path class="st1" d="M70.1,177.6c-1.6-2.2-2.5,2.2-5.3,3.1c-3.1,0.6-0.9,5,0.6,6.6L70.1,177.6" />
		<path class="st2" d="M70.1,177.6c-1.6-2.2-2.5,2.2-5.3,3.1c-3.1,0.6-0.9,5,0.6,6.6" />
		<path class="st3" d="M66.6,188c0.9-0.3,1.6-1.6,2.5-2.5L66.6,188" />
		<path class="st1" d="M66.6,188c0.9-0.3,1.6-1.6,2.5-2.5L66.6,188" />
		<path class="st2" d="M66.6,188c0.9-0.3,1.6-1.6,2.5-2.5" />
		<path class="st3" d="M77.5,178.9c-1.2,3.1-4.1,1.6-3.1-0.9L77.5,178.9" />
		<path class="st1" d="M77.5,178.9c-1.2,3.1-4.1,1.6-3.1-0.9L77.5,178.9" />
		<path class="st2" d="M77.5,178.9c-1.2,3.1-4.1,1.6-3.1-0.9" />
		<path class="st3" d="M74.7,189.8c-0.6,0.3-0.9,0.6-1.9,2.8L74.7,189.8" />
		<path class="st1" d="M74.7,189.8c-0.6,0.3-0.9,0.6-1.9,2.8L74.7,189.8" />
		<path class="st2" d="M74.7,189.8c-0.6,0.3-0.9,0.6-1.9,2.8" />
		<path class="st3" d="M74.1,192.6c-5.9-0.9-4.7,6.9-4.7,6.2L74.1,192.6" />
		<path class="st1" d="M74.1,192.6c-5.9-0.9-4.7,6.9-4.7,6.2L74.1,192.6" />
		<path class="st2" d="M74.1,192.6c-5.9-0.9-4.7,6.9-4.7,6.2" />
		<path class="st3" d="M72.9,200.5c1.2-0.3,2.5-1.2,2.5-2.2L72.9,200.5" />
		<path class="st1" d="M72.9,200.5c1.2-0.3,2.5-1.2,2.5-2.2L72.9,200.5" />
		<path class="st2" d="M72.9,200.5c1.2-0.3,2.5-1.2,2.5-2.2" />
		<path class="st3" d="M82.2,192.3c0.6,1.6-3.1,2.8-2.2,0.6L82.2,192.3" />
		<path class="st1" d="M82.2,192.3c0.6,1.6-3.1,2.8-2.2,0.6L82.2,192.3" />
		<path class="st2" d="M82.2,192.3c0.6,1.6-3.1,2.8-2.2,0.6" />
		<path class="st3" d="M76,208.6c-0.9-0.9,0-1.9,3.4-3.4L76,208.6" />
		<path class="st1" d="M76,208.6c-0.9-0.9,0-1.9,3.4-3.4L76,208.6" />
		<path class="st2" d="M76,208.6c-0.9-0.9,0-1.9,3.4-3.4" />
		<path class="st3" d="M84.4,206.4c-1.2,1.6,3.4,1.9,2.5,0H84.4" />
		<path class="st1" d="M84.4,206.4c-1.2,1.6,3.4,1.9,2.5,0H84.4" />
		<path class="st2" d="M84.4,206.4c-1.2,1.6,3.4,1.9,2.5,0" />
		<path class="st3" d="M78.2,287.9c-2.2,0-1.9-5-8.1-2.5c-3.1,0.9-2.8-6.9,1.2-8.4c5-1.9,6.9,0.9,10-0.3c-0.3-1.2,0.3-2.2,0.9-2.8
		c-2.8-3.7-6.9,1.2-9.3-1.9c-1.6-1.9-0.9-11.2,7.2-9.1c1.9,0.6,2.2,0.3,4,0.3c-0.6-1.6,0.3-3.1,1.6-4.1c-3.4-3.7-7.5,1.2-11.5-0.6
		c-2.8-1.2-0.6-9.1,2.8-8.7c2.5,0.3,5.3-0.9,7.8-1.2c-0.3-0.9,0-2.2,0.9-3.1c-5.6-2.2-5,1.9-9.7,2.5c-2.8,0.3-5-9.1-0.3-8.7
		c4.7,0.3,7.8-0.9,8.4-2.8c-0.6-0.9-0.6-1.9-0.3-2.5c-5.3-2.8-6.5,6.6-10.9,0.6c-2.5-3.1,0.6-8.4,4.4-7.8c3.4,0.9,2.5,0,5-1.9
		c0-0.6-0.3-1.9-1.6-1.6c-0.6,0-1.6-1.6-1.2-2.5c0.9-2.5,2.8-5.3,6.2-5c1.6,0,3.4,5.9,5.6,0.9c0.6-0.9,8.7-1.2,10-2.8
		c4.7-5,4,7.5,6.2,9.1c2.2,1.2-3.4,2.5-4.1,2.8c-1.2,0-8.7,2.5-9,0.3c-0.3-2.5-4.7-1.6-4.4,3.4c2.5,0.6,1.6,4.4,5,0.9
		c2.5-2.5,10.3-1.2,13.4-2.5c2.8-1.2,0.3,5.6,2.8,10.3c1.9,3.4-6.9,0.9-13.1,3.8c-1.9,0.9,0.9-4.7-3.1-3.4c-3.4,0.9-2.2,1.9-3.1,4.4
		c2.2,0.3,2.8,1.6,3.7,3.1c1.2-0.6,0.9-2.8,3.1-2.2c4.4,1.3,11.5-0.3,13.1,0.6c2.5,1.6-0.9,6.6,0.3,12.5c0.9,4.1-9.3,0.3-15,0.9
		c-1.2,0,1.9-5-2.2-5c-2.2,0-3.1,3.1-3.4,5.3c2.5,0.6,0,2.8,3.4,3.1c2.8,0,0-2.8,6.9-0.9c3.4,0.9,13.1-0.6,9.7,6.2
		c-2.2,4.1-0.3,9.1-2.5,9.1c-5,0-9-2.5-14-3.1c-1.9,0,3.4-4.4-0.9-3.8c-0.9,0-5.3,1.9-5.3,3.4c2.8-0.3,0,2.8,2.2,3.1
		c1.6,0,3.1-2.5,4.4-1.2c3.4,3.4,11.5,5.6,11.5,7.2c0.6,4.1-4.4,2.5-5.9,7.8c-2.2,6.2-4.4,2.5-7.8-0.6c-3.4-2.8-4.7-0.9-5.3-3.4
		c-0.9-3.4-2.8-1.6-2.5,2.5L78.2,287.9" />
		<path class="st1" d="M78.2,287.9c-2.2,0-1.9-5-8.1-2.5c-3.1,0.9-2.8-6.9,1.2-8.4c5-1.9,6.9,0.9,10-0.3c-0.3-1.2,0.3-2.2,0.9-2.8
		c-2.8-3.7-6.9,1.2-9.3-1.9c-1.6-1.9-0.9-11.2,7.2-9.1c1.9,0.6,2.2,0.3,4,0.3c-0.6-1.6,0.3-3.1,1.6-4.1c-3.4-3.7-7.5,1.2-11.5-0.6
		c-2.8-1.2-0.6-9.1,2.8-8.7c2.5,0.3,5.3-0.9,7.8-1.2c-0.3-0.9,0-2.2,0.9-3.1c-5.6-2.2-5,1.9-9.7,2.5c-2.8,0.3-5-9.1-0.3-8.7
		c4.7,0.3,7.8-0.9,8.4-2.8c-0.6-0.9-0.6-1.9-0.3-2.5c-5.3-2.8-6.5,6.6-10.9,0.6c-2.5-3.1,0.6-8.4,4.4-7.8c3.4,0.9,2.5,0,5-1.9
		c0-0.6-0.3-1.9-1.6-1.6c-0.6,0-1.6-1.6-1.2-2.5c0.9-2.5,2.8-5.3,6.2-5c1.6,0,3.4,5.9,5.6,0.9c0.6-0.9,8.7-1.2,10-2.8
		c4.7-5,4,7.5,6.2,9.1c2.2,1.2-3.4,2.5-4.1,2.8c-1.2,0-8.7,2.5-9,0.3c-0.3-2.5-4.7-1.6-4.4,3.4c2.5,0.6,1.6,4.4,5,0.9
		c2.5-2.5,10.3-1.2,13.4-2.5c2.8-1.2,0.3,5.6,2.8,10.3c1.9,3.4-6.9,0.9-13.1,3.8c-1.9,0.9,0.9-4.7-3.1-3.4c-3.4,0.9-2.2,1.9-3.1,4.4
		c2.2,0.3,2.8,1.6,3.7,3.1c1.2-0.6,0.9-2.8,3.1-2.2c4.4,1.3,11.5-0.3,13.1,0.6c2.5,1.6-0.9,6.6,0.3,12.5c0.9,4.1-9.3,0.3-15,0.9
		c-1.2,0,1.9-5-2.2-5c-2.2,0-3.1,3.1-3.4,5.3c2.5,0.6,0,2.8,3.4,3.1c2.8,0,0-2.8,6.9-0.9c3.4,0.9,13.1-0.6,9.7,6.2
		c-2.2,4.1-0.3,9.1-2.5,9.1c-5,0-9-2.5-14-3.1c-1.9,0,3.4-4.4-0.9-3.8c-0.9,0-5.3,1.9-5.3,3.4c2.8-0.3,0,2.8,2.2,3.1
		c1.6,0,3.1-2.5,4.4-1.2c3.4,3.4,11.5,5.6,11.5,7.2c0.6,4.1-4.4,2.5-5.9,7.8c-2.2,6.2-4.4,2.5-7.8-0.6c-3.4-2.8-4.7-0.9-5.3-3.4
		c-0.9-3.4-2.8-1.6-2.5,2.5L78.2,287.9" />
		<path class="st2" d="M78.2,287.9c-2.2,0-1.9-5-8.1-2.5c-3.1,0.9-2.8-6.9,1.2-8.4c5-1.9,6.9,0.9,10-0.3c-0.3-1.2,0.3-2.2,0.9-2.8
		c-2.8-3.7-6.9,1.2-9.3-1.9c-1.6-1.9-0.9-11.2,7.2-9.1c1.9,0.6,2.2,0.3,4,0.3c-0.6-1.6,0.3-3.1,1.6-4.1c-3.4-3.7-7.5,1.2-11.5-0.6
		c-2.8-1.2-0.6-9.1,2.8-8.7c2.5,0.3,5.3-0.9,7.8-1.2c-0.3-0.9,0-2.2,0.9-3.1c-5.6-2.2-5,1.9-9.7,2.5c-2.8,0.3-5-9.1-0.3-8.7
		c4.7,0.3,7.8-0.9,8.4-2.8c-0.6-0.9-0.6-1.9-0.3-2.5c-5.3-2.8-6.5,6.6-10.9,0.6c-2.5-3.1,0.6-8.4,4.4-7.8c3.4,0.9,2.5,0,5-1.9
		c0-0.6-0.3-1.9-1.6-1.6c-0.6,0-1.6-1.6-1.2-2.5c0.9-2.5,2.8-5.3,6.2-5c1.6,0,3.4,5.9,5.6,0.9c0.6-0.9,8.7-1.2,10-2.8
		c4.7-5,4,7.5,6.2,9.1c2.2,1.2-3.4,2.5-4.1,2.8c-1.2,0-8.7,2.5-9,0.3c-0.3-2.5-4.7-1.6-4.4,3.4c2.5,0.6,1.6,4.4,5,0.9
		c2.5-2.5,10.3-1.2,13.4-2.5c2.8-1.2,0.3,5.6,2.8,10.3c1.9,3.4-6.9,0.9-13.1,3.8c-1.9,0.9,0.9-4.7-3.1-3.4c-3.4,0.9-2.2,1.9-3.1,4.4
		c2.2,0.3,2.8,1.6,3.7,3.1c1.2-0.6,0.9-2.8,3.1-2.2c4.4,1.3,11.5-0.3,13.1,0.6c2.5,1.6-0.9,6.6,0.3,12.5c0.9,4.1-9.3,0.3-15,0.9
		c-1.2,0,1.9-5-2.2-5c-2.2,0-3.1,3.1-3.4,5.3c2.5,0.6,0,2.8,3.4,3.1c2.8,0,0-2.8,6.9-0.9c3.4,0.9,13.1-0.6,9.7,6.2
		c-2.2,4.1-0.3,9.1-2.5,9.1c-5,0-9-2.5-14-3.1c-1.9,0,3.4-4.4-0.9-3.8c-0.9,0-5.3,1.9-5.3,3.4c2.8-0.3,0,2.8,2.2,3.1
		c1.6,0,3.1-2.5,4.4-1.2c3.4,3.4,11.5,5.6,11.5,7.2c0.6,4.1-4.4,2.5-5.9,7.8c-2.2,6.2-4.4,2.5-7.8-0.6c-3.4-2.8-4.7-0.9-5.3-3.4
		c-0.9-3.4-2.8-1.6-2.5,2.5" />
		<path class="st3" d="M87.5,222.9c-3.7-1.6-4.4,5.3,0.6,3.7L87.5,222.9" />
		<path class="st1" d="M87.5,222.9c-3.7-1.6-4.4,5.3,0.6,3.7L87.5,222.9" />
		<path class="st2" d="M87.5,222.9c-3.7-1.6-4.4,5.3,0.6,3.7" />
		<path class="st3" d="M82.2,224.8c0.3,0.6,0.3,0.6,0.9,0.6L82.2,224.8" />
		<path class="st1" d="M82.2,224.8c0.3,0.6,0.3,0.6,0.9,0.6L82.2,224.8" />
		<path class="st2" d="M82.2,224.8c0.3,0.6,0.3,0.6,0.9,0.6" />
		<path class="st3" d="M90,229.5c-2.2-0.6-5.9,1.6-6.2,4.4L90,229.5" />
		<path class="st1" d="M90,229.5c-2.2-0.6-5.9,1.6-6.2,4.4L90,229.5" />
		<path class="st2" d="M90,229.5c-2.2-0.6-5.9,1.6-6.2,4.4" />
		<path class="st3" d="M84.1,236.4c0.3,0.3,0.9,0.9,1.6,1.3L84.1,236.4" />
		<path class="st1" d="M84.1,236.4c0.3,0.3,0.9,0.9,1.6,1.3L84.1,236.4" />
		<path class="st2" d="M84.1,236.4c0.3,0.3,0.9,0.9,1.6,1.3" />
		<path class="st3" d="M90,234.5c-3.4-1.6-4.4,5.3-0.3,4.1L90,234.5" />
		<path class="st1" d="M90,234.5c-3.4-1.6-4.4,5.3-0.3,4.1L90,234.5" />
		<path class="st2" d="M90,234.5c-3.4-1.6-4.4,5.3-0.3,4.1" />
		<path class="st3" d="M91.9,242.9c-2.2-0.6-5,0.6-6.2,2.5L91.9,242.9" />
		<path class="st1" d="M91.9,242.9c-2.2-0.6-5,0.6-6.2,2.5L91.9,242.9" />
		<path class="st2" d="M91.9,242.9c-2.2-0.6-5,0.6-6.2,2.5" />
		<path class="st3" d="M84.7,248.6c0,0.9,0.3,1.6,0.9,2.2L84.7,248.6" />
		<path class="st1" d="M84.7,248.6c0,0.9,0.3,1.6,0.9,2.2L84.7,248.6" />
		<path class="st2" d="M84.7,248.6c0,0.9,0.3,1.6,0.9,2.2" />
		<path class="st3" d="M91.3,248.2c-3.4-3.7-5.9,5-0.9,4.4L91.3,248.2" />
		<path class="st1" d="M91.3,248.2c-3.4-3.7-5.9,5-0.9,4.4L91.3,248.2" />
		<path class="st2" d="M91.3,248.2c-3.4-3.7-5.9,5-0.9,4.4" />
		<path class="st3" d="M91.6,258.2c-1.9-0.6-4.4-0.3-5.9,0.9L91.6,258.2" />
		<path class="st1" d="M91.6,258.2c-1.9-0.6-4.4-0.3-5.9,0.9L91.6,258.2" />
		<path class="st2" d="M91.6,258.2c-1.9-0.6-4.4-0.3-5.9,0.9" />
		<path class="st3" d="M84.1,263.2l0.6,1.2L84.1,263.2z" />
		<polyline class="st1" points="84.1,263.2 84.7,264.5 84.1,263.2 	" />
		<line class="st2" x1="84.1" y1="263.2" x2="84.7" y2="264.5" />
		<path class="st3" d="M90.6,261.7c-4,0-3.7,7.5,0.9,4.7L90.6,261.7" />
		<path class="st1" d="M90.6,261.7c-4,0-3.7,7.5,0.9,4.7L90.6,261.7" />
		<path class="st2" d="M90.6,261.7c-4,0-3.7,7.5,0.9,4.7" />
		<path class="st3" d="M88.8,272.3c-2.2,0-5,0.3-6.5,1.6L88.8,272.3" />
		<path class="st1" d="M88.8,272.3c-2.2,0-5,0.3-6.5,1.6L88.8,272.3" />
		<path class="st2" d="M88.8,272.3c-2.2,0-5,0.3-6.5,1.6" />
		<path class="st3" d="M81.3,276.7l0.3,1.9L81.3,276.7z" />
		<polyline class="st1" points="81.3,276.7 81.6,278.5 81.3,276.7 	" />
		<line class="st2" x1="81.3" y1="276.7" x2="81.6" y2="278.5" />
		<path class="st3" d="M89.1,277.6c-3.1-2.2-6.2,5.3-1.6,4.7L89.1,277.6" />
		<path class="st1" d="M89.1,277.6c-3.1-2.2-6.2,5.3-1.6,4.7L89.1,277.6" />
		<path class="st2" d="M89.1,277.6c-3.1-2.2-6.2,5.3-1.6,4.7" />
		<path class="st3" d="M95,297.6c0,0,0.9,1.9-1.6,2.5c-7.2,1.6-1.2,6.9-7.8,9.7c-5.9,2.5-4-1.2-9.3,1.3c-5.9,2.8-4.4-0.6-10.3,3.1
		c-5.6,3.4-2.2,3.1-4.1,9.1c-1.2,3.1,0,7.5-1.2,9.4c1.2,0,3.1,4.1,2.5,5.6c1.2,0.3,1.9,1.9,1.9,2.8c0.6,0.3,1.2,0.9,1.2,1.9
		c3.1,0.6,3.4,6.6-0.6,1.2c-0.9-0.6-2.2-0.6-2.2-2.2c-1.2-0.3-3.1-2.2-2.8-3.8c-4.1-0.9-2.8-1.9-3.7-5.9c-5.9-1.3-2.5-3.8-4.4-9.7
		c-2.8-8.7,0.3-3.4,0.6-12.2c0.3-8.1,5.3-5.6,4.7-9.4c-0.6-4.4,3.7-5.6,6.9-6.9c2.8-0.9,2.2-8.1,7.2-4.4c4,2.8,7.2-5.6,11.5-3.4
		c0.9,0.6,1.6,1.3,2.5,1.9c0-1.2,1.2-1.9,2.2-1.9L95,297.6" />
		<path class="st1" d="M95,297.6c0,0,0.9,1.9-1.6,2.5c-7.2,1.6-1.2,6.9-7.8,9.7c-5.9,2.5-4-1.2-9.3,1.3c-5.9,2.8-4.4-0.6-10.3,3.1
		c-5.6,3.4-2.2,3.1-4.1,9.1c-1.2,3.1,0,7.5-1.2,9.4c1.2,0,3.1,4.1,2.5,5.6c1.2,0.3,1.9,1.9,1.9,2.8c0.6,0.3,1.2,0.9,1.2,1.9
		c3.1,0.6,3.4,6.6-0.6,1.2c-0.9-0.6-2.2-0.6-2.2-2.2c-1.2-0.3-3.1-2.2-2.8-3.8c-4.1-0.9-2.8-1.9-3.7-5.9c-5.9-1.3-2.5-3.8-4.4-9.7
		c-2.8-8.7,0.3-3.4,0.6-12.2c0.3-8.1,5.3-5.6,4.7-9.4c-0.6-4.4,3.7-5.6,6.9-6.9c2.8-0.9,2.2-8.1,7.2-4.4c4,2.8,7.2-5.6,11.5-3.4
		c0.9,0.6,1.6,1.3,2.5,1.9c0-1.2,1.2-1.9,2.2-1.9L95,297.6" />
		<path class="st2" d="M95,297.6c0,0,0.9,1.9-1.6,2.5c-7.2,1.6-1.2,6.9-7.8,9.7c-5.9,2.5-4-1.2-9.3,1.3c-5.9,2.8-4.4-0.6-10.3,3.1
		c-5.6,3.4-2.2,3.1-4.1,9.1c-1.2,3.1,0,7.5-1.2,9.4c1.2,0,3.1,4.1,2.5,5.6c1.2,0.3,1.9,1.9,1.9,2.8c0.6,0.3,1.2,0.9,1.2,1.9
		c3.1,0.6,3.4,6.6-0.6,1.2c-0.9-0.6-2.2-0.6-2.2-2.2c-1.2-0.3-3.1-2.2-2.8-3.8c-4.1-0.9-2.8-1.9-3.7-5.9c-5.9-1.3-2.5-3.8-4.4-9.7
		c-2.8-8.7,0.3-3.4,0.6-12.2c0.3-8.1,5.3-5.6,4.7-9.4c-0.6-4.4,3.7-5.6,6.9-6.9c2.8-0.9,2.2-8.1,7.2-4.4c4,2.8,7.2-5.6,11.5-3.4
		c0.9,0.6,1.6,1.3,2.5,1.9c0-1.2,1.2-1.9,2.2-1.9" />
		<path class="st3" d="M95,297.6c-4-2.2-6.2-6.6-9-9.4L95,297.6" />
		<path class="st1" d="M95,297.6c-4-2.2-6.2-6.6-9-9.4L95,297.6" />
		<path class="st3" d="M89.1,302c2.2-3.7-1.9-6.2-5.3-5.6c-6.2,0.9,0,5.6-5.3,5.9c-2.8-0.3-0.3,4.4-7.8,1.6
		c-5.6-1.9-8.1,6.6-8.1,10.6L89.1,302" />
		<path class="st2" d="M89.1,302c2.2-3.7-1.9-6.2-5.3-5.6c-6.2,0.9,0,5.6-5.3,5.9c-2.8-0.3-0.3,4.4-7.8,1.6
		c-5.6-1.9-8.1,6.6-8.1,10.6" />
		<path class="st3" d="M66.3,342.9c0.3,0.6,0,1.6-0.6,1.2L66.3,342.9" />
		<path class="st1" d="M66.3,342.9c0.3,0.6,0,1.6-0.6,1.2L66.3,342.9" />
		<path class="st2" d="M66.3,342.9c0.3,0.6,0,1.6-0.6,1.2" />
		<path class="st3" d="M63.5,341.9c0.9,0.3,1.6,0,1.6-0.9L63.5,341.9" />
		<path class="st1" d="M63.5,341.9c0.9,0.3,1.6,0,1.6-0.9L63.5,341.9" />
		<path class="st2" d="M63.5,341.9c0.9,0.3,1.6,0,1.6-0.9" />
		<path class="st3" d="M63.2,338.2c-0.3,1.6-1.6,0.3-2.5,0H63.2" />
		<path class="st1" d="M63.2,338.2c-0.3,1.6-1.6,0.3-2.5,0H63.2" />
		<path class="st2" d="M63.2,338.2c-0.3,1.6-1.6,0.3-2.5,0" />
		<path class="st3" d="M57,332.3c0.3,0.3,3.4,0.9,3.7,0.3L57,332.3" />
		<path class="st1" d="M57,332.3c0.3,0.3,3.4,0.9,3.7,0.3L57,332.3" />
		<path class="st2" d="M57,332.3c0.3,0.3,3.4,0.9,3.7,0.3" />
		<path class="st3" d="M57.3,320.7c0.6-0.9,0.3-2.5-0.3-3.1L57.3,320.7" />
		<path class="st1" d="M57.3,320.7c0.6-0.9,0.3-2.5-0.3-3.1L57.3,320.7" />
		<path class="st2" d="M57.3,320.7c0.6-0.9,0.3-2.5-0.3-3.1" />
		<path class="st3" d="M57.6,312.9c1.6,0,2.8-4.4,0.6-3.4L57.6,312.9" />
		<path class="st1" d="M57.6,312.9c1.6,0,2.8-4.4,0.6-3.4L57.6,312.9" />
		<path class="st2" d="M57.6,312.9c1.6,0,2.8-4.4,0.6-3.4" />
		<path class="st3" d="M67,300.7c0.6-1.9-0.6-3.7,1.2-5.3L67,300.7" />
		<path class="st1" d="M67,300.7c0.6-1.9-0.6-3.7,1.2-5.3L67,300.7" />
		<path class="st2" d="M67,300.7c0.6-1.9-0.6-3.7,1.2-5.3" />
		<path class="st3" d="M76,296.3c0.3,4.1,2.2-3.4,0.6-3.1L76,296.3" />
		<path class="st1" d="M76,296.3c0.3,4.1,2.2-3.4,0.6-3.1L76,296.3" />
		<path class="st2" d="M76,296.3c0.3,4.1,2.2-3.4,0.6-3.1" />
	</g>
</svg>
